<svg width="92" height="84" viewBox="0 0 92 84" fill="none" xmlns="http://www.w3.org/2000/svg">
<path d="M80.3556 15.6374H79.651L79.3333 15.333H77.459V21.582L78.0058 21.869H80.3552C81.9898 21.869 83.3148 20.4739 83.3148 18.7532C83.3152 17.0325 81.9902 15.6374 80.3556 15.6374Z" fill="#FFCEBE"/>
<path d="M57.6394 15.6378C56.0073 15.6406 54.6848 17.0343 54.6848 18.7534C54.6848 20.4742 56.0098 21.8691 57.6444 21.8691H59.994L60.3761 21.164V15.333H58.1846L57.6394 15.6378Z" fill="#FFCEBE"/>
<path d="M80.5485 15.6481C80.4844 15.6438 80.4208 15.6379 80.3557 15.6379H79.6512L79.3335 15.3335H77.4592V21.5825L78.006 21.8694H80.3554C80.4204 21.8694 80.4842 21.8635 80.5482 21.8592V15.6481H80.5485Z" fill="#FFB1A0"/>
<path d="M57.774 18.7537C57.774 17.1606 58.9103 15.849 60.3759 15.6629V15.3335H58.1846L57.6394 15.6381C56.0073 15.6409 54.6848 17.0346 54.6848 18.7537C54.6848 20.4745 56.0098 21.8694 57.6444 21.8694H59.994L60.0422 21.7805C58.7418 21.452 57.774 20.2233 57.774 18.7537Z" fill="#FFB1A0"/>
<path d="M87.1317 38.4162C86.7132 38.2541 81.1521 36.1004 77.5583 34.7087L76.8191 35.063H61.1002L60.4334 34.6807L50.8685 38.4164C48.787 39.2728 46 41.9681 46 45.9676V54.9778H53.5011V63.7248H84.4989V54.9778H92C92 50.6114 92 46.6532 92 45.9676C92 42.5231 89.7947 39.5123 87.1317 38.4162Z" fill="#FF7F87"/>
<path d="M52.2979 42.6989C52.2979 39.8791 53.7999 37.9284 55.3738 36.6567L50.8685 38.4162C48.787 39.273 46 41.9683 46 45.9678V54.978H52.2979C52.2979 49.8931 52.2979 45.0142 52.2979 42.6989Z" fill="#FF636E"/>
<path d="M84.499 54.7925V63.7246H90.3776C91.2737 63.7246 92 62.9981 92 62.1022C92 61.336 92 60.5195 92 54.7925H84.499Z" fill="#FFCEBE"/>
<path d="M74.5529 33.5447C74.2079 33.4114 73.9786 33.0793 73.9777 32.7075L73.9752 29.7488L73.3637 29.124H64.5711L64.0171 29.7355V32.7021C64.0171 33.0728 63.8389 33.2913 63.6337 33.4308L60.4336 34.6807C61.5539 38.1188 64.7492 40.8077 69.1287 40.8077C73.0534 40.8077 76.3893 38.2466 77.5585 34.7087C75.9505 34.0859 74.736 33.6155 74.5529 33.5447Z" fill="#FFCEBE"/>
<path d="M68.9959 29.124H64.5709L64.0169 29.7355V32.7021C64.0169 33.0728 63.8387 33.2913 63.6335 33.4308L60.4334 34.6807C61.5424 38.084 64.6848 40.7512 68.9959 40.8051V29.124Z" fill="#FFB1A0"/>
<path d="M54.8893 63.7247V46.8287C54.8893 46.062 54.2678 45.4404 53.5011 45.4404C52.7343 45.4404 52.1128 46.062 52.1128 46.8287V63.7247H54.8893Z" fill="#FF636E"/>
<path d="M85.8874 63.7247V46.8287C85.8874 46.062 85.2658 45.4404 84.4991 45.4404C83.7324 45.4404 83.1108 46.062 83.1108 46.8287V63.7247H85.8874Z" fill="#FF636E"/>
<path d="M77.5584 14.8707L76.8191 14.3771L76.2637 11.9707H75.184L70.6796 15.241H66.69L66.3539 15.7835V22.2964C66.3539 25.9189 68.5215 29.2999 72.0484 30.699C75.513 29.4884 78.0061 26.1894 78.0061 22.3173V15.8802L77.5584 14.8707Z" fill="#FFDECF"/>
<path d="M66.4869 22.3168V15.9501L66.9264 15.2407H60.4334L59.9939 15.9501V22.3168C59.9939 26.9565 63.6293 31.1943 69.1285 31.1943C70.2359 31.1943 71.2959 30.9887 72.2745 30.6166C68.696 29.305 66.4869 25.9334 66.4869 22.3168Z" fill="#FFCEBE"/>
<path d="M77.4293 4.26427C76.5812 4.3295 75.8028 3.79618 75.6394 2.96118C75.3645 1.55512 74.6682 0.159668 71.949 0.159668H62.5142C59.0516 0.159668 56.2445 2.96675 56.2445 6.42932V13.3103C56.2445 14.7683 57.4265 15.9501 58.8843 15.9501H69.5924C71.9875 15.9501 74.0677 14.6064 75.1232 12.6323C75.205 12.4792 75.4373 12.5391 75.4373 12.7126C75.4373 14.4933 76.8942 15.9502 78.6749 15.9502C79.6082 15.9502 80.3719 15.1866 80.3719 14.2533V7.07261C80.372 5.38103 78.8961 4.15143 77.4293 4.26427Z" fill="#365E7D"/>
<path d="M61.5665 13.3101V6.42932C61.5665 2.96657 64.3736 0.159668 67.8361 0.159668H62.5142C59.0516 0.159668 56.2445 2.96675 56.2445 6.42932V13.3103C56.2445 14.7683 57.4265 15.9501 58.8845 15.9501H64.2065C62.7485 15.9501 61.5665 14.7681 61.5665 13.3101Z" fill="#2B4D66"/>
<path d="M34.3555 15.6374H33.651L33.3333 15.333H31.459V21.582L32.006 21.869H34.3554C35.99 21.869 37.315 20.4739 37.315 18.7532C37.3152 17.0325 35.9902 15.6374 34.3555 15.6374Z" fill="#FFCEBE"/>
<path d="M11.6394 15.6378C10.0073 15.6406 8.68481 17.0343 8.68481 18.7534C8.68481 20.4742 10.0098 21.8691 11.6444 21.8691H13.994L14.3761 21.164V15.333H12.1846L11.6394 15.6378Z" fill="#FFCEBE"/>
<path d="M34.5485 15.6481C34.4844 15.6438 34.4208 15.6379 34.3557 15.6379H33.6512L33.3335 15.3335H31.4592V21.5825L32.0061 21.8694H34.3556C34.4206 21.8694 34.4844 21.8635 34.5484 21.8592V15.6481H34.5485Z" fill="#FFB1A0"/>
<path d="M11.774 18.7537C11.774 17.1606 12.9103 15.849 14.3759 15.6629V15.3335H12.1846L11.6394 15.6381C10.0073 15.6409 8.68481 17.0346 8.68481 18.7537C8.68481 20.4745 10.0098 21.8694 11.6444 21.8694H13.994L14.0422 21.7805C12.7418 21.452 11.774 20.2233 11.774 18.7537Z" fill="#FFB1A0"/>
<path d="M41.1317 38.4162C40.7132 38.2541 35.1521 36.1004 31.5583 34.7087L30.8191 35.063H15.1L14.4332 34.6807L4.86827 38.4164C2.78713 39.2728 0 41.9681 0 45.9676V54.9778H7.50105V63.7248H38.4989V54.9778H46C46 50.6114 46 46.6532 46 45.9676C46 42.5231 43.7949 39.5123 41.1317 38.4162Z" fill="#B3E59F"/>
<path d="M6.29787 42.6989C6.29787 39.8791 7.79988 37.9284 9.37376 36.6567L4.86845 38.4162C2.78713 39.273 0 41.9683 0 45.9678V54.978H6.29787C6.29787 49.8931 6.29787 45.0142 6.29787 42.6989Z" fill="#95D6A4"/>
<path d="M7.50105 54.7925H0V62.1022C0 62.9981 0.726477 63.7246 1.6224 63.7246H7.50105V54.7925Z" fill="#FFB1A0"/>
<path d="M28.5529 33.5447C28.2079 33.4114 27.9786 33.0793 27.9777 32.7075L27.9752 29.7488L27.3637 29.124H18.5711L18.0171 29.7355V32.7021C18.0171 33.0728 17.8389 33.2913 17.6336 33.4308L14.4336 34.6807C15.5539 38.1188 18.7491 40.8077 23.1287 40.8077C27.0534 40.8077 30.3893 38.2466 31.5585 34.7087C29.9505 34.0859 28.736 33.6155 28.5529 33.5447Z" fill="#FFCEBE"/>
<path d="M22.9959 29.124H18.5709L18.0169 29.7355V32.7021C18.0169 33.0728 17.8387 33.2913 17.6335 33.4308L14.4334 34.6807C15.5424 38.084 18.6848 40.7512 22.9959 40.8051V29.124Z" fill="#FFB1A0"/>
<path d="M8.88932 63.7247V46.8287C8.88932 46.062 8.26778 45.4404 7.50106 45.4404C6.73433 45.4404 6.11279 46.062 6.11279 46.8287V63.7247H8.88932Z" fill="#95D6A4"/>
<path d="M31.5584 14.8707L30.8191 14.3771L30.2637 11.9707H29.184L24.6796 15.241H20.69L20.3539 15.7835V22.2964C20.3539 25.9189 22.5215 29.2999 26.0484 30.699C29.513 29.4884 32.0061 26.1894 32.0061 22.3173V15.8802L31.5584 14.8707Z" fill="#FFDECF"/>
<path d="M20.4869 22.3168V15.9501L20.9264 15.2407H14.4334L13.9939 15.9501V22.3168C13.9939 26.9565 17.6293 31.1943 23.1285 31.1943C24.2359 31.1943 25.2959 30.9887 26.2745 30.6166C22.696 29.305 20.4869 25.9334 20.4869 22.3168Z" fill="#FFCEBE"/>
<path d="M31.4293 4.26427C30.5812 4.3295 29.8028 3.79618 29.6394 2.96118C29.3645 1.55512 28.6682 0.159668 25.949 0.159668H16.5143C13.0518 0.159668 10.2447 2.96675 10.2447 6.42932V13.3103C10.2447 14.7683 11.4267 15.9501 12.8845 15.9501H23.5926C25.9877 15.9501 28.0679 14.6064 29.1234 12.6323C29.2051 12.4792 29.4375 12.5391 29.4375 12.7126C29.4375 14.4933 30.8944 15.9502 32.6751 15.9502C33.6084 15.9502 34.372 15.1866 34.372 14.2533V7.07261C34.372 5.38103 32.8963 4.15143 31.4293 4.26427Z" fill="#365E7D"/>
<path d="M15.5665 13.3101V6.42932C15.5665 2.96657 18.3736 0.159668 21.8362 0.159668H16.5143C13.0518 0.159668 10.2447 2.96675 10.2447 6.42932V13.3103C10.2447 14.7683 11.4267 15.9501 12.8847 15.9501H18.2066C16.7485 15.9501 15.5665 14.7681 15.5665 13.3101Z" fill="#2B4D66"/>
<path d="M57.3556 35.7531H56.651L56.3333 35.4487H54.459V41.6977L55.006 41.9847H57.3554C58.99 41.9847 60.315 40.5896 60.315 38.8689C60.3152 37.148 58.9902 35.7531 57.3556 35.7531Z" fill="#FFCEBE"/>
<path d="M34.6394 35.753C33.0073 35.7559 31.6848 37.1495 31.6848 38.8686C31.6848 40.5895 33.0098 41.9844 34.6444 41.9844H36.994L37.3761 41.2793V35.4482H35.1846L34.6394 35.753Z" fill="#FFCEBE"/>
<path d="M57.5485 35.7634C57.4844 35.7591 57.4208 35.7531 57.3557 35.7531H56.6512L56.3335 35.4487H54.4592V41.6977L55.0061 41.9847H57.3556C57.4206 41.9847 57.4844 41.9788 57.5484 41.9744L57.5485 35.7634Z" fill="#FFB1A0"/>
<path d="M34.774 38.8689C34.774 37.2758 35.9103 35.9643 37.3759 35.7781V35.4487H35.1846L34.6394 35.7533C33.0073 35.7562 31.6848 37.1498 31.6848 38.8689C31.6848 40.5898 33.0098 41.9847 34.6444 41.9847H36.994L37.0422 41.8957C35.7418 41.5674 34.774 40.3386 34.774 38.8689Z" fill="#FFB1A0"/>
<path d="M64.1317 58.5314C63.7132 58.3693 58.1521 56.2156 54.5583 54.8239L53.8191 55.1783H38.1002L37.4336 54.7959L27.8686 58.5316C25.7871 59.388 23 62.0833 23 66.0828V75.093H30.5011V83.84H61.4989V75.093H69C69 70.7266 69 66.7685 69 66.0828C69 62.6384 66.7949 59.6275 64.1317 58.5314Z" fill="#80B4FB"/>
<path d="M29.2979 62.8141C29.2979 59.9943 30.7999 58.0436 32.3738 56.772L27.8685 58.5315C25.7871 59.3882 23 62.0835 23 66.083V75.0933H29.2979C29.2979 70.0083 29.2979 65.1294 29.2979 62.8141Z" fill="#61A2F9"/>
<path d="M30.5011 74.9082H23V82.2179C23 83.1138 23.7265 83.8403 24.6224 83.8403H30.5011V74.9082Z" fill="#FFB1A0"/>
<path d="M61.499 74.9082V83.8403H67.3776C68.2737 83.8403 69 83.114 69 82.2179C69 81.4517 69 80.6352 69 74.9082H61.499Z" fill="#FFCEBE"/>
<path d="M51.5529 53.6599C51.2079 53.5266 50.9786 53.1945 50.9777 52.8228L50.9752 49.864L50.3637 49.2393H41.5711L41.0171 49.8507V52.8174C41.0171 53.1881 40.8389 53.4066 40.6336 53.546L37.4336 54.7959C38.5539 58.2341 41.7491 60.9229 46.1287 60.9229C50.0534 60.9229 53.3893 58.3618 54.5585 54.8239C52.9505 54.2011 51.736 53.7309 51.5529 53.6599Z" fill="#FFCEBE"/>
<path d="M45.9959 49.2393H41.5709L41.0169 49.8507V52.8174C41.0169 53.1881 40.8387 53.4066 40.6335 53.546L37.4334 54.7959C38.5424 58.1992 41.6848 60.8665 45.9959 60.9204V49.2393Z" fill="#FFB1A0"/>
<path d="M31.8893 83.8399V66.9439C31.8893 66.1772 31.2678 65.5557 30.5011 65.5557C29.7343 65.5557 29.1128 66.1772 29.1128 66.9439V83.8399H31.8893Z" fill="#61A2F9"/>
<path d="M62.8874 83.8399V66.9439C62.8874 66.1772 62.2658 65.5557 61.4991 65.5557C60.7324 65.5557 60.1108 66.1772 60.1108 66.9439V83.8399H62.8874Z" fill="#61A2F9"/>
<path d="M54.5584 34.9859L53.8191 34.4923L53.2637 32.0859H52.184L47.6796 35.3562H43.69L43.3539 35.8987V42.4117C43.3539 46.0342 45.5215 49.4152 49.0484 50.8142C52.513 49.6037 55.0061 46.3046 55.0061 42.4325V35.9954L54.5584 34.9859Z" fill="#FFDECF"/>
<path d="M43.4869 42.4321V36.0654L43.9264 35.356H37.4334L36.9939 36.0654V42.4321C36.9939 47.0718 40.6293 51.3095 46.1285 51.3095C47.2359 51.3095 48.2959 51.104 49.2745 50.7318C45.696 49.4201 43.4869 46.0484 43.4869 42.4321Z" fill="#FFCEBE"/>
<path d="M54.4293 24.3795C53.5812 24.4447 52.8028 23.9114 52.6394 23.0764C52.3645 21.6704 51.6682 20.2749 48.949 20.2749H39.5142C36.0516 20.2749 33.2445 23.082 33.2445 26.5446V33.4255C33.2445 34.8835 34.4265 36.0653 35.8843 36.0653H46.5924C48.9875 36.0653 51.0677 34.7216 52.1232 32.7476C52.205 32.5945 52.4373 32.6543 52.4373 32.8279C52.4373 34.6086 53.8942 36.0655 55.6749 36.0655C56.6082 36.0655 57.3719 35.3018 57.3719 34.3685V27.188C57.372 25.4963 55.8963 24.2667 54.4293 24.3795Z" fill="#365E7D"/>
<path d="M38.5665 33.4255V26.5446C38.5665 23.0818 41.3736 20.2749 44.8361 20.2749H39.5142C36.0516 20.2749 33.2445 23.082 33.2445 26.5446V33.4255C33.2445 34.8835 34.4265 36.0653 35.8845 36.0653H41.2065C39.7485 36.0655 38.5665 34.8835 38.5665 33.4255Z" fill="#2B4D66"/>
</svg>
