<svg width="85" height="85" viewBox="0 0 85 85" fill="none" xmlns="http://www.w3.org/2000/svg">
<path fill-rule="evenodd" clip-rule="evenodd" d="M13.8001 11.1867C21.0745 3.91236 32.9766 3.91236 40.2492 11.1867L42.375 13.3126L44.5008 11.1867C51.7752 3.91236 63.6772 3.91236 70.9499 11.1867C78.2242 18.4611 78.2242 30.3632 70.9499 37.6358L42.375 66.2107L13.8001 37.6376C6.52574 30.3632 6.52574 18.4611 13.8001 11.1885V11.1867Z" fill="#F57C7C"/>
<path fill-rule="evenodd" clip-rule="evenodd" d="M20.1457 33.8327H36.3541C37.5777 32.2507 38.2999 30.2962 38.2999 28.1827C38.2999 22.907 33.7993 18.6289 28.2499 18.6289C22.7006 18.6289 18.2 22.9052 18.2 28.1827C18.2 30.2962 18.9221 32.2507 20.1457 33.8327Z" fill="#5E6875"/>
<path fill-rule="evenodd" clip-rule="evenodd" d="M28.2501 22.8242C28.1089 22.8242 27.9694 22.8277 27.8299 22.8348C26.7493 26.0023 23.6948 28.3241 20.0452 28.4919C19.767 29.307 19.625 30.1625 19.625 31.0238C19.625 35.5508 23.4865 39.2216 28.2501 39.2216C33.0138 39.2216 36.8752 35.5508 36.8752 31.0238C36.8752 26.4967 33.0138 22.826 28.2501 22.826V22.8242Z" fill="#FFE8DB"/>
<path fill-rule="evenodd" clip-rule="evenodd" d="M34.4297 39.2197H22.0703C17.7004 39.2197 14.125 42.6186 14.125 46.7713V76.8946H42.375V46.7713C42.375 42.6168 38.7996 39.2197 34.4297 39.2197Z" fill="#2CF2C4"/>
<path fill-rule="evenodd" clip-rule="evenodd" d="M48.3957 33.8327H64.6041C65.8277 32.2507 66.5499 30.2962 66.5499 28.1827C66.5499 22.907 62.0493 18.6289 56.4999 18.6289C50.9506 18.6289 46.45 22.9052 46.45 28.1827C46.45 30.2962 47.1721 32.2507 48.3957 33.8327Z" fill="#5E6875"/>
<path fill-rule="evenodd" clip-rule="evenodd" d="M56.5001 22.8242C56.3589 22.8242 56.2194 22.8277 56.0799 22.8348C54.9993 26.0023 51.9448 28.3241 48.2953 28.4919C48.017 29.307 47.875 30.1625 47.875 31.0238C47.875 35.5508 51.7365 39.2216 56.5001 39.2216C61.2638 39.2216 65.1252 35.5508 65.1252 31.0238C65.1252 26.4967 61.2638 22.826 56.5001 22.826V22.8242Z" fill="#FFE8DB"/>
<path fill-rule="evenodd" clip-rule="evenodd" d="M62.6797 39.2197H50.3203C45.9504 39.2197 42.375 42.6186 42.375 46.7713V76.7887H70.625V46.7713C70.625 42.6168 67.0496 39.2197 62.6797 39.2197Z" fill="#60B7FF"/>
<path fill-rule="evenodd" clip-rule="evenodd" d="M6.0207 60.9015H22.2291C23.4527 59.3195 24.1749 57.365 24.1749 55.2515C24.1749 49.9759 19.6743 45.6978 14.1249 45.6978C8.57556 45.6978 4.07498 49.9741 4.07498 55.2515C4.07498 57.3668 4.79712 59.3195 6.0207 60.9015Z" fill="#5E6875"/>
<path fill-rule="evenodd" clip-rule="evenodd" d="M14.1251 49.8931C13.9839 49.8931 13.8444 49.8966 13.7049 49.9019C12.6243 53.0694 9.5698 55.3912 5.92025 55.559C5.64196 56.3741 5.49998 57.2295 5.50003 58.0909C5.50003 62.6179 9.36145 66.2887 14.1251 66.2887C18.8888 66.2887 22.7502 62.6179 22.7502 58.0909C22.7502 53.5638 18.8888 49.8931 14.1251 49.8931Z" fill="#FFE8DB"/>
<path fill-rule="evenodd" clip-rule="evenodd" d="M20.3047 66.2886H7.94531C3.57539 66.2886 0 69.6874 0 73.8402V84.7499H28.25V73.8402C28.25 69.6856 24.6746 66.2886 20.3047 66.2886Z" fill="#FFABAB"/>
<path fill-rule="evenodd" clip-rule="evenodd" d="M34.2707 60.9015H50.4791C51.7027 59.3195 52.4249 57.365 52.4249 55.2515C52.4249 49.9759 47.9243 45.6978 42.3749 45.6978C36.8256 45.6978 32.325 49.9741 32.325 55.2515C32.325 57.3668 33.0471 59.3195 34.2707 60.9015Z" fill="#5E6875"/>
<path fill-rule="evenodd" clip-rule="evenodd" d="M42.3751 49.8931C42.2339 49.8931 42.0944 49.8966 41.9549 49.9019C40.8743 53.0694 37.8198 55.3912 34.1703 55.559C33.892 56.3741 33.75 57.2295 33.75 58.0909C33.75 62.6179 37.6115 66.2887 42.3751 66.2887C47.1388 66.2887 51.0002 62.6179 51.0002 58.0909C51.0002 53.5638 47.1388 49.8931 42.3751 49.8931Z" fill="#FFE8DB"/>
<path fill-rule="evenodd" clip-rule="evenodd" d="M48.5547 66.2886H36.1953C31.8254 66.2886 28.25 69.6874 28.25 73.8402V84.7499H56.5V73.8402C56.5 69.6856 52.9246 66.2886 48.5547 66.2886Z" fill="#FFE177"/>
<path fill-rule="evenodd" clip-rule="evenodd" d="M62.5207 60.9015H78.7291C79.9527 59.3195 80.6749 57.365 80.6749 55.2515C80.6749 49.9759 76.1743 45.6978 70.6249 45.6978C65.0756 45.6978 60.575 49.9741 60.575 55.2515C60.575 57.3668 61.2971 59.3195 62.5207 60.9015Z" fill="#5E6875"/>
<path fill-rule="evenodd" clip-rule="evenodd" d="M70.6251 49.8931C70.4839 49.8931 70.3444 49.8966 70.2049 49.9019C69.1243 53.0694 66.0698 55.3912 62.4203 55.559C62.142 56.3741 62 57.2295 62 58.0909C62 62.6179 65.8615 66.2887 70.6251 66.2887C75.3888 66.2887 79.2502 62.6179 79.2502 58.0909C79.2502 53.5638 75.3888 49.8931 70.6251 49.8931Z" fill="#FFE8DB"/>
<path fill-rule="evenodd" clip-rule="evenodd" d="M76.8047 66.2886H64.4453C60.0754 66.2886 56.5 69.6874 56.5 73.8402V84.7499H84.75V73.8402C84.75 69.6856 81.1746 66.2886 76.8047 66.2886Z" fill="#ABD641"/>
<path fill-rule="evenodd" clip-rule="evenodd" d="M42.3754 21.1487C52.0634 14.6988 50.6121 18.9787 50.6121 2.12405C42.3966 0.0282501 50.5256 2.10109 42.3754 0L34.137 2.12405C34.137 18.9787 32.6857 14.6988 42.3754 21.1487Z" fill="#F0D4C9"/>
<path fill-rule="evenodd" clip-rule="evenodd" d="M37.5882 7.7085H40.701V4.5957H44.0486V7.7085H47.1614V11.0561H44.0486V14.1689H40.701V11.0561H37.5882V7.7085Z" fill="#F57C7C"/>
</svg>
