<svg width="80" height="80" viewBox="0 0 80 80" fill="none" xmlns="http://www.w3.org/2000/svg">
<path d="M26.5644 69.3305L18.4374 77.4556L2.73962 61.7578L10.8069 53.689C11.2418 54.6245 11.7229 55.5379 12.2485 56.4257C13.4594 58.4685 21.972 66.8439 23.9466 67.9821C24.7984 68.4707 25.6719 68.9207 26.5644 69.3305Z" fill="#4F7693"/>
<path d="M72.2369 39.985C72.2369 57.7953 57.799 72.2333 39.9888 72.2333C22.1792 72.2333 7.74109 57.7953 7.74109 39.985C7.74109 22.1746 22.1791 7.7373 39.9888 7.7373C57.799 7.7373 72.2369 22.1748 72.2369 39.985Z" fill="#FECBAA"/>
<path d="M62.7925 17.1827C60.7259 15.1159 58.4479 13.3904 56.0291 12.0024C64.0199 24.4824 62.5636 41.2618 51.6541 52.1713C41.1273 62.6983 25.1335 64.4236 12.8121 57.3515C14.0701 59.3162 15.537 61.1389 17.1872 62.788C29.7807 75.3814 50.1989 75.3814 62.7925 62.788C75.3861 50.1946 75.3861 29.7761 62.7925 17.1827Z" fill="#FFAE85"/>
<path d="M3.496 55.3165L9.21934 49.5938C9.6509 50.9849 11.7206 55.5313 12.2486 56.4251L9.19184 59.4817C7.87589 60.7975 7.87589 62.9308 9.19184 64.2467L16.0541 71.109C17.37 72.4249 19.5032 72.4249 20.8191 71.109L29.1614 62.7665C30.5227 61.4056 32.7302 61.4056 34.0915 62.7665C35.453 64.1283 35.453 66.336 34.0915 67.6971L24.9842 76.8048C20.9266 80.8619 14.4691 81.0559 10.18 77.384C9.96531 77.1983 9.75727 77.0052 9.55622 76.8048L3.49678 70.7446C3.27462 70.5231 3.06258 70.2917 2.8613 70.0511C-0.753735 65.7658 -0.540139 59.3534 3.49615 55.3166L3.496 55.3165Z" fill="#FF84A7"/>
<path d="M77.2678 18.2435L69.2013 26.3106C68.765 25.3756 68.2837 24.4622 67.7591 23.5737C66.5245 21.4921 65.0593 19.5562 63.3912 17.8027C63.1943 17.5929 62.9941 17.3862 62.7906 17.1827C62.7099 17.0998 62.6275 17.0186 62.5434 16.9391C62.2553 16.6571 61.9621 16.3804 61.6639 16.1091C59.9487 14.5479 58.0702 13.1762 56.0609 12.0178C55.2089 11.529 54.3349 11.0796 53.4418 10.6708L61.5687 2.54443L77.2678 18.2435Z" fill="#4F7693"/>
<path d="M76.5096 24.6829L70.7869 30.4062C70.3524 29.0061 69.8222 27.6375 69.2 26.3101C68.7643 25.3752 68.283 24.4622 67.7578 23.5744L70.8144 20.5177C72.1297 19.2024 72.1297 17.0686 70.8144 15.7526L63.9521 8.89099C62.6362 7.57504 60.503 7.57504 59.1871 8.89099L50.8448 17.2328C49.4829 18.5945 47.276 18.5945 45.9141 17.2328C44.5532 15.8717 44.5532 13.664 45.9141 12.3023L55.022 3.19515C59.079 -0.862545 65.5372 -1.05645 69.8256 2.61593C70.0408 2.80129 70.2491 2.9945 70.45 3.19515L76.5096 9.25475C76.7313 9.47666 76.9432 9.70802 77.1449 9.94819C80.7595 14.2335 80.5465 20.6466 76.5096 24.6827V24.6829Z" fill="#FF84A7"/>
<path d="M45.9151 16.3088L55.023 7.20088C59.0806 3.14334 65.5381 2.9499 69.8266 6.62181C70.0416 6.80734 70.2499 7.00054 70.451 7.20104L76.5106 13.2613C76.7325 13.4827 76.9445 13.7138 77.1459 13.9541C78.3591 15.3915 79.1776 17.1199 79.5209 18.9693C80.1014 15.8436 79.3109 12.5148 77.1459 9.94825C76.9444 9.70793 76.7324 9.47656 76.5106 9.25481L70.451 3.19537C70.25 2.99466 70.0418 2.8014 69.8266 2.61599C65.5381 -1.05655 59.0806 -0.862483 55.023 3.19521L45.9151 12.3023C44.6987 13.5195 44.5724 15.4102 45.5312 16.7708C45.6455 16.606 45.774 16.4514 45.9151 16.3088ZM71.1369 20.1387C71.0393 20.2728 70.9318 20.3995 70.8154 20.5177L67.7586 23.5745C68.2615 24.4256 68.7243 25.2998 69.1453 26.1942L70.8154 24.5242C72.0116 23.3279 72.116 21.4577 71.1369 20.1388V20.1387Z" fill="#EF6085"/>
<path d="M64.8654 16.3289L63.4024 17.793C63.3988 17.7967 63.3946 17.7998 63.3908 17.8028C63.1939 17.593 62.9937 17.3863 62.7902 17.1828C62.7095 17.0999 62.627 17.0187 62.543 16.9392C62.2549 16.6572 61.9617 16.3805 61.6635 16.1092C61.6714 16.0993 61.6794 16.0901 61.6891 16.0804L63.1535 14.6175C63.2659 14.505 63.3993 14.4158 63.5462 14.3549C63.6931 14.294 63.8505 14.2627 64.0095 14.2627C64.1685 14.2627 64.3259 14.294 64.4728 14.3549C64.6197 14.4158 64.7531 14.505 64.8655 14.6175C65.3385 15.0904 65.3383 15.857 64.8654 16.3289Z" fill="#2F5066"/>
<path d="M68.5341 13.4728L66.2955 11.2341C64.8904 9.82904 64.8904 7.55058 66.2955 6.14556L70.6877 1.75396C72.0927 0.348942 74.3705 0.348942 75.7756 1.75396L78.0143 3.99226C79.4193 5.39727 79.4193 7.67574 78.0143 9.08075L73.6221 13.4724C72.2172 14.878 69.9392 14.878 68.5342 13.4728H68.5341Z" fill="#FECBAA"/>
<path d="M70.9803 11.0259L68.7415 8.78778C67.3365 7.38276 67.3365 5.1043 68.7415 3.69929L70.6873 1.75396C72.0925 0.348942 74.3702 0.348942 75.7753 1.75396L78.0141 3.99289C79.4191 5.3979 79.4191 7.67574 78.0141 9.08075L76.0683 11.0261C74.6633 12.4311 72.3854 12.4309 70.9803 11.0259Z" fill="#C97F4C"/>
<path d="M8.51742 63.2737L8.21397 63.5776C6.89802 64.8936 6.89802 67.0269 8.21397 68.3428L15.0762 75.205C16.3916 76.5203 18.5255 76.5203 19.8413 75.205L28.1831 66.8627C29.5448 65.5009 31.7519 65.5009 33.1136 66.8627C33.4236 67.1733 33.6719 67.5399 33.8453 67.943L34.0914 67.6971C35.453 66.336 35.453 64.1283 34.0914 62.7665C32.7303 61.4056 30.5226 61.4056 29.1609 62.7665L20.8191 71.1088C19.5032 72.4249 17.37 72.4249 16.0541 71.1088L9.1918 64.2467C8.91111 63.9649 8.68276 63.6355 8.51742 63.2737ZM2.51813 59.4126L5.04503 56.8863C6.49818 55.4326 8.93976 55.8835 9.80883 57.7457C9.92651 57.9991 10.0478 58.2508 10.1726 58.5007L12.2485 56.4255C11.7233 55.5377 11.2417 54.6247 10.8056 53.6899C10.1836 52.3625 9.65358 50.9939 9.2193 49.5938L3.49596 55.3165C1.47687 57.3357 0.414205 59.9492 0.309204 62.5939C0.849298 61.4099 1.59746 60.3324 2.51813 59.4126Z" fill="#EF6085"/>
<path d="M18.3418 63.8904C18.334 63.9002 18.3262 63.9099 18.3157 63.9198L16.8526 65.3828C16.7403 65.4956 16.6068 65.5851 16.4597 65.6461C16.3126 65.7071 16.1549 65.7384 15.9957 65.7381C15.8367 65.7381 15.6792 65.7068 15.5324 65.6458C15.3855 65.5848 15.2521 65.4954 15.1399 65.3828C15.0275 65.2704 14.9382 65.137 14.8774 64.9902C14.8165 64.8434 14.7852 64.686 14.7852 64.527C14.7852 64.3681 14.8165 64.2107 14.8774 64.0639C14.9382 63.917 15.0275 63.7836 15.1399 63.6713L16.6031 62.2065C16.6062 62.2033 16.6109 62.2004 16.614 62.1968C16.8108 62.4068 17.011 62.6135 17.2146 62.8168C17.297 62.8993 17.3793 62.9816 17.4618 63.061C17.75 63.343 18.0433 63.6195 18.3418 63.8904Z" fill="#2F5066"/>
<path d="M11.4723 66.5269L13.7111 68.7658C15.1161 70.1708 15.1161 72.4487 13.7111 73.8537L9.31888 78.2459C7.91386 79.6509 5.6354 79.6509 4.23101 78.2459L1.99224 76.007C0.587223 74.602 0.587223 72.3242 1.99224 70.9191L6.38369 66.5269C7.78886 65.1219 10.0673 65.1219 11.4723 66.5269Z" fill="#FECBAA"/>
<path d="M9.05528 68.9443L11.2934 71.1825C12.6984 72.5877 12.6984 74.8661 11.2934 76.2711L9.31903 78.2462C7.91386 79.6513 5.6354 79.6513 4.23039 78.2462L1.99224 76.0074C0.587223 74.6024 0.587223 72.3239 1.99224 70.9195L3.96679 68.9445C5.37243 67.5393 7.65027 67.5393 9.05528 68.9445V68.9443Z" fill="#C97F4C"/>
<path d="M77.455 61.5625L61.7575 77.2622L53.6904 69.1949C54.6249 68.7579 55.5379 68.2762 56.4261 67.7515C58.5086 66.5182 60.4449 65.0534 62.1982 63.385C62.4063 63.1897 62.6133 62.9883 62.8165 62.7844C62.899 62.7027 62.9813 62.6214 63.0618 62.5378C63.3438 62.25 63.62 61.9565 63.8902 61.6577C65.452 59.9429 66.8239 58.0643 67.982 56.0546C68.4706 55.2023 68.9205 54.3284 69.3303 53.4355L77.455 61.5625Z" fill="#4F7693"/>
<path d="M55.3171 76.5039L49.5938 70.7805C50.9939 70.3463 52.3625 69.8163 53.6899 69.1943C54.6247 68.7583 55.5376 68.277 56.4255 67.7521L59.4823 70.808C60.7981 72.124 62.9314 72.124 64.2473 70.808L71.1096 63.9464C72.4249 62.6304 72.4249 60.4967 71.1096 59.1807L62.7672 50.8389C61.4062 49.4772 61.4062 47.2695 62.7672 45.9084C64.1289 44.5468 66.336 44.5468 67.6977 45.9084L76.8048 55.0157C80.8625 59.0732 81.0564 65.5308 77.384 69.8199C77.1988 70.035 77.0056 70.243 76.8048 70.4436L70.7452 76.5039C70.5235 76.7257 70.2921 76.9376 70.0518 77.1392C65.7664 80.7538 59.354 80.5402 55.3172 76.5039H55.3171Z" fill="#83D9FF"/>
<path d="M62.7672 50.098C64.1289 48.7362 66.336 48.7362 67.6977 50.098L76.8048 59.2051C78.3426 60.7389 79.3849 62.6988 79.7967 64.8314C80.4694 61.3876 79.472 57.6829 76.8048 55.0157L67.6977 45.9084C66.336 44.5468 64.1289 44.5468 62.7672 45.9084C61.5226 47.1529 61.4195 49.1025 62.4504 50.4684C62.5472 50.3377 62.653 50.2139 62.7672 50.098ZM52.775 73.7926C55.0413 72.7502 57.7184 73.2335 59.4823 74.9974C60.7981 76.3134 62.9314 76.3134 64.2473 74.9974L71.1096 68.1352C72.3334 66.9114 72.417 64.9809 71.3641 63.6583C71.2845 63.7589 71.1995 63.8551 71.1094 63.9464L64.2473 70.808C62.9314 72.124 60.7981 72.124 59.4823 70.808L56.4255 67.7519C55.5376 68.2768 54.6247 68.7581 53.6899 69.1941C52.3625 69.8162 50.9939 70.3463 49.5938 70.7805L52.6585 73.8451C52.6847 73.8335 52.7244 73.8159 52.775 73.7926Z" fill="#5FC9ED"/>
<path d="M65.3838 64.8598C65.1463 65.0952 64.8363 65.2149 64.5262 65.2149C64.2162 65.2149 63.9061 65.0952 63.6705 64.8598L62.2075 63.3966C62.2043 63.3935 62.2012 63.3888 62.1976 63.3851C62.4058 63.1898 62.6128 62.9884 62.8159 62.7844C62.8984 62.7027 62.9808 62.6215 63.062 62.5379C63.3437 62.2499 63.6198 61.9564 63.8901 61.6577C63.9 61.6657 63.9092 61.6737 63.9189 61.6833L65.3838 63.1465C65.855 63.6195 65.855 64.3866 65.3838 64.8598Z" fill="#2F5066"/>
<path d="M66.5269 68.5279L68.7652 66.2891C70.1702 64.8841 72.4487 64.8841 73.8537 66.2891L78.2453 70.6813C79.6503 72.0864 79.6503 74.3642 78.2453 75.7692L76.007 78.008C74.602 79.413 72.3235 79.413 70.9185 78.008L66.5269 73.6158C65.1219 72.2107 65.1219 69.9329 66.5269 68.5279Z" fill="#FECBAA"/>
<path d="M68.973 70.9732L71.2111 68.7349C72.6161 67.3299 74.8946 67.3299 76.2996 68.7349L78.2455 70.6807C79.6506 72.0859 79.6506 74.3643 78.2455 75.7694L76.0072 78.0075C74.6022 79.4125 72.3238 79.4125 70.9188 78.0075L68.973 76.0617C67.5679 74.6567 67.5679 72.3782 68.973 70.9732Z" fill="#C97F4C"/>
<path d="M26.3098 10.7986C25.3752 11.235 24.4624 11.7168 23.5747 12.2422C21.4921 13.475 19.5557 14.9396 17.8025 16.608C17.5922 16.8045 17.3855 17.0047 17.1825 17.2086C17.1 17.291 17.0195 17.3716 16.9383 17.4558C16.6568 17.7445 16.3807 18.0383 16.1101 18.3371C14.5482 20.0515 13.1759 21.9295 12.017 23.9384C11.5279 24.7903 11.0785 25.6642 10.6699 26.5575L2.54358 18.431L18.2427 2.73145L26.3098 10.7986Z" fill="#4F7693"/>
<path d="M24.6829 3.48957L30.4062 9.21291C29.0061 9.64709 27.6375 10.1771 26.3101 10.7992C25.3753 11.2352 24.4623 11.7165 23.5744 12.2414L20.5177 9.18557C19.2019 7.86962 17.0686 7.86962 15.7526 9.18557L8.89037 16.0472C7.57504 17.3632 7.57504 19.4969 8.89037 20.8129L17.2328 29.1547C18.5945 30.5164 18.5945 32.7241 17.2328 34.0852C15.8717 35.4468 13.664 35.4468 12.3023 34.0852L3.19515 24.9779C-0.862545 20.9204 -1.05645 14.4627 2.61593 10.1737C2.80031 9.96011 2.9925 9.75198 3.19515 9.54995L9.25475 3.48973C9.47666 3.26809 9.70802 3.05612 9.94819 2.85441C14.2335 -0.760159 20.646 -0.547188 24.6827 3.48973L24.6829 3.48957Z" fill="#83D9FF"/>
<path d="M8.89096 20.8128C8.75675 20.6766 8.63408 20.5294 8.52423 20.3728C7.59344 21.6882 7.71298 23.5191 8.89096 24.6971L17.2334 33.0395C17.393 33.1996 17.5367 33.3748 17.6625 33.5627C18.5743 32.207 18.4321 30.3532 17.2334 29.1546L8.89096 20.8128ZM2.61652 14.0587C2.80171 13.8433 2.99492 13.635 3.19574 13.4342L9.25534 7.37472C9.47709 7.15287 9.70846 6.94084 9.94878 6.73925C14.2341 3.12405 20.6472 3.33765 24.6833 7.37457L27.5576 10.248C28.4903 9.85786 29.4411 9.51247 30.4068 9.21302L24.6833 3.48953C20.6467 -0.547233 14.2343 -0.760048 9.94894 2.85436C9.70876 3.05607 9.4774 3.26804 9.25549 3.48968L3.19605 9.54928C2.99518 9.75008 2.80192 9.95836 2.61667 10.1737C0.422275 12.736 -0.390702 16.0722 0.175085 19.2089C0.50837 17.3558 1.3201 15.5717 2.61652 14.0587Z" fill="#5FC9ED"/>
<path d="M17.8026 16.608C17.5922 16.8044 17.3854 17.0047 17.1823 17.2086C17.1002 17.2901 17.0191 17.3725 16.9389 17.4558C16.6574 17.7444 16.3813 18.0382 16.1107 18.3371C16.0996 18.3291 16.0893 18.3199 16.0801 18.3097L14.6171 16.8466C14.39 16.6195 14.2625 16.3115 14.2625 15.9903C14.2625 15.6692 14.39 15.3612 14.6171 15.1341C14.7295 15.0214 14.8631 14.9321 15.0101 14.8711C15.1571 14.8102 15.3146 14.7788 15.4738 14.7788C15.6329 14.7788 15.7905 14.8102 15.9375 14.8711C16.0845 14.9321 16.218 15.0214 16.3304 15.1341L17.7934 16.597C17.7965 16.6002 17.7995 16.6049 17.8025 16.608H17.8026Z" fill="#2F5066"/>
<path d="M13.472 11.4659L11.2331 13.7045C9.82805 15.1095 7.55021 15.1095 6.1452 13.7045L1.75359 9.31302C0.348575 7.908 0.348575 5.62954 1.75359 4.22453L3.99189 1.98638C5.39691 0.581364 7.67537 0.581364 9.08038 1.98638L13.472 6.37783C14.877 7.783 14.877 10.0607 13.472 11.4659Z" fill="#FECBAA"/>
<path d="M10.6595 8.65332L8.42053 10.8919C7.01552 12.297 4.73768 12.297 3.33267 10.8919L1.75359 9.31302C0.348575 7.908 0.348575 5.62954 1.75359 4.22453L3.99189 1.98638C5.39691 0.581363 7.67537 0.581363 9.08038 1.98638L10.6595 3.5653C12.0645 4.97047 12.0645 7.24815 10.6595 8.65332Z" fill="#C97F4C"/>
<path d="M32.3531 53.9782L26.429 59.2311C26.2187 59.4173 25.9429 59.5123 25.6625 59.4953C25.3821 59.4782 25.1199 59.3505 24.9337 59.1401L22.5924 56.4992L20.9858 54.687L18.5188 51.9032C18.4266 51.7992 18.3558 51.6781 18.3105 51.5467C18.2651 51.4154 18.2461 51.2764 18.2545 51.1377C18.2629 50.999 18.2985 50.8633 18.3594 50.7383C18.4202 50.6134 18.5051 50.5017 18.6091 50.4096L24.5351 45.1575C24.6391 45.0653 24.7602 44.9945 24.8916 44.9492C25.0229 44.9038 25.1619 44.8848 25.3006 44.8932C25.4393 44.9016 25.575 44.9372 25.6999 44.9981C25.8249 45.0589 25.9366 45.1438 26.0287 45.2478L28.4475 47.9749L30.0541 49.7883L32.4436 52.483C32.6298 52.6934 32.7248 52.969 32.7078 53.2494C32.6909 53.5298 32.5633 53.792 32.3531 53.9784V53.9782ZM61.8481 30.012L53.3488 37.5463C53.102 37.765 52.7785 37.8767 52.4493 37.8569C52.1201 37.8371 51.8123 37.6874 51.5935 37.4407L45.4247 30.4808C45.3163 30.3586 45.2331 30.2163 45.1797 30.0619C45.1264 29.9076 45.104 29.7443 45.1137 29.5812C45.1235 29.4182 45.1654 29.2588 45.2368 29.1119C45.3082 28.9651 45.4079 28.8337 45.5301 28.7254L54.0295 21.1918C54.1516 21.0835 54.2939 21.0003 54.4482 20.947C54.6025 20.8937 54.7657 20.8713 54.9287 20.8812C55.0916 20.891 55.251 20.9328 55.3978 21.0042C55.5446 21.0756 55.6759 21.1752 55.7842 21.2974L61.9538 28.2573C62.0621 28.3794 62.1453 28.5217 62.1987 28.676C62.252 28.8303 62.2744 28.9936 62.2646 29.1565C62.2548 29.3195 62.213 29.4789 62.1415 29.6257C62.0701 29.7725 61.9704 29.9038 61.8481 30.012Z" fill="white"/>
<path d="M30.0552 49.7881L22.6002 56.4939C22.5984 56.4952 22.5952 56.497 22.594 56.4989L20.9869 54.6867L28.4408 47.9813C28.4439 47.9795 28.4455 47.9765 28.4486 47.9746L30.0552 49.7881Z" fill="#DAE2E8"/>
</svg>
