<svg width="96" height="94" viewBox="0 0 96 94" fill="none" xmlns="http://www.w3.org/2000/svg">
<path d="M7.78491 26.0093H52.9707V37.294H7.78491V26.0093Z" fill="#F8A079"/>
<path d="M10.7972 26.0093H52.9707V37.294H10.7972V26.0093Z" fill="#F79063"/>
<path d="M60.5017 79.8238C60.5015 77.2976 59.7058 74.8355 58.2271 72.7861C56.7484 70.7368 54.6618 69.2041 52.2628 68.4052L37.9087 63.625H22.8468L8.49279 68.4052C6.09374 69.2041 4.00711 70.7368 2.52845 72.7861C1.04978 74.8355 0.254035 77.2976 0.253906 79.8238V93.7176H60.5017V79.8238Z" fill="#DEF7F9"/>
<path d="M33.3902 80.1762H27.3654L24.353 71.1484H36.4026L33.3902 80.1762Z" fill="#50C2F1"/>
<path d="M52.2628 68.4055L42.4274 65.1299V93.7178H60.5017V79.8241C60.5016 77.2979 59.7058 74.8357 58.2271 72.7864C56.7485 70.737 54.6619 69.2044 52.2628 68.4055Z" fill="#576B84"/>
<path d="M8.49279 68.4055L18.3282 65.1299V93.7178H0.253906V79.8241C0.254035 77.2979 1.04978 74.8357 2.52845 72.7864C4.00711 70.737 6.09374 69.2044 8.49279 68.4055Z" fill="#6C809A"/>
<path d="M3.26624 79.8237V93.7175H18.3282V68.3013L9.44163 71.2594C7.64225 71.858 6.07728 73.0076 4.9688 74.5449C3.86032 76.0822 3.26462 77.9291 3.26624 79.8237Z" fill="#576B84"/>
<path d="M7.78491 93.718V84.6902C7.78491 84.2911 7.9436 83.9084 8.22607 83.6262C8.50853 83.3441 8.89164 83.1855 9.29111 83.1855C9.69057 83.1855 10.0737 83.3441 10.3561 83.6262C10.6386 83.9084 10.7973 84.2911 10.7973 84.6902V93.718H7.78491Z" fill="#4A5C77"/>
<path d="M49.2052 33.5327H45.4397V41.0559H49.2052C50.2039 41.0559 51.1616 40.6596 51.8678 39.9541C52.5739 39.2487 52.9707 38.2919 52.9707 37.2943C52.9707 36.2967 52.5739 35.3399 51.8678 34.6345C51.1616 33.929 50.2039 33.5327 49.2052 33.5327Z" fill="#FFC3B0"/>
<path d="M11.5504 33.5327H15.3159V41.0559H11.5504C10.5517 41.0559 9.59396 40.6596 8.8878 39.9541C8.18163 39.2487 7.78491 38.2919 7.78491 37.2943C7.78491 36.2967 8.18163 35.3399 8.8878 34.6345C9.59396 33.929 10.5517 33.5327 11.5504 33.5327Z" fill="#FFC3B0"/>
<path d="M30.3778 71.1483C28.558 70.6935 26.8961 69.7533 25.5697 68.4283C24.2433 67.1032 23.3021 65.443 22.8468 63.6252V50.0835H37.9087V63.6252C37.4534 65.443 36.5123 67.1032 35.1859 68.4283C33.8594 69.7533 32.1975 70.6935 30.3778 71.1483Z" fill="#FFD8C5"/>
<path d="M24.2506 57.4982C21.0811 55.7038 18.4447 53.1016 16.6105 49.9571C14.7763 46.8127 13.8098 43.2385 13.8097 39.5991V26.0093H46.946V39.5991C46.9469 43.2395 45.981 46.815 44.1467 49.9606C42.3124 53.1062 39.6755 55.7093 36.505 57.5042C34.6358 58.5595 32.5249 59.1131 30.3778 59.1111C28.2302 59.1113 26.1192 58.5556 24.2506 57.4982Z" fill="#FFE3D6"/>
<path d="M27.263 57.4982C28.6884 58.3023 30.2588 58.8172 31.884 59.0133C33.5092 58.8172 35.0796 58.3023 36.505 57.4982C39.6745 55.7038 42.3109 53.1016 44.1451 49.9571C45.9793 46.8127 46.9458 43.2385 46.9459 39.5991V26.0093H16.822V39.5991C16.8221 43.2385 17.7886 46.8127 19.6228 49.9571C21.4571 53.1016 24.0934 55.7038 27.263 57.4982Z" fill="#FFD8C5"/>
<path d="M46.4466 44.0649H45.7537C41.5855 44.0651 37.4744 43.0956 33.7463 41.2332C32.7007 40.7109 31.5476 40.439 30.3785 40.439C29.2094 40.439 28.0563 40.7109 27.0107 41.2332C23.2826 43.0956 19.1715 44.0651 15.0033 44.0649H14.3104C14.9346 46.8741 16.1418 49.5212 17.8542 51.8351C19.5665 54.149 21.7459 56.0783 24.2513 57.4982C26.12 58.5554 28.2309 59.1111 30.3785 59.1111C32.5261 59.1111 34.637 58.5554 36.5057 57.4982C39.0112 56.0783 41.1905 54.149 42.9028 51.8351C44.6152 49.5212 45.8224 46.8741 46.4466 44.0649Z" fill="#EEFDFF"/>
<path d="M27.01 41.2332C23.9736 42.746 20.6775 43.6696 17.2965 43.955C17.9095 46.786 19.1141 49.4558 20.8317 51.7894C22.5492 54.1231 24.7408 56.0679 27.263 57.4967C28.6883 58.3014 30.2587 58.8168 31.884 59.0134C33.5092 58.8173 35.0796 58.3024 36.505 57.4982C39.0105 56.0783 41.1898 54.1491 42.9021 51.8351C44.6145 49.5212 45.8217 46.8741 46.4459 44.0649H45.753C41.5848 44.0651 37.4737 43.0956 33.7457 41.2332C32.7 40.7109 31.5469 40.439 30.3778 40.439C29.2087 40.439 28.0556 40.7109 27.01 41.2332Z" fill="#DEF7F9"/>
<path d="M39.4149 38.0466C39.0154 38.0466 38.6323 37.8881 38.3498 37.6059C38.0674 37.3237 37.9087 36.941 37.9087 36.542V35.0373C37.9087 34.6383 38.0674 34.2556 38.3498 33.9734C38.6323 33.6912 39.0154 33.5327 39.4149 33.5327C39.8144 33.5327 40.1975 33.6912 40.4799 33.9734C40.7624 34.2556 40.9211 34.6383 40.9211 35.0373V36.542C40.9211 36.941 40.7624 37.3237 40.4799 37.6059C40.1975 37.8881 39.8144 38.0466 39.4149 38.0466Z" fill="#576B84"/>
<path d="M21.3387 38.0466C20.9392 38.0466 20.5561 37.8881 20.2737 37.6059C19.9912 37.3237 19.8325 36.941 19.8325 36.542V35.0373C19.8325 34.6383 19.9912 34.2556 20.2737 33.9734C20.5561 33.6912 20.9392 33.5327 21.3387 33.5327C21.7382 33.5327 22.1213 33.6912 22.4038 33.9734C22.6862 34.2556 22.8449 34.6383 22.8449 35.0373V36.542C22.8449 36.941 22.6862 37.3237 22.4038 37.6059C22.1213 37.8881 21.7382 38.0466 21.3387 38.0466Z" fill="#576B84"/>
<path d="M37.9106 75.662L30.3796 71.1481L37.9106 60.6157L42.6431 63.4519C42.9999 63.6655 43.3087 63.9505 43.5498 64.2891C43.791 64.6278 43.9593 65.0126 44.0442 65.4194C44.1291 65.8262 44.1287 66.2462 44.0431 66.6529C43.9575 67.0595 43.7885 67.4441 43.5468 67.7823L37.9106 75.662Z" fill="#C3F3F4"/>
<path d="M22.8478 75.662L30.3787 71.1481L22.8478 60.6157L18.1153 63.4519C17.7584 63.6655 17.4497 63.9505 17.2085 64.2891C16.9674 64.6278 16.7991 65.0126 16.7142 65.4194C16.6293 65.8262 16.6296 66.2462 16.7152 66.6529C16.8008 67.0595 16.9698 67.4441 17.2116 67.7823L22.8478 75.662Z" fill="#C3F3F4"/>
<path d="M7.78491 7.95361H52.9707V22.9999H7.78491V7.95361Z" fill="#6C809A"/>
<path d="M10.7972 7.95361H52.9707V22.9999H10.7972V7.95361Z" fill="#576B84"/>
<path d="M7.78491 12.9369L30.3778 18.5793L52.9707 12.9369V7.95361H7.78491V12.9369Z" fill="#4A5C77"/>
<path d="M7.78491 7.95361V12.9369L10.7973 13.6893V7.95361H7.78491Z" fill="#576B84"/>
<path d="M7.78491 23H52.9707V29.0185H7.78491V23Z" fill="#FFE783"/>
<path d="M10.7972 23H52.9707V29.0185H10.7972V23Z" fill="#FFD64C"/>
<path d="M52.2647 68.4055L51.4664 68.1392V93.7179H60.5035V79.8241C60.5034 77.2979 59.7077 74.8358 58.229 72.7864C56.7503 70.7371 54.6637 69.2044 52.2647 68.4055Z" fill="#FFD8C5"/>
<path d="M56.0706 67.1674L55.7694 66.1472C55.6977 65.9086 55.5678 65.6916 55.3914 65.5155C55.215 65.3394 54.9976 65.2098 54.7588 65.1384C54.5199 65.067 54.267 65.0559 54.0227 65.1062C53.7785 65.1565 53.5506 65.2665 53.3595 65.4265C51.258 67.2005 49.7713 69.5924 49.1116 72.2607C48.4519 74.929 48.6529 77.7373 49.6859 80.2847L51.4647 84.6903L52.8112 77.0588C53.2889 74.3541 54.82 71.9487 57.0692 70.3692C57.2642 70.2323 57.4239 70.051 57.5351 69.8404C57.6464 69.6298 57.706 69.3959 57.7091 69.1578C57.7122 68.9197 57.6587 68.6843 57.5529 68.4708C57.4472 68.2574 57.2922 68.0721 57.1009 67.9302L56.0706 67.1674Z" fill="#4A5C77"/>
<path d="M0.253906 7.95381L30.3778 15.477L60.5017 7.95381L30.3778 0.430664L0.253906 7.95381Z" fill="#576B84"/>
<path d="M30.3778 0.430664L0.253906 7.95381V26.0094C0.253906 26.4084 0.412594 26.7911 0.69506 27.0733C0.977526 27.3555 1.36063 27.514 1.7601 27.514C2.15957 27.514 2.54267 27.3555 2.82514 27.0733C3.10761 26.7911 3.26629 26.4084 3.26629 26.0094V8.70613L6.27868 9.45844L30.3778 3.43992L54.4769 9.45844L60.5017 7.95381L30.3778 0.430664Z" fill="#6C809A"/>
<path d="M33.3898 80.1763H27.3651L25.4281 93.7179H35.3268L33.3898 80.1763Z" fill="#6CCEFF"/>
<path d="M56.477 82.9054C56.1946 82.6232 56.036 82.2406 56.036 81.8416C56.036 81.4427 56.1946 81.06 56.477 80.7779L66.0624 71.2024C66.2023 71.0626 66.3683 70.9517 66.551 70.876C66.7338 70.8003 66.9297 70.7613 67.1275 70.7612C67.3254 70.7612 67.5213 70.8 67.7041 70.8756C67.8869 70.9511 68.053 71.0619 68.1929 71.2016C68.3329 71.3413 68.4439 71.5072 68.5197 71.6898C68.5954 71.8723 68.6345 72.068 68.6346 72.2656C68.6346 72.4633 68.5957 72.659 68.5201 72.8416C68.4444 73.0242 68.3335 73.1901 68.1937 73.3299L58.6083 82.9054C58.4684 83.0453 58.3023 83.1563 58.1194 83.232C57.9366 83.3077 57.7406 83.3467 57.5426 83.3467C57.3447 83.3467 57.1487 83.3077 56.9659 83.232C56.783 83.1563 56.6169 83.0453 56.477 82.9054Z" fill="#C3F3F4"/>
<path d="M71.7658 71.8885L67.5063 67.6319C66.9416 67.0676 66.6243 66.3023 66.6243 65.5044C66.6243 64.7064 66.9416 63.9411 67.5063 63.3768L73.8956 56.9927L82.4161 65.5044L76.0269 71.8885C75.7471 72.1681 75.415 72.3898 75.0494 72.5412C74.6839 72.6925 74.292 72.7703 73.8963 72.7703C73.5006 72.7703 73.1088 72.6925 72.7433 72.5412C72.3777 72.3898 72.0456 72.1681 71.7658 71.8885Z" fill="#97DFFF"/>
<path d="M76.0253 71.8884L82.4146 65.5043L76.0253 59.1201L69.6346 65.5043C69.3547 65.7837 69.1327 66.1155 68.9813 66.4807C68.8298 66.8459 68.7518 67.2373 68.7518 67.6326C68.7518 68.0278 68.8298 68.4193 68.9813 68.7844C69.1327 69.1496 69.3547 69.4814 69.6346 69.7609L71.7643 71.8884C72.0441 72.168 72.3762 72.3897 72.7418 72.541C73.1073 72.6923 73.4991 72.7702 73.8948 72.7702C74.2905 72.7702 74.6824 72.6923 75.0479 72.541C75.4135 72.3897 75.7456 72.168 76.0253 71.8884Z" fill="#6CCEFF"/>
<path d="M73.8823 56.9951L80.2715 50.6125L88.7906 59.1227L82.4013 65.5053L73.8823 56.9951Z" fill="#EEFDFF"/>
<path d="M76.0117 59.125L82.4019 52.7414L88.7921 59.125L82.4019 65.5086L76.0117 59.125Z" fill="#DEF7F9"/>
<path d="M77.0792 60.187L88.7929 48.4855L90.9226 50.6131L79.209 62.3146L77.0792 60.187Z" fill="#C3F3F4"/>
<path d="M89.5064 61.9473L77.4569 49.9103C77.1825 49.6265 77.0307 49.2464 77.0341 48.8519C77.0375 48.4574 77.1959 48.08 77.4752 47.801C77.7545 47.5221 78.1322 47.3638 78.5272 47.3604C78.9221 47.357 79.3026 47.5086 79.5866 47.7827L91.6362 59.8198C91.9105 60.1035 92.0624 60.4836 92.0589 60.8781C92.0555 61.2726 91.8971 61.65 91.6178 61.929C91.3386 62.2079 90.9608 62.3662 90.5659 62.3696C90.171 62.373 89.7905 62.2214 89.5064 61.9473Z" fill="#6CCEFF"/>
<path d="M65.3619 69.7598L67.492 67.632L71.7521 71.8877L69.622 74.0156C69.0571 74.5799 68.2909 74.897 67.492 74.897C66.693 74.897 65.9268 74.5799 65.3619 74.0156C64.797 73.4512 64.4796 72.6858 64.4796 71.8877C64.4796 71.0896 64.797 70.3242 65.3619 69.7598Z" fill="#DEF7F9"/>
<path d="M92.5733 54.3699L85.0424 46.8468C84.768 46.563 84.6162 46.1829 84.6196 45.7884C84.6231 45.3939 84.7815 45.0165 85.0607 44.7376C85.34 44.4586 85.7178 44.3004 86.1127 44.2969C86.5076 44.2935 86.8881 44.4452 87.1721 44.7192L94.7031 52.2424C94.9775 52.5262 95.1293 52.9062 95.1259 53.3007C95.1224 53.6953 94.964 54.0726 94.6848 54.3516C94.4055 54.6306 94.0277 54.7888 93.6328 54.7922C93.2379 54.7957 92.8574 54.644 92.5733 54.3699Z" fill="#6CCEFF"/>
</svg>
