<svg width="367" height="354" viewBox="0 0 367 354" fill="none" xmlns="http://www.w3.org/2000/svg">
<g clip-path="url(#clip0_1_10669)">
<path d="M198.743 0.944336H165.344L165.362 1.55915C162.966 2.23726 159.024 3.53922 155.064 5.72723C149.504 8.79227 145.652 12.6077 143.663 17.0109C141.674 12.6077 137.822 8.79227 132.262 5.72723C128.293 3.53922 124.36 2.23726 121.964 1.55915L121.982 0.944336H88.6009C88.6009 0.944336 84.9844 1.80327 84.9844 5.42887V9.16296H85.8704C86.874 12.0743 92.3441 13.6385 97.5067 13.6385C102.95 13.6385 108.718 11.9025 109.251 8.69281L121.774 6.29684L121.837 4.84118C127.985 6.69466 142.09 12.2822 142.09 24.4068V68.6373H138.392V352.853H148.97V68.6192H145.272V24.3887C145.272 12.2732 159.377 6.67658 165.525 4.82309L165.588 6.27876L178.111 8.67473C178.653 11.8935 184.413 13.6204 189.856 13.6204C195.018 13.6204 201.537 12.0562 202.541 9.14488H203.427V5.42887C203.427 1.80327 198.752 0.944336 198.752 0.944336H198.743ZM97.5067 11.5228C92.3983 11.5228 88.1308 10.0671 87.0368 8.10512H107.986C106.901 10.0581 102.624 11.5228 97.5067 11.5228ZM189.846 11.5228C184.729 11.5228 180.452 10.0671 179.367 8.10512H201.374C200.289 10.0581 194.955 11.5228 189.846 11.5228Z" fill="#333333"/>
<path d="M202.395 8.10482C201.365 11.1156 197.423 13.2313 189.837 13.2313C184.719 13.2313 178.535 11.5225 178.535 7.74316L202.395 8.10482Z" fill="#F3FC00"/>
<path d="M109.44 8.10507C108.41 11.1159 104.468 13.2315 96.8818 13.2315C91.7644 13.2225 85.5801 11.5227 85.5801 7.73438L109.44 8.09603V8.10507Z" fill="#F3FC00"/>
<path d="M187.036 299.482L176.548 349.599C176.151 351.498 174.469 352.854 172.507 352.854C171.422 352.854 170.545 351.986 170.545 350.91V346.489C170.545 345.413 171.422 344.545 172.507 344.545C173.664 344.545 174.568 345.521 174.46 346.66L174.333 348.017" stroke="#231F20" stroke-width="1.24771" stroke-linecap="round" stroke-linejoin="round"/>
<path d="M302.381 299.482L312.869 349.599C313.267 351.498 314.948 352.854 316.91 352.854C317.995 352.854 318.872 351.986 318.872 350.91V346.489C318.872 345.413 317.995 344.545 316.91 344.545C315.753 344.545 314.849 345.521 314.957 346.66L315.084 348.017" stroke="#231F20" stroke-width="1.24771" stroke-linecap="round" stroke-linejoin="round"/>
<path d="M273.665 250.378L282.083 256.255L282.345 256.336C286.531 257.602 291.088 256.77 294.533 254.094L294.696 253.967C294.632 252.15 293.891 250.315 292.363 248.886L284.108 241.138L273.656 250.387L273.665 250.378Z" fill="#FFC7B6"/>
<path d="M258.737 226.78C255.862 229.311 255.699 233.706 258.367 236.445L272.733 251.192L285.446 239.944L267.327 226.418C264.75 224.492 261.151 224.637 258.737 226.771V226.78Z" fill="#C7CFE4"/>
<path d="M258.737 226.78C255.862 229.311 255.699 233.706 258.367 236.445L272.733 251.192L285.446 239.944L267.327 226.418C264.75 224.492 261.151 224.637 258.737 226.771V226.78Z" stroke="#231F20" stroke-width="1.24771" stroke-linecap="round" stroke-linejoin="round"/>
<path d="M284.115 241.13L292.37 248.878C293.898 250.316 294.639 252.142 294.703 253.96" stroke="#231F20" stroke-width="1.24771" stroke-linecap="round" stroke-linejoin="round"/>
<path d="M273.666 250.378L282.084 256.255" stroke="#231F20" stroke-width="1.24771" stroke-linecap="round" stroke-linejoin="round"/>
<path d="M305.47 287.358H175.871V291.743H305.47V287.358Z" fill="#D39FAB"/>
<path d="M305.47 279.989H175.871V284.374H305.47V279.989Z" fill="#D39FAB"/>
<path d="M305.47 272.62H175.871V277.005H305.47V272.62Z" fill="#D39FAB"/>
<path d="M305.47 265.251H175.871V269.636H305.47V265.251Z" fill="#D39FAB"/>
<path d="M305.47 257.883H175.871V262.268H305.47V257.883Z" fill="#D39FAB"/>
<path d="M305.47 250.514H175.871V254.899H305.47V250.514Z" fill="#D39FAB"/>
<path d="M183.67 297.547L182.404 291.733" stroke="#231F20" stroke-width="1.24771" stroke-linecap="round" stroke-linejoin="round"/>
<path d="M305.474 287.358H175.875V291.743H305.474V287.358Z" stroke="#231F20" stroke-width="1.24771" stroke-linecap="round" stroke-linejoin="round"/>
<path d="M305.474 279.99H175.875V284.375H305.474V279.99Z" stroke="#231F20" stroke-width="1.24771" stroke-linecap="round" stroke-linejoin="round"/>
<path d="M305.474 272.621H175.875V277.006H305.474V272.621Z" stroke="#231F20" stroke-width="1.24771" stroke-linecap="round" stroke-linejoin="round"/>
<path d="M305.474 265.252H175.875V269.637H305.474V265.252Z" stroke="#231F20" stroke-width="1.24771" stroke-linecap="round" stroke-linejoin="round"/>
<path d="M305.474 257.883H175.875V262.268H305.474V257.883Z" stroke="#231F20" stroke-width="1.24771" stroke-linecap="round" stroke-linejoin="round"/>
<path d="M305.474 250.515H175.875V254.9H305.474V250.515Z" stroke="#231F20" stroke-width="1.24771" stroke-linecap="round" stroke-linejoin="round"/>
<path d="M182.403 291.734L181.137 254.899" stroke="#231F20" stroke-width="1.24771" stroke-linecap="round" stroke-linejoin="round"/>
<path d="M299.76 254.899V291.734L298.711 297.548" stroke="#231F20" stroke-width="1.24771" stroke-linecap="round" stroke-linejoin="round"/>
<path d="M317.667 297.548H175.871V303H317.667V297.548Z" fill="#D39FAB"/>
<path d="M317.667 297.548H175.871V303H317.667V297.548Z" stroke="#231F20" stroke-width="1.24771" stroke-linecap="round" stroke-linejoin="round"/>
<path d="M331.592 338.94L335.299 352.864H359.249C359.249 352.864 356.817 349.302 351.329 347.195C345.416 344.926 339.774 337.412 338.988 334.854L331.592 338.949V338.94Z" fill="#A3808D"/>
<path d="M359.149 352.656H335.262V350.26L358.046 351.173L359.149 352.656Z" fill="#F2E7E3"/>
<path d="M331.592 338.94L332.632 342.846C332.632 342.846 335.642 342.231 338.328 341.028C340.787 339.925 340.326 337.267 340.326 337.267L339.196 334.727L331.592 338.94Z" fill="#FFC7B6"/>
<path d="M331.592 338.94L335.299 352.863H359.249C359.249 352.863 356.944 348.939 351.329 347.194C344.973 345.223 340.651 338.18 338.906 334.735" stroke="#231F20" stroke-width="1.24771" stroke-linecap="round" stroke-linejoin="round"/>
<path d="M335.262 349.996L357.874 351.153" stroke="#231F20" stroke-width="1.24771" stroke-linecap="round" stroke-linejoin="round"/>
<path d="M332.631 342.846C340.84 341.897 340.262 337.557 340.262 337.557" stroke="#231F20" stroke-width="1.24771" stroke-linecap="round" stroke-linejoin="round"/>
<path d="M281.529 334.238H290.372C290.372 334.238 291.881 343.46 293.69 345.649H293.681C295.616 347.023 296.547 348.668 296.547 348.668V352.864H279.332V350.739L281.529 334.238Z" fill="#A3808D"/>
<path d="M296.33 348.687L296.167 352.583H279.649L279.531 350.829L296.33 348.687Z" fill="#F2E7E3"/>
<path d="M290.046 334.491L290.245 335.893C290.245 335.893 288.97 335.974 286.176 336.598C283.373 337.222 281.447 337.348 281.447 337.348L281.809 334.491H290.055H290.046Z" fill="#FFC7B6"/>
<path d="M281.529 334.238L279.332 350.739V352.864H296.547V348.668C296.547 348.668 293.039 342.394 285.29 344.111" stroke="#231F20" stroke-width="1.24771" stroke-linecap="round" stroke-linejoin="round"/>
<path d="M290.383 334.238C290.383 334.238 291.893 343.46 293.701 345.649" stroke="#231F20" stroke-width="1.24771" stroke-linecap="round" stroke-linejoin="round"/>
<path d="M296.556 348.66L279.332 350.468" stroke="#231F20" stroke-width="1.24771" stroke-linecap="round" stroke-linejoin="round"/>
<path d="M290.771 336.355C287.245 335.55 282.942 338.479 281.115 337.431" stroke="#231F20" stroke-width="1.24771" stroke-linecap="round" stroke-linejoin="round"/>
<path d="M231.705 272.466L231.316 280.097L261.723 277.322L275.312 276.002L268.178 238.362L264.815 225.08L258.63 222.486L247.329 222.024L234.598 228.127L231.705 272.466Z" fill="#C7CFE4"/>
<path d="M234.602 228.127L247.332 222.024" stroke="#231F20" stroke-width="1.24771" stroke-linecap="round" stroke-linejoin="round"/>
<path d="M258.633 222.486L264.817 225.081" stroke="#231F20" stroke-width="1.24771" stroke-linecap="round" stroke-linejoin="round"/>
<path d="M231.705 272.465L231.316 280.096L261.723 277.321L275.312 276L268.178 238.361" stroke="#231F20" stroke-width="1.24771" stroke-linecap="round" stroke-linejoin="round"/>
<path d="M277.826 258.761H267.7C267.121 258.761 266.687 258.228 266.804 257.667L271.217 237.451C271.307 237.035 271.678 236.736 272.112 236.736H282.627L277.826 258.761Z" fill="#C7CFE4"/>
<path d="M277.826 258.761H267.7C267.121 258.761 266.687 258.228 266.804 257.667L271.217 237.451C271.307 237.035 271.678 236.736 272.112 236.736H282.627L277.826 258.761Z" stroke="#231F20" stroke-width="1.24771" stroke-linecap="round" stroke-linejoin="round"/>
<path d="M278.93 258.761H268.541L273.342 236.736H283.26C283.948 236.736 284.454 237.36 284.309 238.029L279.969 257.92C279.861 258.409 279.427 258.761 278.921 258.761H278.93Z" fill="#91B1DA"/>
<path d="M278.93 258.761H268.541L273.342 236.736H283.26C283.948 236.736 284.454 237.36 284.309 238.029L279.969 257.92C279.861 258.409 279.427 258.761 278.921 258.761H278.93Z" stroke="#231F20" stroke-width="1.24771" stroke-linecap="round" stroke-linejoin="round"/>
<path d="M277.371 241.5H274.297L274.957 237.992H278.022L277.371 241.5Z" fill="#625E8A"/>
<path d="M277.371 241.5H274.297L274.957 237.992H278.022L277.371 241.5Z" stroke="#231F20" stroke-width="1.24771" stroke-linecap="round" stroke-linejoin="round"/>
<path d="M186.047 352.863H365.672" stroke="#231F20" stroke-width="1.24771" stroke-linecap="round" stroke-linejoin="round"/>
<path d="M156.708 352.862C156.708 352.862 160.55 336.316 153.417 335.086C146.283 333.866 150.668 345.647 150.668 345.647C150.668 345.647 144.99 328.396 134.195 329.68C123.399 330.963 143.896 348.685 143.896 348.685C143.896 348.685 136.148 343.802 131.057 343.549C125.967 343.287 136.763 352.663 136.763 352.663L156.708 352.862Z" fill="#91B1DA"/>
<path d="M156.708 352.862C156.708 352.862 160.55 336.316 153.417 335.086C146.283 333.866 150.668 345.647 150.668 345.647C150.668 345.647 144.99 328.396 134.195 329.68C123.399 330.963 143.896 348.685 143.896 348.685C143.896 348.685 136.148 343.802 131.057 343.549C125.967 343.287 136.763 352.663 136.763 352.663" stroke="#231F20" stroke-width="1.24771" stroke-linecap="round" stroke-linejoin="round"/>
<path d="M153.777 352.581V338.784" stroke="#231F20" stroke-width="1.24771" stroke-linecap="round" stroke-linejoin="round"/>
<path d="M150.298 352.581C150.298 352.581 141.699 335.493 134.557 331.867" stroke="#231F20" stroke-width="1.24771" stroke-linecap="round" stroke-linejoin="round"/>
<path d="M141.7 352.581C141.7 352.581 135.018 347.762 132.73 346.912" stroke="#231F20" stroke-width="1.24771" stroke-linecap="round" stroke-linejoin="round"/>
<path d="M129.682 352.655H159.907" stroke="#231F20" stroke-width="1.24771" stroke-linecap="round" stroke-linejoin="round"/>
<path d="M265.176 203.217C265.176 203.217 269.932 203.588 270.158 197.828C270.384 192.069 265.493 192.756 263.748 193.886C263.748 193.886 264.824 186.545 258.242 186.002C251.669 185.46 251.551 192.304 251.551 192.304C251.551 192.304 249.743 189.537 245.349 190.405C240.955 191.264 244.155 196.481 244.155 196.481C244.155 196.481 242.229 194.628 240.819 195.125C239.399 195.622 243.332 197.575 243.332 197.575C243.332 197.575 236.47 199.619 238.893 205.414C241.316 211.219 248.025 213.796 248.025 213.796L265.158 203.226L265.176 203.217Z" fill="#E0E0EF"/>
<path d="M265.176 203.217C265.176 203.217 269.932 203.588 270.158 197.828C270.384 192.069 265.493 192.756 263.748 193.886C263.748 193.886 264.824 186.545 258.242 186.002C251.669 185.46 251.551 192.304 251.551 192.304C251.551 192.304 249.743 189.537 245.349 190.405C240.955 191.264 244.155 196.481 244.155 196.481C244.155 196.481 242.229 194.628 240.819 195.125C239.399 195.622 243.332 197.575 243.332 197.575C243.332 197.575 236.47 199.619 238.893 205.414C241.316 211.219 248.025 213.796 248.025 213.796L265.158 203.226L265.176 203.217Z" stroke="#231F20" stroke-width="1.24771" stroke-linecap="round" stroke-linejoin="round"/>
<path d="M265.143 202.495L262.675 201.139L253.525 203.697C252.377 204.023 251.581 205.063 251.581 206.247V207.757H249.493V204.547C248.489 203.616 247.069 203.227 245.731 203.652C243.724 204.303 242.666 206.545 243.362 208.679C244.059 210.813 246.256 212.015 248.263 211.364L247.341 222.033C247.341 222.033 255.324 226.048 258.642 222.485C258.642 222.485 257.313 220.035 258.181 218.878H258.163C260.568 219.086 263.037 218.082 264.447 215.876C264.8 215.325 265.044 214.746 265.143 214.14C265.74 210.289 265.143 202.495 265.143 202.495Z" fill="#FFC7B6"/>
<path d="M250.248 212.965L253.594 216.627C256.595 219.918 262.029 219.619 264.425 215.876C264.778 215.325 265.022 214.746 265.121 214.14C265.718 210.289 265.121 202.495 265.121 202.495L262.653 201.139L253.503 203.697C252.355 204.023 251.559 205.063 251.559 206.247V207.757H249.471V204.547" stroke="#231F20" stroke-width="1.24771" stroke-linecap="round" stroke-linejoin="round"/>
<path d="M249.473 204.538C248.469 203.607 247.05 203.218 245.712 203.643C243.705 204.294 242.647 206.537 243.343 208.67C244.039 210.804 246.236 212.007 248.243 211.356L247.321 222.024C247.321 222.024 255.305 226.039 258.623 222.477C258.623 222.477 257.294 220.026 258.162 218.869" stroke="#231F20" stroke-width="1.24771" stroke-linecap="round" stroke-linejoin="round"/>
<path d="M256.885 205.804V206.663" stroke="#231F20" stroke-width="1.24771" stroke-linecap="round" stroke-linejoin="round"/>
<path d="M262.652 205.804V206.527" stroke="#231F20" stroke-width="1.24771" stroke-linecap="round" stroke-linejoin="round"/>
<path d="M250.246 212.966L248.248 211.365" stroke="#231F20" stroke-width="1.24771" stroke-linecap="round" stroke-linejoin="round"/>
<path d="M255.953 203.769L257.572 203.471" stroke="#231F20" stroke-width="1.24771" stroke-linecap="round" stroke-linejoin="round"/>
<path d="M262.375 203.254L264.129 203.959" stroke="#231F20" stroke-width="1.24771" stroke-linecap="round" stroke-linejoin="round"/>
<path d="M245.322 205.396L248.252 208.462" stroke="#231F20" stroke-width="1.24771" stroke-linecap="round" stroke-linejoin="round"/>
<path d="M245.527 208.725L246.784 206.926" stroke="#231F20" stroke-width="1.24771" stroke-linecap="round" stroke-linejoin="round"/>
<path d="M238.404 255.37L234.263 264.71L234.082 264.918C231.162 268.146 226.822 269.764 222.473 269.24L222.265 269.213C221.37 267.622 221.045 265.678 221.605 263.661L224.625 252.803L238.395 255.37H238.404Z" fill="#FFC7B6"/>
<path d="M238.881 227.533C242.66 228.238 245.092 231.909 244.242 235.625L239.631 255.597L222.887 252.469L231.349 231.62C232.552 228.654 235.707 226.936 238.89 227.524L238.881 227.533Z" fill="#C7CFE4"/>
<path d="M238.881 227.533C242.66 228.238 245.092 231.909 244.242 235.625L239.631 255.597L222.887 252.469L231.349 231.62C232.552 228.654 235.707 226.936 238.89 227.524L238.881 227.533Z" stroke="#231F20" stroke-width="1.24771" stroke-linecap="round" stroke-linejoin="round"/>
<path d="M224.633 252.794L221.613 263.653C221.052 265.669 221.369 267.613 222.273 269.204" stroke="#231F20" stroke-width="1.24771" stroke-linecap="round" stroke-linejoin="round"/>
<path d="M238.403 255.37L234.271 264.701" stroke="#231F20" stroke-width="1.24771" stroke-linecap="round" stroke-linejoin="round"/>
<path d="M249.091 278.399L250.646 281.943C254.263 290.171 261.839 295.867 270.402 298.805C274.832 300.324 278.828 301.753 283.512 301.753H307.951L308.791 301.499C313.366 300.125 316.648 296.156 317.109 291.445L317.218 290.306C315.735 289.149 314.008 288.281 312.137 287.784L269.877 276.572L249.082 278.39L249.091 278.399Z" fill="#A3808D"/>
<path d="M269.887 276.581L312.146 287.792C314.018 288.29 315.736 289.149 317.227 290.315" stroke="#231F20" stroke-width="1.24771" stroke-linecap="round" stroke-linejoin="round"/>
<path d="M222.273 269.201C223.919 272.122 227.517 273.857 231.188 272.637L264.198 261.724L264.036 260.865C263.62 258.722 262.236 256.887 260.274 255.892C259.488 256.163 258.647 256.299 257.797 256.263L242.174 255.648C241.378 255.621 240.582 255.63 239.787 255.675L234.244 256.028C230.754 256.245 227.644 258.306 226.116 261.426L222.292 269.21L222.273 269.201Z" fill="#FFC7B6"/>
<path d="M228.576 256.372L239.769 255.667C240.565 255.613 241.361 255.604 242.156 255.64L257.78 256.255C258.63 256.291 259.471 256.155 260.257 255.884" stroke="#231F20" stroke-width="1.24771" stroke-linecap="round" stroke-linejoin="round"/>
<path d="M222.273 269.202C223.919 272.122 227.517 273.858 231.188 272.638L264.198 261.725" stroke="#231F20" stroke-width="1.24771" stroke-linecap="round" stroke-linejoin="round"/>
<path d="M264.191 261.725L275.583 256.02L275.267 251.264L274.86 251.219C274.046 251.128 273.214 251.255 272.464 251.589L268.169 253.497L267.744 253.37L268.368 250.522L264.95 252.032L262.916 254.175C262.175 254.962 261.261 255.54 260.258 255.893L260.502 257.014C260.818 258.452 261.632 259.745 262.798 260.649L264.182 261.734L264.191 261.725Z" fill="#FFC7B6"/>
<path d="M264.191 261.725L275.583 256.02L275.267 251.264L274.86 251.219C274.046 251.128 273.214 251.255 272.464 251.589L268.169 253.497L267.744 253.37L268.368 250.522L264.95 252.032L262.916 254.175C262.175 254.962 261.261 255.54 260.258 255.893" stroke="#231F20" stroke-width="1.24771" stroke-linecap="round" stroke-linejoin="round"/>
<path d="M267.745 253.362L268.369 250.514L264.951 252.024" stroke="#231F20" stroke-width="1.24771" stroke-linecap="round" stroke-linejoin="round"/>
<path d="M267.745 253.362L268.369 250.514L264.951 252.024" stroke="#231F20" stroke-width="1.24771" stroke-linecap="round" stroke-linejoin="round"/>
<path d="M280.258 277.339C279.091 276.29 277.509 275.712 275.827 275.865L231.244 279.934C231.244 279.934 229.662 301.751 240.918 301.751H258.477C260.312 301.751 262.111 301.19 263.621 300.15L267.563 297.429L269.824 295.874C275.33 292.068 278.992 286.173 279.932 279.59L280.258 277.339Z" fill="#A3808D"/>
<path d="M280.331 277.501C279.165 276.452 277.583 275.874 275.901 276.027L231.318 280.096C231.318 280.096 229.663 301.75 240.92 301.75H258.478C260.314 301.75 262.185 301.352 263.695 300.313L267.637 297.591" stroke="#231F20" stroke-width="1.24771" stroke-linecap="round" stroke-linejoin="round"/>
<path d="M267.71 297.954C270.712 312.43 279.979 335.087 279.979 335.087L291.507 334.138L282.131 280.758C281.905 279.465 281.245 278.334 280.332 277.512L271.498 285.993C268.271 289.094 266.815 293.605 267.719 297.963L267.71 297.954Z" fill="#A3808D"/>
<path d="M266.786 290.495C266.633 302.457 279.978 335.087 279.978 335.087L291.506 334.138L282.13 280.758C281.904 279.465 281.244 278.334 280.33 277.512" stroke="#231F20" stroke-width="1.24771" stroke-linecap="round" stroke-linejoin="round"/>
<path d="M307.959 301.752H285.816" stroke="#231F20" stroke-width="1.24771" stroke-linecap="round" stroke-linejoin="round"/>
<path d="M317.227 290.306C318.845 291.563 320.174 293.172 321.114 295.035L340.653 333.732L330.906 339.301C330.906 339.301 314.062 316.815 307.57 300.83C308.809 296.951 311.449 293.66 314.993 291.599L317.227 290.297V290.306Z" fill="#A3808D"/>
<path d="M317.227 290.306C318.845 291.562 320.174 293.172 321.114 295.034L340.653 333.731L330.906 339.301C330.906 339.301 314.062 316.815 307.57 300.83" stroke="#231F20" stroke-width="1.24771" stroke-linecap="round" stroke-linejoin="round"/>
<path d="M279.373 257.893C278.903 259.511 277.8 268.055 277.945 269.177C278.089 270.298 279.039 271.12 279.039 271.12C279.039 271.12 280.286 275.985 281.019 276.319C281.751 276.654 283.216 276.256 283.216 276.256C283.216 276.256 284.355 276.934 285.105 276.41C285.856 275.885 285.557 275.044 285.557 275.044C285.557 275.044 286.724 273.788 286.715 273.281C286.706 272.775 286.19 270.488 286.19 270.488C286.19 270.488 287.836 267.676 287.655 267.034C287.474 266.392 285.811 260.216 285.811 260.216L283.505 258.86C282.673 258.372 281.742 258.074 280.784 258.001L279.364 257.884L279.373 257.893Z" fill="#FFC7B6"/>
<path d="M279.373 257.893C278.903 259.511 277.8 268.055 277.945 269.176C278.089 270.297 279.039 271.12 279.039 271.12C279.039 271.12 280.286 275.984 281.019 276.319C281.751 276.653 283.216 276.256 283.216 276.256C283.216 276.256 284.355 276.934 285.105 276.409C285.856 275.885 285.557 275.044 285.557 275.044C285.557 275.044 286.724 273.787 286.715 273.281C286.706 272.775 286.19 270.487 286.19 270.487C286.19 270.487 287.836 267.675 287.655 267.033C287.474 266.391 285.811 260.216 285.811 260.216" stroke="#231F20" stroke-width="1.24771" stroke-linecap="round" stroke-linejoin="round"/>
<path d="M283.854 250.314C283.854 250.314 279.839 256.282 279.369 257.891L281.874 259.799C282.091 259.962 282.353 260.061 282.624 260.07L285.816 260.224C285.816 260.224 290.002 258.678 291.982 256.689C293.962 254.699 294.568 251.155 293.41 250.043L288.302 249.166C286.72 248.895 285.101 249.311 283.854 250.305V250.314Z" fill="#FFC7B6"/>
<path d="M285.816 260.233C285.816 260.233 290.003 258.687 291.983 256.698C293.963 254.709 294.568 251.165 293.411 250.053" stroke="#231F20" stroke-width="1.24771" stroke-linecap="round" stroke-linejoin="round"/>
<path d="M283.854 250.313C283.854 250.313 279.839 256.281 279.369 257.89" stroke="#231F20" stroke-width="1.24771" stroke-linecap="round" stroke-linejoin="round"/>
<path d="M281.279 271.002L283.223 276.264" stroke="#231F20" stroke-width="1.24771" stroke-linecap="round" stroke-linejoin="round"/>
<path d="M283.754 270.009L285.553 275.054" stroke="#231F20" stroke-width="1.24771" stroke-linecap="round" stroke-linejoin="round"/>
<path d="M285.557 268.751L286.199 270.487" stroke="#231F20" stroke-width="1.24771" stroke-linecap="round" stroke-linejoin="round"/>
</g>
<g clip-path="url(#clip1_1_10669)">
<path d="M103.733 234.849C103.733 229.899 101.742 225.428 98.5241 222.18C95.5078 219.137 93.8928 214.972 94.6132 210.744C94.9813 208.594 95.0684 206.345 94.8309 204.036C93.6632 192.675 84.4679 183.401 73.1312 182.203C58.414 180.648 45.9807 192.176 45.9807 206.606C45.9807 209.938 46.6457 213.116 47.8491 216.007C49.7768 220.652 48.716 226 45.5572 229.903C41.6819 234.699 39.5603 240.974 40.1698 247.753C41.2069 259.252 50.4181 268.725 61.8696 270.018C72.003 271.164 81.0756 266.154 85.8573 258.249C87.8682 254.913 91.0151 252.497 94.4232 250.613C99.9728 247.547 103.737 241.64 103.737 234.837L103.733 234.849Z" fill="#00AA4C"/>
<path d="M64.7272 270.482C63.7692 270.482 62.8034 270.427 61.8376 270.319C50.1723 268.999 40.9374 259.526 39.8805 247.789C39.2868 241.22 41.2224 234.81 45.3312 229.724C48.5533 225.746 49.4123 220.534 47.5795 216.131C46.3247 213.108 45.6914 209.907 45.6914 206.611C45.6914 199.582 48.6839 192.846 53.901 188.146C59.1815 183.374 66.0176 181.168 73.1624 181.918C84.6971 183.132 93.936 192.426 95.1274 204.008C95.361 206.285 95.2897 208.57 94.9058 210.799C94.2289 214.758 95.6222 218.832 98.7335 221.973C102.15 225.417 104.03 229.99 104.03 234.849C104.03 242.1 99.7468 248.673 93.1166 251.597C90.2507 252.862 88.0657 254.794 86.799 257.186C82.4052 265.468 73.9502 270.482 64.7311 270.482H64.7272ZM70.4351 182.362C64.4382 182.362 58.7896 184.524 54.289 188.578C49.1945 193.171 46.2733 199.744 46.2733 206.611C46.2733 209.824 46.8947 212.953 48.1179 215.904C50.0337 220.506 49.1391 225.948 45.7824 230.097C41.7766 235.06 39.8845 241.323 40.4584 247.737C41.4916 259.193 50.5087 268.447 61.9009 269.736C71.9868 270.863 81.5423 265.845 86.2765 256.916C87.6105 254.409 89.8905 252.386 92.8751 251.069C99.2916 248.237 103.44 241.87 103.44 234.857C103.44 230.153 101.619 225.73 98.3139 222.394C95.068 219.114 93.6114 214.857 94.3239 210.7C94.692 208.53 94.7672 206.301 94.5376 204.072C93.3739 192.763 84.3607 183.695 73.0991 182.505C72.2045 182.414 71.3139 182.366 70.4351 182.366V182.362Z" fill="#09100F"/>
<path d="M71.9002 352.953C71.7379 352.953 71.6073 352.822 71.6073 352.659V202.548C71.6073 202.385 71.7379 202.25 71.9002 202.25C72.0625 202.25 72.1931 202.385 72.1931 202.548V352.663C72.1931 352.826 72.0625 352.957 71.9002 352.957V352.953Z" fill="#09100F"/>
<path d="M71.9001 255.88C71.8012 255.88 71.7022 255.828 71.6468 255.733L52.7852 223.801C52.7021 223.662 52.7496 223.484 52.8881 223.4C53.0227 223.317 53.2048 223.361 53.2879 223.504L72.1495 255.435C72.2326 255.574 72.1891 255.753 72.0466 255.836C71.9991 255.864 71.9476 255.88 71.8962 255.88H71.9001Z" fill="#09100F"/>
<path d="M71.8998 234.664C71.8483 234.664 71.8008 234.652 71.7533 234.624C71.6148 234.545 71.5673 234.362 71.6504 234.223L84.2262 212.684C84.3053 212.541 84.4834 212.498 84.6299 212.581C84.7685 212.66 84.816 212.843 84.7328 212.982L72.1571 234.521C72.1056 234.612 72.0067 234.668 71.9038 234.668L71.8998 234.664Z" fill="#09100F"/>
<path d="M57.1045 248.871C57.1045 244.519 55.3549 240.592 52.5246 237.736C49.8765 235.063 48.4515 231.402 49.0888 227.689C49.4134 225.801 49.4886 223.825 49.2788 221.794C48.2536 211.814 40.1706 203.663 30.2113 202.611C17.2793 201.243 6.35426 211.374 6.35426 224.055C6.35426 226.983 6.94009 229.775 7.99302 232.318C9.6872 236.4 8.75698 241.1 5.97821 244.531C2.57402 248.744 0.709626 254.258 1.24796 260.216C2.15839 270.323 10.2532 278.641 20.3154 279.783C29.2217 280.791 37.1939 276.388 41.3937 269.442C43.1631 266.511 45.926 264.389 48.9225 262.735C53.7992 260.041 57.1084 254.849 57.1084 248.875L57.1045 248.871Z" fill="#00AA4C"/>
<path d="M22.8282 280.185C21.9851 280.185 21.138 280.138 20.2869 280.042C10.0348 278.88 1.92012 270.558 0.989908 260.245C0.471362 254.473 2.1695 248.836 5.77953 244.37C8.60976 240.871 9.36581 236.294 7.75476 232.422C6.65433 229.765 6.09224 226.952 6.09224 224.056C6.09224 217.88 8.7206 211.962 13.3083 207.829C17.9515 203.636 23.9563 201.696 30.2343 202.359C40.3717 203.426 48.4863 211.589 49.5353 221.772C49.7411 223.775 49.6778 225.778 49.3413 227.738C48.7436 231.216 49.9707 234.794 52.706 237.559C55.7064 240.586 57.361 244.604 57.361 248.872C57.361 255.243 53.5966 261.022 47.7699 263.588C45.2524 264.703 43.3325 266.401 42.2163 268.499C38.3569 275.778 30.927 280.181 22.8243 280.181L22.8282 280.185ZM27.8435 202.751C22.5749 202.751 17.6111 204.651 13.6527 208.213C9.17581 212.252 6.61079 218.027 6.61079 224.056C6.61079 226.881 7.15704 229.63 8.22976 232.224C9.91602 236.27 9.12831 241.05 6.17537 244.695C2.66034 249.055 0.997825 254.56 1.50054 260.197C2.41096 270.264 10.3317 278.396 20.3424 279.527C29.2051 280.514 37.6008 276.107 41.7611 268.261C42.9328 266.056 44.9396 264.279 47.5601 263.12C53.1968 260.633 56.8425 255.036 56.8425 248.872C56.8425 244.739 55.2433 240.851 52.3378 237.92C49.4838 235.036 48.2053 231.296 48.8307 227.646C49.1553 225.738 49.2186 223.783 49.0207 221.823C47.9995 211.887 40.0788 203.918 30.1829 202.87C29.3951 202.791 28.6153 202.747 27.8395 202.747L27.8435 202.751Z" fill="#09100F"/>
<path d="M29.1323 352.656C28.9898 352.656 28.875 352.541 28.875 352.399V220.486C28.875 220.344 28.9898 220.225 29.1323 220.225C29.2748 220.225 29.3896 220.344 29.3896 220.486V352.399C29.3896 352.541 29.2748 352.656 29.1323 352.656Z" fill="#09100F"/>
<path d="M29.1296 267.353C29.0425 267.353 28.9554 267.309 28.9079 267.226L12.3303 239.162C12.259 239.039 12.2986 238.884 12.4213 238.809C12.54 238.733 12.6984 238.777 12.7736 238.9L29.3512 266.96C29.4264 267.083 29.3829 267.238 29.2602 267.313C29.2206 267.341 29.1731 267.349 29.1296 267.349V267.353Z" fill="#09100F"/>
<path d="M29.1318 248.704C29.0883 248.704 29.0447 248.692 29.0012 248.668C28.8785 248.597 28.8389 248.438 28.9101 248.315L39.9579 229.39C40.0292 229.267 40.1836 229.224 40.3102 229.299C40.4329 229.371 40.4725 229.529 40.4013 229.652L29.3535 248.581C29.306 248.661 29.2228 248.708 29.1318 248.708V248.704Z" fill="#09100F"/>
</g>
<defs>
<clipPath id="clip0_1_10669">
<rect width="281.305" height="352.533" fill="white" transform="translate(84.9805 0.946289)"/>
</clipPath>
<clipPath id="clip1_1_10669">
<rect width="103.072" height="188.965" fill="white" transform="translate(0.898438 163.69)"/>
</clipPath>
</defs>
</svg>
