<svg width="491" height="320" viewBox="0 0 491 320" fill="none" xmlns="http://www.w3.org/2000/svg">
<path d="M102.1 75.9512L97.9164 79.4619L91.1956 151.378L107.925 140.551L102.1 75.9512Z" fill="#85CDDD"/>
<path d="M123.867 61.3196L131.099 63.6706C137.978 65.9952 141.884 73.8747 140.465 80.9951L125.894 103.427C124.521 110.32 138.57 128.154 138.57 128.154L95.9354 134.11L99.5614 112.905C99.5062 109.186 95.5045 98.7642 95.5045 98.7642C93.1147 96.3745 92.238 92.86 93.2249 89.6273L96.4664 85.4615C99.3985 74.4032 123.869 61.3184 123.869 61.3184L123.867 61.3196Z" fill="#F2F2F2"/>
<path d="M95.9346 134.111L91.1476 159.402L89.4329 186.287C89.2037 188.145 89.0897 190.017 89.0897 191.889L87.4314 226.474L84.7197 259.043L98.6538 263.293L104.482 240.706L110.408 213.82L127.802 129.674L95.9346 134.111Z" fill="#936758"/>
<path d="M134.056 129.958C140.168 142.209 148.266 154.621 143.777 167.554L139.846 216.739L137.134 263.294L122.548 265.974L120.286 241.757L119.792 216.055L112.393 165.489C111.917 159.433 109.179 153.723 104.576 149.758C99.813 145.653 99.2418 140.668 98.5742 134.11L134.056 129.957V129.958Z" fill="#936758"/>
<path d="M138.57 128.155C145.385 134.265 150.651 167.883 153.29 203.822C152.555 205.701 142.926 207.853 138.783 204.811C136.948 203.463 134.549 203.503 132.489 204.551C129.955 202.67 126.225 203.519 122.941 205.876C120.004 204.842 117.105 204.387 114.313 205.596L101.506 205.932C97.8199 203.162 98.2996 203.378 93.242 204.698L84.2266 202.204L87.5394 172.462C89.6649 157.72 92.4091 144.415 95.7383 132.465L138.57 128.157V128.155Z" fill="#34273F"/>
<path d="M97.9176 119.226L138.57 115.238V128.155L95.7383 132.464L97.9176 119.226Z" fill="#34273F"/>
<path d="M135.401 128.487C144.117 136.92 153.11 176.047 154.373 204.692C149.616 207.303 144.699 207.486 139.621 205.239C143.362 179.777 141.639 153.632 135.403 128.487H135.401Z" fill="#56384D"/>
<path d="M105.945 132.092L115.417 206.496C110.433 208.74 105.45 208.74 100.467 206.496L105.945 132.092Z" fill="#56384D"/>
<path d="M121.476 130.416L121.781 206.747C126.134 208.738 130.249 208.493 134.128 206.012L121.477 130.417L121.476 130.416Z" fill="#56384D"/>
<path d="M96.0299 205.931C93.6113 207.466 84.8777 207.018 82.4929 205.931C85.7444 179.347 90.0367 154.581 95.9347 132.626C93.1003 155.456 93.4673 180.079 96.0299 205.931Z" fill="#56384D"/>
<path d="M91.0246 298.912L90.1478 296.253L98.6523 263.294L84.7182 259.044L81.1612 301.772C76.8376 306.095 74.0457 312.006 68.6274 314.055L67.1182 316.678H77.0116C85.0965 312.191 94.3875 308.212 91.0258 298.912H91.0246Z" fill="#F2F2F2"/>
<path d="M128.882 312.05C131.735 311.023 135.02 311.082 137.797 311.99C138.733 312.296 139.543 311.267 139.051 310.416C137.546 307.812 136.377 301.053 136.361 300.129C136.346 299.243 135.137 298.34 135.144 297.411L137.132 263.293L122.547 265.973L126.725 297.262C126.808 298.08 125.141 301.881 125.203 302.655C125.289 303.711 124.949 307.769 123.953 310.161C123.575 311.069 127.956 312.382 128.882 312.049V312.05Z" fill="#F2F2F2"/>
<path d="M91.67 299.938C95.4149 305.523 92.702 314.872 92.702 314.872C71.2668 315.145 56.9007 318.276 56.8456 314.041C56.8155 311.64 56.952 307.795 65.5466 307.685C71.9369 307.603 73.768 297.335 79.3492 297.27C82.2374 297.234 83.3258 297.305 84.5708 298.645C86.8691 301.12 83.0127 304.004 84.1525 305.126C84.6447 305.611 90.8859 301.273 91.6712 299.939L91.67 299.938Z" fill="#6B8EC1"/>
<path d="M56.8867 317.275C58.2632 319.38 71.8503 319.144 84.1598 318.325C84.6896 318.289 86.7975 318.173 87.3186 318.15C88.7865 318.089 90.2169 318.059 91.5871 318.073C92.3298 318.08 92.9298 317.467 92.9198 316.724L92.891 314.516C86.2277 314.601 82.2234 314.183 75.7292 315.324C68.2168 316.644 58.912 315.706 56.8403 313.687L56.8867 317.275Z" fill="#A6C1E2"/>
<path d="M143.965 314.268C144.47 318.059 139.161 317.499 133.234 317.499C127.307 317.499 122.502 318.099 122.502 314.268C122.502 310.436 122.178 307.33 128.105 307.33C134.032 307.33 143.041 307.33 143.964 314.268H143.965Z" fill="#6B8EC1"/>
<path d="M140.494 309.233C140.494 312.56 135.909 310.599 132.03 310.599C128.151 310.599 124.463 311.685 124.463 308.359C124.463 305.032 128.15 301.771 132.03 301.771C135.911 301.771 140.494 305.906 140.494 309.233Z" fill="#6B8EC1"/>
<path d="M143.643 315.241H122.906C122.263 315.241 121.742 315.762 121.742 316.405V318.827C121.742 319.47 122.263 319.991 122.906 319.991H143.643C144.286 319.991 144.807 319.47 144.807 318.827V316.405C144.807 315.762 144.286 315.241 143.643 315.241Z" fill="#A6C1E2"/>
<path d="M123.677 71.5L120.475 98.9548C119.622 106.271 119.951 113.677 121.453 120.887L125.547 140.55L149.069 144.874C147.299 128.917 140.754 103.655 140.754 103.655L149.069 77.2052L140.709 72.6047C136.599 68.6068 125.154 65.959 123.677 71.5Z" fill="#85CDDD"/>
<path d="M109.633 72.7302C103.538 74.3309 101.331 76.5365 97.5081 83.8323L96.466 85.4643C95.4627 79.1768 100.9 71.4013 108.494 68.7247L110.719 68.1348L109.633 72.7315V72.7302Z" fill="#85CDDD"/>
<path d="M132.653 128.054L142.675 127.106L144.299 128.129C146.334 129.411 148.966 129.214 150.788 127.646L164.265 116.053L157.802 110.48L149.328 119.09L139.805 115.041L132.706 120.703C131.269 121.863 130.024 123.668 130.55 125.941C130.896 127.438 131.317 127.861 132.651 128.056L132.653 128.054Z" fill="#936758"/>
<path d="M133.564 128.399L142.674 127.106L139.808 115.039L132.433 120.824C130.912 122.052 129.993 123.521 130.471 125.59L130.905 127.461C131.044 128.063 131.888 128.645 133.565 128.399H133.564Z" fill="#AF7F72"/>
<path d="M184.995 101.912C191.159 96.1266 156.278 72.4081 147.348 66.46C133.955 57.5685 132.543 67.348 130.344 74.3181L134.128 86.277L162.828 101.547L153.634 115.109L163.363 123.802L184.995 101.911V101.912Z" fill="#85CDDD"/>
<path d="M161.538 127.319L166.832 122.352L155.585 110.366L150.291 115.334L161.538 127.319Z" fill="#9ADDE8"/>
<path d="M104.924 18.0921L93.5649 23.7233C93.5649 31.0592 97.325 39.6851 101.285 45.7397L102.178 47.1037L114.429 28.0657L104.924 18.0908V18.0921Z" fill="#211715"/>
<path d="M108.775 32.5303L126.799 33.4346L122.332 48.9618C122.428 53.2691 127.51 64.8885 127.51 64.8885C127.481 66.0822 106.508 79.5152 109.556 72.0979C109.556 72.0979 111.312 60.0426 110.644 56.9289L108.775 32.5315V32.5303Z" fill="#936758"/>
<path d="M117.729 54.315C121.003 51.4655 120.942 47.2146 120.942 47.2146L122.947 26.5947L110.485 54.831C110.635 55.5988 110.863 58.2791 110.863 59.097C110.863 59.097 114.455 57.1657 117.729 54.315Z" fill="#593426"/>
<path d="M124.411 34.6602C124.401 35.0973 124.384 35.5369 124.355 35.979C124.385 35.5369 124.403 35.0973 124.411 34.6602Z" fill="#FFCD69"/>
<path d="M121.775 24.8535C122.012 25.198 122.234 25.5449 122.434 25.8956C122.234 25.5449 122.013 25.198 121.775 24.8535Z" fill="#FFCD69"/>
<path d="M124.195 37.7188C124.145 38.1684 124.09 38.618 124.027 39.0727C124.09 38.6193 124.145 38.1684 124.195 37.7188Z" fill="#FFCD69"/>
<path d="M124.027 39.0723C123.963 39.5394 123.89 40.0104 123.816 40.4826C123.89 40.0104 123.961 39.5394 124.027 39.0723Z" fill="#FFCD69"/>
<path d="M122.522 26.0449C122.741 26.4407 122.936 26.8403 123.111 27.2436C122.934 26.8403 122.741 26.4407 122.522 26.0449Z" fill="#FFCD69"/>
<path d="M124.415 34.3258C124.419 33.9601 124.414 33.5956 124.4 33.2324C124.414 33.5944 124.419 33.9589 124.415 34.3258Z" fill="#FFCD69"/>
<path d="M124.076 30.3535C124.144 30.6992 124.201 31.0474 124.248 31.3968C124.201 31.0474 124.145 30.6992 124.076 30.3535Z" fill="#FFCD69"/>
<path d="M123.697 28.8174C123.822 29.2269 123.927 29.6403 124.018 30.0574C123.927 29.6415 123.822 29.2282 123.697 28.8174Z" fill="#FFCD69"/>
<path d="M122.211 23.1211C121.703 23.195 121.191 23.2701 120.64 23.3829C121.189 23.2714 121.708 23.1887 122.211 23.1211Z" fill="#FFB255"/>
<path d="M122.432 25.8945C122.461 25.9446 122.494 25.9947 122.523 26.0448C122.495 25.9947 122.461 25.9446 122.432 25.8945Z" fill="#FFB255"/>
<path d="M123.111 27.2432C123.156 27.3471 123.199 27.4511 123.241 27.5563C123.199 27.4523 123.157 27.3471 123.111 27.2432Z" fill="#FFB255"/>
<path d="M124.412 34.6606C124.414 34.5491 124.414 34.4376 124.416 34.3262C124.416 34.4376 124.416 34.5491 124.412 34.6606Z" fill="#FFB255"/>
<path d="M124.246 31.3965C124.258 31.4942 124.275 31.5931 124.286 31.6921C124.275 31.5931 124.26 31.4954 124.246 31.3965Z" fill="#FFB255"/>
<path d="M124.233 37.3574C124.22 37.4777 124.208 37.5979 124.194 37.7194C124.208 37.5992 124.22 37.4777 124.233 37.3574Z" fill="#FFB255"/>
<path d="M124.391 32.9707C124.395 33.0584 124.396 33.146 124.4 33.2337C124.396 33.146 124.396 33.0584 124.391 32.9707Z" fill="#FFB255"/>
<path d="M106.975 23.74C101.897 23.4381 99.1465 27.3459 100.373 33.1274C100.571 34.0643 100.395 34.0605 100.602 35.4646C100.809 36.8674 101.36 40.1377 101.36 40.1377C101.36 40.1377 100.707 40.4909 100.386 42.9545C100.066 45.4182 101.63 55.5434 103.737 56.8998C105.844 58.2575 116.659 53.959 118.687 51.2172C120.714 48.4768 121.411 46.2498 121.973 42.6351L125.327 35.1364C126.253 29.7194 122.266 24.6994 116.78 24.3737L106.973 23.74H106.975Z" fill="#936758"/>
<path d="M105.781 34.2331L100.345 34.1279L101.36 40.1374C102.59 40.4518 102.888 42.6537 102.725 43.8423C104.311 43.2185 106.068 40.6121 105.781 38.29V34.2331Z" fill="#593426"/>
<path d="M105.045 36.4619L104.458 36.502C104.906 38.6826 105.65 37.8772 102.726 42.5002C102.178 43.2492 101.992 44.3314 103.566 44.9501L107.161 46.1663L104.678 44.6758C104.048 44.4052 103.421 44.0245 103.674 43.4158C106.505 37.9774 105.841 38.1678 105.044 36.4632L105.045 36.4619Z" fill="#593426"/>
<path d="M100.95 34.5874L105.074 34.6237C105.462 34.6274 105.779 34.4521 105.781 34.2329C105.782 34.0325 105.518 33.8609 105.166 33.8334L101.044 33.5165C100.625 33.4839 100.255 33.6655 100.252 33.9035L100.25 34.1841C100.247 34.4032 100.561 34.5836 100.95 34.5874Z" fill="#211715"/>
<path d="M100.174 31.949C100.053 26.4819 100.477 26.9303 105.365 29.3451C114.984 23.4972 120.586 31.051 119.623 34.0683C118.858 36.4781 117.103 37.3548 119.195 38.8841C121.286 40.4134 118.795 41.7473 120.237 43.0198C121.678 44.2911 123.943 39.8936 123.943 39.8936C132.54 32.2108 125.812 19.8699 116.06 16.7562C104.738 13.1415 97.2684 24.0044 100.175 31.9503L100.174 31.949Z" fill="#211715"/>
<path d="M100.083 38.29C99.6523 42.9543 104.024 41.2572 105.959 38.29H100.083Z" fill="#211715"/>
<path d="M107.18 34.2607L107.647 39.0716L115.29 38.29L114.428 34.6365L107.18 34.2607Z" fill="#593426"/>
<path d="M113.426 35.3894L108.047 34.8484C107.541 34.797 107.152 34.5352 107.179 34.2622C107.204 34.0117 107.572 33.8363 108.035 33.8526L113.45 34.0442C114 34.0643 114.457 34.3423 114.427 34.6379L114.392 34.9886C114.364 35.2617 113.931 35.442 113.425 35.3907L113.426 35.3894Z" fill="#211715"/>
<path d="M105.679 38.29C108.942 42.9706 114.071 41.9974 115.29 38.29H105.679Z" fill="#211715"/>
<path d="M101.767 38.29L100.344 40.3642C100.446 40.6159 100.646 40.7787 100.646 40.7787L102.178 38.29H101.767Z" fill="white"/>
<path d="M103.233 38.29L101.517 41.1858L101.894 41.1795L103.566 38.29H103.233Z" fill="white"/>
<path d="M108.959 38.29L107.469 40.1913L107.843 40.4406L109.379 38.29H108.959Z" fill="white"/>
<path d="M110.483 38.29L108.674 40.9278L109.141 41.0981L110.863 38.29H110.483Z" fill="white"/>
<path d="M106.686 49.6393C106.909 49.4101 107.113 49.1646 107.297 48.9028L107.49 48.6285C107.664 48.3818 107.976 48.2753 108.264 48.3642C108.536 48.4481 108.83 48.3592 109.009 48.1388L109.325 47.7505C109.506 47.5263 109.808 47.4386 110.081 47.5288C110.621 47.7067 111.203 47.7117 111.747 47.5438L113.159 47.1055C113.159 47.1055 113.349 49.6731 110.264 50.8354L109.335 51.1623C108.613 51.4166 107.819 51.4529 107.102 51.1874C106.285 50.8842 106.136 50.4521 106.39 49.9399L106.684 49.638L106.686 49.6393Z" fill="#593426"/>
<path d="M106.393 49.9401C106.084 51.9053 112.845 49.0033 113.16 47.1045C111.105 48.4409 108.486 49.8838 106.393 49.9401Z" fill="white"/>
<path d="M105.1 39.365C105.605 38.874 105.957 38.7713 106.551 39.365L106.973 38.2891H104.84L105.1 39.365Z" fill="#211715"/>
<path d="M119.96 18.5596C130.245 24.4162 136.715 40.3768 138.071 64.7278C138.337 69.4974 138.084 75.1223 136.78 80.2112C135.631 84.6964 133.166 88.7345 129.744 91.8544L123.111 97.904L120.743 43.8663L119.959 18.5596H119.96Z" fill="#211715"/>
<path d="M114.483 39.7768L121.045 42.5623L121.982 41.6004L115.29 38.29L114.483 39.7768Z" fill="#211715"/>
<path d="M123.191 39.8662C119.998 40.0316 121.917 41.9579 119.993 43.372C119.56 43.6914 119.338 44.1485 119.386 44.6533L121.091 48.8316C121.372 49.4128 122.674 49.4015 123.019 49.0232C123.901 48.0576 123.49 45.5025 124.034 44.4817C124.976 42.7094 126.215 39.7097 123.191 39.8662Z" fill="#936758"/>
<path d="M121.876 46.5783C121.93 46.5946 121.987 46.6008 122.04 46.5908C122.441 46.5207 123.123 46.2138 122.831 45.545C122.788 45.4473 122.718 45.3245 122.64 45.188C122.372 44.7196 122.004 44.0771 122.451 43.7589C122.933 43.4145 122.989 42.9523 123.039 42.5452C123.103 42.0142 123.149 41.6297 123.998 41.527C124.133 41.5107 124.202 41.4105 124.15 41.304C124.097 41.1976 123.945 41.1237 123.81 41.1399C122.654 41.2802 122.58 41.8902 122.515 42.43C122.469 42.817 122.424 43.1815 122.048 43.4508C121.389 43.9217 121.854 44.7346 122.162 45.2732C122.232 45.3947 122.295 45.5036 122.334 45.5913C122.54 46.0648 121.896 46.1963 121.822 46.2088C121.691 46.2326 121.633 46.3365 121.693 46.4418C121.73 46.5044 121.799 46.5532 121.876 46.577V46.5783Z" fill="#593426"/>
<path d="M15.5667 134.618L31.4921 142.055C38.7929 142.873 34.7374 130.774 35.5552 123.472L40.4099 80.1617C41.2278 72.8609 30.1983 67.7169 30.1983 67.7169C13.624 67.6731 8.54139 77.8697 7.72226 85.1717L3.82827 116.592C3.5928 122.113 3.74434 129.278 15.5667 134.618Z" fill="#7190AA"/>
<path d="M52.29 79.921C55.7669 73.8827 58.2193 73.1299 61.1088 76.8097C67.6744 85.1714 66.2228 91.2899 66.5033 96.9324L69.0584 128.011L75.2194 150.331C77.0581 154.178 72.5065 165.722 65.0617 159.199L56.6562 132.305C55.4538 130.869 54.8626 128.869 55.0668 126.925C56.1489 116.627 47.5092 85.9367 52.29 79.921Z" fill="#E5A345"/>
<path d="M74.7456 163.542L78.6334 171.084L77.5312 178.671L70.9455 182.036L66.4528 179.107L66.2888 166.163L64.5603 159.724C63.6798 156.446 66.4128 153.326 69.7782 153.767C71.8812 154.043 73.5482 155.675 73.8676 157.772L74.7469 163.541L74.7456 163.542Z" fill="#CE6E5B"/>
<path d="M58.4941 275.792L58.4453 303.79L55.9841 307.122C55.5383 315.287 63.3213 308.03 69.3445 305.687C65.3465 301.808 66.3072 274.449 66.3072 274.449L58.4929 275.792H58.4941Z" fill="#CE6E5B"/>
<path d="M55.5411 305.471C53.234 309.378 55.0413 317.244 55.0413 317.244C75.1013 317.499 88.5456 321.635 88.5957 317.672C88.6245 315.425 88.4955 311.827 80.4532 311.724C74.4726 311.647 72.7592 300.833 67.5363 300.772C64.8334 300.737 63.8138 300.806 62.6502 302.058C60.4997 304.374 62.0228 305.681 60.9556 306.73C60.496 307.184 56.2751 306.719 55.5411 305.47V305.471Z" fill="#56384D"/>
<path d="M88.5759 319.245C87.3021 320.824 74.5767 319.484 63.0537 318.978C62.5578 318.957 60.5851 318.883 60.0978 318.868C58.7238 318.827 57.3849 318.804 56.1036 318.804C55.4085 318.804 54.8449 318.47 54.8499 318.066L54.8649 316.87C61.0998 316.95 64.846 316.744 70.9281 317.394C77.9647 318.146 86.6746 318.383 88.6022 317.3L88.5771 319.245H88.5759Z" fill="#D3B7B3"/>
<path d="M34.5428 276.547L32.0816 302.615L33.0473 308.416C33.4932 316.581 26.6183 312.8 20.5938 310.455C25.2092 304.431 24.0181 275.626 24.0181 275.626L34.5428 276.547Z" fill="#CE6E5B"/>
<path d="M16.1464 316.679C15.6742 320.228 20.6429 319.703 26.1889 319.703C31.735 319.703 36.2314 320.264 36.2314 316.679C36.2314 313.095 36.5345 310.187 30.9885 310.187C25.4424 310.187 17.0106 310.187 16.1476 316.679H16.1464Z" fill="#56384D"/>
<path d="M19.3955 311.967C19.3955 315.079 23.6853 313.246 27.315 313.246C30.9448 313.246 34.3967 314.262 34.3967 311.149C34.3967 308.037 30.946 304.984 27.315 304.984C23.6841 304.984 19.3955 308.855 19.3955 311.968V311.967Z" fill="#56384D"/>
<path d="M16.1083 319.702H36.1921C36.6065 319.702 36.9424 319.366 36.9424 318.952V318.338C36.9424 317.924 36.6065 317.588 36.1921 317.588H16.1083C15.694 317.588 15.3581 317.924 15.3581 318.338V318.952C15.3581 319.366 15.694 319.702 16.1083 319.702Z" fill="#D3B7B3"/>
<path d="M63.2161 126.62L70.438 168.992L71.5113 228.872C71.5189 230.828 71.4074 232.783 71.1769 234.726L67.4282 296.712L57.7915 295.221C57.7915 275.897 50.2828 261.086 50.2828 250.668L48.2863 219.483L38.1436 129.931L63.2161 126.619V126.62Z" fill="#D3B7B3"/>
<path d="M21.6775 132.694C17.5004 147.758 14.0774 151.181 14.4168 159.871L18.664 226.843L22.8048 297.887L32.6043 298.105L40.2871 240.731L45.3723 214.794L49.1698 173.143C51.12 163.006 57.018 138.068 57.018 127.438L21.6775 132.694Z" fill="#E8D3D1"/>
<path d="M28.5735 29.6436L22.9385 76.5308L56.7584 74.1974L56.2398 32.5418L28.5735 29.6436Z" fill="#2B1816"/>
<path d="M50.9846 66.6068C47.0918 62.674 40.4962 60.8967 32.3362 60.3682L40.1367 68.7486L50.9858 66.6068H50.9846Z" fill="#8E510E"/>
<path d="M52.1472 34.874L30.9688 35.4715L34.9992 52.4077C35.5604 56.4796 35.0544 61.0738 32.3953 64.2088L31.5373 68.1378C31.5373 68.1378 55.6542 76.1713 48.9032 72.3061C46.5999 70.9873 46.4709 64.0935 48.0716 61.2979L52.1459 34.874H52.1472Z" fill="#CE6E5B"/>
<path d="M38.7316 58.6507C35.3411 55.4292 35.6066 50.8564 35.6066 50.8564L34.418 28.5645L48.0727 61.2972C47.7746 61.6955 47.593 62.4057 47.3638 63.1622C47.3638 63.1622 42.1221 61.8709 38.7316 58.6494V58.6507Z" fill="#A54232"/>
<path d="M51.7445 26.2444C57.2241 26.158 60.0022 30.4942 58.409 36.6602C58.151 37.6584 58.3414 37.6634 58.0533 39.1652C57.7652 40.6657 57.0175 44.1602 57.0175 44.1602C57.0175 44.1602 57.7026 44.571 57.9318 47.2388C58.161 49.9066 56.0017 60.7319 53.6696 62.0934C51.3374 63.4549 39.8983 58.3196 37.8442 55.2736C35.7902 52.2275 35.1451 49.7976 34.7105 45.8798L31.4527 37.6497C30.7112 31.7755 35.2378 26.5588 41.1596 26.4661L51.7457 26.2444H51.7445Z" fill="#CE6E5B"/>
<path d="M45.6323 53.5912C48.7723 59.1297 51.9086 59.9639 55.0386 54.493C55.1275 54.3364 54.9822 54.1536 54.8082 54.1974C51.8297 54.9539 48.85 54.1949 45.8691 53.2931C45.6937 53.2405 45.5421 53.4309 45.6323 53.5912Z" fill="#AA3737"/>
<path d="M48.0319 54.5082C49.6614 56.6036 52.0875 57.31 54.0952 54.8614C54.1992 54.7349 54.0739 54.5545 53.9174 54.6046C52.4031 55.0893 49.8267 54.8125 48.2035 54.2552C48.0519 54.2038 47.9329 54.3817 48.0306 54.5082H48.0319Z" fill="white"/>
<path d="M54.3314 39.4775L58.1403 39.5903L57.018 44.1606C56.9379 45.3993 55.8218 46.1058 55.0841 45.6837L53.6375 45.6711C52.9236 44.4186 52.8071 42.5161 53.2254 40.0311C53.5461 39.7105 53.6638 39.5489 54.3326 39.4788L54.3314 39.4775Z" fill="#A54232"/>
<path d="M41.7172 40.1792L48.5107 40.1842C49.1507 40.1842 49.6692 39.9449 49.6692 39.6493C49.6692 39.3788 49.2321 39.1496 48.6497 39.117L41.8562 38.7325C41.166 38.6937 40.5586 38.9417 40.5586 39.2623V39.6418C40.5586 39.9374 41.0758 40.1779 41.7159 40.1779L41.7172 40.1792Z" fill="#2B1816"/>
<path d="M44.4406 46.6739C45.0907 47.0459 45.9198 46.8217 46.2931 46.1704C46.6651 45.5204 46.4409 44.6912 45.7896 44.318C45.1395 43.946 44.3104 44.1714 43.9371 44.8215C43.5651 45.4715 43.7906 46.3007 44.4406 46.6739Z" fill="#2B1816"/>
<path d="M48.1954 44.225C48.2693 44.5544 47.2635 44.3552 46.7212 44.3239C45.5864 44.3264 45.3986 44.379 44.7448 44.5481C43.0564 45.0429 42.9813 45.6365 42.6093 45.4675C42.1797 45.2721 43.4509 44.0033 45.8019 43.481C47.1596 43.1791 48.1315 43.9357 48.1954 44.225Z" fill="#2B1816"/>
<path d="M53.2244 40.0293L54.0686 40.8735C53.7254 42.2337 53.7355 44.3993 53.6365 45.6693C52.6558 45.6693 52.4216 46.417 52.9827 47.9037C55.0656 48.7592 54.621 51.8992 52.632 51.5222L48.9033 50.8221L52.2462 51.0763C53.009 51.1339 53.629 50.4501 53.4937 49.6961C53.2257 48.2081 51.5523 48.6076 51.5285 47.1272C51.5198 46.5786 51.5511 46.4007 51.5185 45.8046C51.382 43.2582 52.379 40.8885 53.2231 40.0293H53.2244Z" fill="#A54232"/>
<path d="M58.0465 40.0146L53.3947 39.8781C52.9563 39.8656 52.6069 39.6639 52.6144 39.4272C52.6206 39.2105 52.9262 39.0377 53.3245 39.0227L57.9851 38.8573C58.4585 38.841 58.8681 39.0515 58.8606 39.3082L58.8518 39.6113C58.8443 39.8481 58.4848 40.0284 58.0465 40.0159V40.0146Z" fill="#2B1816"/>
<path d="M59.0365 34.4132C59.4235 28.534 58.5881 29.9844 53.2149 32.3528C43.136 25.6056 36.7496 33.4738 37.6438 36.7666C38.354 39.3956 40.2015 40.4227 37.8781 41.9708C35.5547 43.5188 38.1737 45.0719 36.563 46.3733C34.9522 47.6746 32.7216 42.8337 32.7216 42.8337C23.8288 28.5653 30.085 22.0824 40.8239 19.5648C55.1488 16.2069 62.5397 25.9977 59.0365 34.4144V34.4132Z" fill="#2B1816"/>
<path d="M57.4524 25.2715C60.5322 25.2715 62.8193 28.6933 62.8193 34.6352C55.1879 35.8989 45.1666 35.6835 33.8027 34.6352L37.0504 25.4869L57.4511 25.2715H57.4524Z" fill="#2B1816"/>
<path d="M14.7734 76.4108C19.9638 72.1661 23.8127 71.223 30.2919 69.0336L30.1992 67.7185C30.1529 67.066 30.4246 66.4322 30.9281 66.0151C31.5506 65.5003 31.8074 64.6637 31.582 63.8884L31.493 63.5828C31.364 63.1419 31.3903 62.6697 31.5644 62.2451L32.336 60.3701C38.3818 64.9856 44.6066 66.9332 50.9844 66.6088L50.5898 67.4279C50.3819 67.8588 50.4633 68.3736 50.794 68.7205L50.8591 68.7894C51.2399 69.1889 51.2825 69.8039 50.9618 70.2523L50.5823 70.7821C55.1088 72.4479 59.177 74.3931 59.8946 76.1841L67.1854 94.0422C69.3021 100.039 63.845 106.247 63.845 111.165V118.877C63.8989 122.453 67.4184 132.03 64.8433 131.797C62.1229 131.551 51.4954 133.354 48.8977 134.199L19.3476 141.944C13.1001 143.411 20.1304 130.321 22.3185 124.289C24.1935 119.118 25.6489 113.883 25.1078 111.166L14.7734 76.4133V76.4108Z" fill="#FFC269"/>
<path d="M33.6664 42.8164C37.0957 43.1446 34.9402 45.1285 36.9442 46.7417C37.3964 47.105 37.6118 47.6085 37.5379 48.1495L35.5064 52.5671C35.1757 53.1783 33.7754 53.1069 33.4209 52.6823C32.5179 51.6014 33.079 48.871 32.5429 47.745C31.6123 45.7936 30.42 42.5058 33.6677 42.8164H33.6664Z" fill="#CE6E5B"/>
<path d="M34.7677 50.1034C34.7088 50.1185 34.6474 50.1222 34.5898 50.1097C34.1615 50.0158 33.4438 49.6525 33.7882 48.9474C33.8383 48.8434 33.9197 48.7144 34.0112 48.5716C34.3218 48.0794 34.7476 47.4068 34.2817 47.0411C33.7795 46.6478 33.7407 46.1481 33.7068 45.7059C33.663 45.131 33.6305 44.7152 32.7224 44.5649C32.5771 44.5411 32.5082 44.4309 32.5696 44.3182C32.6309 44.2067 32.7975 44.134 32.9428 44.1578C34.1815 44.3632 34.2316 45.0233 34.2767 45.607C34.3093 46.0253 34.3393 46.4211 34.7313 46.728C35.4177 47.2665 34.8791 48.1195 34.5222 48.6831C34.442 48.8109 34.3681 48.9248 34.3231 49.0175C34.0788 49.5173 34.7652 49.6889 34.8441 49.7064C34.9844 49.7377 35.042 49.8529 34.9719 49.9632C34.9305 50.0283 34.8541 50.0784 34.769 50.1009L34.7677 50.1034Z" fill="#A54232"/>
<path d="M55.0217 45.5068C54.7223 46.0304 54.0548 46.2107 53.5325 45.9114C53.009 45.612 52.8286 44.9444 53.1279 44.4222C53.4273 43.8986 54.0948 43.7183 54.6171 44.0176C55.1407 44.3169 55.321 44.9845 55.0217 45.5068Z" fill="#2B1816"/>
<path d="M52.9613 44.6907C53.0214 45.1203 53.6339 44.4991 53.9908 44.2586C54.7586 43.8353 54.9039 43.8303 55.4012 43.7889C56.7063 43.7576 56.9542 44.4515 57.1496 44.107C57.3751 43.7075 56.095 42.6404 54.3327 42.8859C53.3145 43.0274 52.9099 44.3137 52.9625 44.6907H52.9613Z" fill="#2B1816"/>
<path d="M14.9593 121.925L22.1198 118.875C35.2209 111.637 32.493 81.065 22.9903 71.5623C22.5619 70.3198 28.9923 67.7334 30.2911 69.0322C43.4248 87.226 40.7143 125.107 14.958 121.924L14.9593 121.925Z" fill="#899BAD"/>
<path d="M1.23294 110.898L5.39749 115.669C9.94406 117.499 15.1131 115.296 16.943 110.749L28.6839 81.5773C23.7616 77.2825 18.7654 72.3264 14.7724 76.4108C11.4433 80.0944 6.00245 97.7033 1.23169 110.898H1.23294Z" fill="#FFC269"/>
<path d="M1.23242 110.898L5.39697 115.668C19.346 121.005 22.8317 99.6039 24.6616 95.0574C14.7732 90.6599 3.09614 104.1 1.23242 110.898Z" fill="#E5A345"/>
<path d="M1.18288 115.197C3.36974 118.577 11.4195 119.546 14.8 117.359L23.3083 111.855C26.6887 109.668 27.6569 105.154 25.47 101.774C23.2832 98.3935 18.7692 97.4253 15.3887 99.6122L6.88049 105.116C3.5 107.303 -1.00523 111.817 1.18163 115.197H1.18288Z" fill="#FFC269"/>
<path d="M24.6627 95.0576L28.3788 88.2365L34.6927 85.1729L40.627 88.4319L40.7171 93.3404L30.9978 100.116L27.0086 104.736C24.9783 107.087 21.2095 106.619 19.8143 103.845C18.9425 102.11 19.322 100.009 20.7461 98.6898L24.6652 95.0576H24.6627Z" fill="#CE6E5B"/>
<path d="M193.531 280.121H186.095V310.97H193.531V280.121Z" fill="#E8D3D1"/>
<path d="M197.594 314.703H178.566L182.874 309.155C182.874 304.17 182.607 298.557 187.592 298.557H195.049C197.45 298.557 196.495 299.532 197.041 304.478L197.594 314.703Z" fill="#56384D"/>
<path d="M215.743 288.292L216.421 296.792L213.569 303.771C213.229 311.813 222.312 305.913 228.252 303.531C226.218 300.614 225.778 294.083 225.935 286.201L215.742 288.292H215.743Z" fill="#FFC99F"/>
<path d="M196.162 303.931C197.618 306.46 198.63 309.924 198.63 314.627C175.475 314.627 171.593 319.467 156.267 314.627C156.267 311.451 157.001 307.369 165.983 307.369C174.964 307.369 172.581 302.979 181.932 301.526C188.028 306.386 192.26 307.734 193.831 304.066C194.254 303.077 195.626 302.998 196.163 303.931H196.162Z" fill="#D1C0B4"/>
<path d="M196.947 318.333C174.366 318.42 168.858 320.203 157.851 318.585C156.945 318.452 156.269 317.692 156.269 316.783V314.626C168.214 317.469 180.625 314.626 198.632 314.626V316.654C198.632 317.578 197.878 318.33 196.949 318.333H196.947Z" fill="#AD9B8E"/>
<path d="M180.56 306.591C178.607 303.844 176.604 301.782 174.528 300.754C173.97 300.479 174.004 299.676 174.58 299.443L178.577 297.827C181.367 296.699 184.548 298.023 185.714 300.798L188.12 305.739L180.561 306.59L180.56 306.591Z" fill="#D1C0B4"/>
<path d="M213.568 303.771C210.521 308.413 212.871 316.087 212.871 316.087C230.657 316.087 242.624 319.576 242.624 316.087C242.624 313.497 240.955 311.113 235.338 309.599C230.035 306.112 235.225 301.441 223.762 301.441C216.842 301.441 216.549 312.168 213.568 303.77V303.771Z" fill="#D1C0B4"/>
<path d="M242.623 318.752C241.281 321.685 225.05 318.456 213.83 318.714C213.214 318.727 212.71 318.229 212.71 317.616V315.797C218.238 315.797 221.558 315.41 226.957 316.281C233.203 317.29 240.928 317.48 242.625 315.794V318.751L242.623 318.752Z" fill="#AD9B8E"/>
<path d="M227.666 306.112C226.177 304.736 226.713 302.431 229.275 299.201C229.623 298.761 229.32 298.111 228.759 298.111H223.643C219.465 298.111 216.925 302.793 219.281 306.244C219.434 306.467 219.597 306.693 219.768 306.924L227.666 306.112Z" fill="#D1C0B4"/>
<path d="M206.668 58.2921L200.405 63.6428V41.6427L218.053 37.8301L219.222 51.7616C219.59 56.1591 211.082 58.2921 206.668 58.2921Z" fill="#F2AF8C"/>
<path d="M225.427 54.831C223.313 56.9452 213.289 68.5383 213.289 68.5383L202.865 66.6746C202.865 66.6746 199.7 64.1897 199.566 62.6065C198.823 61.0835 199.102 59.8234 200.406 58.8265C200.406 54.5329 218.517 52.966 218.517 43.3594L219.869 49.588C220.316 52.718 224.483 54.479 225.427 54.831Z" fill="#FFC99F"/>
<path d="M193.478 16.5043L193.939 27.887L193.211 33.4405L194.316 37.1867L194.571 43.5031C194.666 45.8453 195.994 47.9607 198.063 49.0642L202.93 51.6594L215.35 46.0344C216.649 45.4457 217.484 44.1519 217.484 42.7253L217.216 12.0654H193.212L193.48 16.5043H193.478Z" fill="#FFC99F"/>
<path d="M193.864 28.5186C190.429 35.1092 194.192 33.5674 194.192 44.1785C194.192 45.5976 194.74 46.9628 195.743 47.9661L198.306 50.5287C199.867 52.0905 201.985 52.9673 204.195 52.9673C205.986 52.9673 207.728 52.3899 209.165 51.3215L215.96 46.2664C216.873 45.5876 217.488 44.5806 217.674 43.4583L219.884 30.1794L217.501 31.125C216.276 31.611 215.504 32.8322 215.59 34.1473L216.126 42.2998C216.096 42.7883 215.836 43.2341 215.422 43.4984L214.302 44.2161C213.68 44.6156 212.851 44.2549 212.718 43.5272L212.362 37.3649C212.321 36.651 211.719 36.0999 211.003 36.1225L204.376 36.3341C203.557 36.2728 200.626 36.8151 199.895 37.1896L199.514 37.7131C198.683 38.8554 198.153 40.1893 197.972 41.5909L197.329 46.5846C197.316 46.7937 197.063 46.8902 196.915 46.7424L196.096 45.9232C195.846 45.6727 195.692 45.3408 195.663 44.9864L194.909 35.8356C194.888 35.5764 194.559 35.0654 194.187 34.5756C193.566 33.7577 193.306 32.7207 193.442 31.7024L193.867 28.5186H193.864Z" fill="#4B2144"/>
<path d="M200.727 48.1153L200.416 47.8109C200.138 47.5367 199.981 47.1659 199.981 46.7789L200.405 41.6449C200.405 41.3543 200.623 41.1088 200.916 41.0687L210.023 38.5187C210.476 38.4573 210.864 38.8105 210.896 39.2589L210.392 45.098C210.431 45.6366 209.805 46.234 209.418 46.6148L208.17 47.8423C208.059 47.9512 207.111 48.0364 206.982 47.9487L205.668 46.7914C204.4 45.9309 202.686 46.095 201.611 47.1784L201.191 48.1128C201.065 48.2406 200.856 48.2418 200.728 48.1153H200.727Z" fill="#FFC99F"/>
<path d="M202.977 43.1277C206.421 44.7472 208.527 42.9987 210.184 40.1192C210.419 39.7109 209.923 39.2725 209.54 39.548C207.504 41.006 205.377 42.0017 203.114 42.296C202.683 42.3524 202.585 42.9423 202.977 43.1277Z" fill="white"/>
<path d="M199.26 23.334C203.072 26.5554 201.455 30.0161 199.775 34.3297C198.511 36.9449 203.876 36.3424 203.876 36.3424L199.895 37.1866C198.308 37.1866 197.829 35.6961 198.303 34.4975C199.316 31.35 204.344 26.5617 193.865 24.2646C193.908 23.7235 196.388 23.5544 199.261 23.334H199.26Z" fill="#F2AF8C"/>
<path d="M193.523 24.0509C195.123 23.972 196.787 23.9808 198.561 24.3916C198.937 24.4793 199.313 24.3165 199.297 24.0021L199.26 23.3358C199.252 23.1692 199.128 23.0064 198.926 22.975C197.114 22.6945 195.499 22.5066 193.184 23.2932C192.988 23.3596 192.863 23.5236 192.873 23.6952C192.888 23.962 193.192 24.0672 193.523 24.0509Z" fill="#4B2144"/>
<path d="M202.911 24.1562C202.911 26.6511 204.871 30.0166 208.114 30.0166L208.051 28.5499L211.691 23.6689L202.911 24.1562Z" fill="#F2AF8C"/>
<path d="M209.919 28.1353C210.128 28.9582 209.63 29.7936 208.809 30.0028C207.986 30.2119 207.15 29.7147 206.941 28.8918C206.732 28.0689 207.229 27.2335 208.052 27.0243C208.875 26.8152 209.711 27.3124 209.92 28.1353H209.919Z" fill="#4B2144"/>
<path d="M199.815 29.1414C199.47 29.9167 198.56 30.2636 197.786 29.9179C197.011 29.5723 196.664 28.6629 197.01 27.8889C197.355 27.1136 198.265 26.7667 199.039 27.1123C199.814 27.458 200.161 28.3673 199.815 29.1414Z" fill="#4B2144"/>
<path d="M194.947 28.3985C195.022 28.7768 195.721 28.158 196.129 27.905C197.01 27.4466 197.177 27.4278 197.751 27.3402C199.257 27.1773 199.552 27.7735 199.773 27.4454C200.028 27.0646 198.536 26.2417 196.505 26.6425C195.331 26.8742 194.88 28.0679 194.947 28.3985Z" fill="#4B2144"/>
<path d="M205.346 27.2868C205.312 27.6701 206.353 27.2906 206.924 27.1728C208.129 27.0012 208.336 27.0326 209.052 27.1227C210.91 27.4221 211.069 28.0809 211.441 27.8329C211.871 27.5461 210.355 26.3086 207.788 26.0794C206.307 25.9466 205.375 26.9499 205.345 27.2868H205.346Z" fill="#4B2144"/>
<path d="M211.238 23.2669C208.566 22.8297 205.949 22.8611 203.388 23.3608C203.079 23.4209 202.868 23.6577 202.897 23.9006L202.986 24.6647C203.02 24.9565 203.384 25.1456 203.749 25.0517C205.985 24.4755 208.439 24.2401 211.038 24.2238C211.415 24.2213 211.723 23.962 211.69 23.6714C211.666 23.4723 211.486 23.3095 211.238 23.2694V23.2669Z" fill="#4B2144"/>
<path d="M193.209 30.2605C192.327 22.728 191.861 24.1258 191.861 18.6874C191.861 16.7586 192.106 14.6657 192.549 12.6153C192.867 11.1449 192.004 7.56778 192.509 6.21758C193.11 4.60813 195.114 5.26695 195.928 4.06455C197.243 2.12068 197.887 0.876953 199.559 0.876953C202.351 1.20135 202.093 4.23113 204.269 4.23113C205.344 4.23113 206.209 3.6074 207.905 3.99317C209.366 4.77097 209.057 5.71284 210.029 5.71284C215.552 6.10111 223.948 8.62614 223.948 20.486C223.948 27.5163 224.122 33.4419 216.753 33.4419C216.753 20.4948 213.903 24.583 213.903 20.5236C213.903 17.971 218.304 16.8212 216.057 14.5743C212.834 11.3516 205.066 14.8235 199.82 15.3245C196.458 14.3977 193.838 11.4693 193.838 14.6106C194.032 21.2839 194.944 28.3993 193.207 30.2618L193.209 30.2605Z" fill="#4B2144"/>
<path d="M220.873 25.9258C222 25.9258 223.156 26.3641 223.027 30.2544C223.027 32.0392 222.077 33.6925 221.235 34.7884C220.011 36.3804 220.982 37.7994 219.655 37.7994C218.001 37.7994 218.243 33.9931 218.243 32.1582C218.243 32.1582 217.728 25.9258 220.874 25.9258H220.873Z" fill="#FFC99F"/>
<path d="M219.828 35.1263C219.582 35.1263 219.383 34.9271 219.383 34.6817C219.383 34.0191 219.739 33.6383 220.024 33.3327C220.295 33.0434 220.448 32.8643 220.448 32.5274C220.448 32.3357 220.428 32.322 220.158 32.2042C219.839 32.0652 219.302 31.831 219.302 30.9905C219.302 29.4299 219.506 26.8135 220.875 26.8135C222.444 26.8135 222.444 28.6471 222.444 29.2496C222.444 29.4951 222.245 29.693 221.999 29.693C221.754 29.693 221.555 29.4938 221.555 29.2496C221.555 27.7015 221.129 27.7015 220.873 27.7015C220.698 27.7015 220.188 28.5106 220.188 30.9905C220.188 31.2486 220.245 31.2736 220.511 31.3901C220.82 31.5241 221.334 31.7483 221.334 32.5274C221.334 33.2313 220.966 33.6246 220.671 33.9402C220.406 34.222 220.268 34.3836 220.268 34.6817C220.268 34.9271 220.069 35.1263 219.824 35.1263H219.828Z" fill="#F2AF8C"/>
<path d="M181.598 117.053L195.331 111.348V74.3881L178.489 73.9297L162.997 110.533C162.079 115.868 174.104 121.625 181.599 117.053H181.598Z" fill="#5F9E5C"/>
<path d="M179.583 152.091L179.939 227.638L181.853 265.262C182.099 268.002 183.689 270.442 186.095 271.776C191.184 274.596 197.52 271.441 198.335 265.68L201.52 231.016L200.65 221.15L213.68 144.311L179.583 152.092V152.091Z" fill="#FFC99F"/>
<path d="M180.463 227.79C178.813 227.274 177.256 228.948 177.469 231.011L181.854 273.535C182.101 276.879 183.69 279.856 186.096 281.483C191.185 284.925 197.521 281.075 198.337 274.044L203.631 240.342C204.078 237.5 202.635 234.723 200.337 234.006L180.465 227.788L180.463 227.79Z" fill="#56384D"/>
<path d="M189.856 144.829L205.982 216.682L207.281 240.331L215.743 288.291L225.934 286.201L229.118 234.912V219.449L224.974 144.829H189.856Z" fill="#FFC99F"/>
<path d="M176.085 153.506V220.926L207.469 222.59L216.384 144.309L176.085 153.506Z" fill="#3B73AB"/>
<path d="M194.157 144.828L199.47 226.674L231.707 224.28L230.153 149.818L194.157 144.828Z" fill="#5093C9"/>
<path d="M176.084 157.626C175.369 122.316 177.224 100.151 176.877 86.3113C176.687 79.613 176.861 71.6458 184.978 66.3791C186.252 65.5524 200.404 58.8265 200.404 58.8265C200.404 58.8265 197.139 63.9392 203.978 64.9537C214.941 66.5795 223.95 55.4648 225.425 54.8311C234.773 57.8997 244.969 61.4868 248.296 67.0654C248.296 80.2292 238.513 89.8897 234.79 99.4851C231.722 120.533 230.151 134.014 230.151 149.819L176.083 157.626H176.084Z" fill="#6FB57C"/>
<path d="M212.732 97.8948C221.546 86.5309 227.046 81.3393 229.229 82.3187L223.468 107.257L212.732 97.8948Z" fill="#5F9E5C"/>
<path d="M197.937 60.0039C199.16 59.4202 200.405 58.8265 200.405 58.8265C200.405 58.8265 197.14 63.9392 203.978 64.9537C214.941 66.5795 223.95 55.4648 225.426 54.8311C226.16 55.0678 226.601 55.153 227.568 55.5325C217.411 69.8911 195.945 72.8119 197.937 60.0039Z" fill="#5F9E5C"/>
<path d="M188.972 110.492C198.865 111.079 206.441 107.598 213.681 102.83C207.138 112.522 198.841 115.018 188.972 110.492Z" fill="#FFC99F"/>
<path d="M184.98 101.176C190.017 105.152 195.336 106.099 200.957 106.232C193.873 108.986 188.538 107.248 184.98 101.176Z" fill="#FFC99F"/>
<path d="M215.635 109.374L214.69 97.543L173.654 104.89L174.11 107.069C173.413 111.624 175.381 119.872 179.703 118.272L215.637 109.373L215.635 109.374Z" fill="#FFC99F"/>
<path d="M189.731 97.0114L178.18 91.7885C177.409 91.5543 176.578 91.8775 176.168 92.5713L174.431 95.5122C172.904 98.0974 173.622 101.423 176.08 103.149L181.937 107.258L194.223 102.484L189.731 97.0127V97.0114Z" fill="#F2AF8C"/>
<path d="M189.731 97.0114L178.18 91.7885C177.409 91.5543 176.578 91.8775 176.168 92.5713L174.431 95.5122C172.904 98.0974 173.622 101.423 176.08 103.149L189.73 97.0127L189.731 97.0114Z" fill="#FFC99F"/>
<path d="M223.021 97.0113C217.157 96.3775 211.207 95.9304 206.502 97.119L208.746 107.751L217.019 107.503C226.008 109.367 222.951 103.284 223.021 97.01V97.0113Z" fill="#F2AF8C"/>
<path d="M221.884 96.8912C216.019 96.2574 211.207 95.9305 206.502 97.1192L208.746 107.752C216.755 107.158 219.898 102.754 221.884 96.8912Z" fill="#FFC99F"/>
<path d="M188.972 110.491L217.019 107.504C218.539 107.391 219.824 105.808 220.232 104.34C220.861 102.076 221.885 98.6804 223.095 95.0231C225.081 89.0224 248.069 89.8615 244.619 102.832C242.646 110.256 239.81 117.326 236.039 121.468C233.073 124.727 228.477 125.957 224.24 124.749L186.496 114.352L188.972 110.491Z" fill="#FFC99F"/>
<path d="M219.232 104.341C219.232 104.341 225.465 85.9819 229.621 78.7199C231.982 74.5942 245.629 62.212 248.298 67.0654C253.399 76.3414 248.131 106.317 240.272 120.199C238.101 124.033 219.232 104.341 219.232 104.341Z" fill="#6FB57C"/>
<path d="M208.747 107.752L195.495 116.83L186.496 114.351L188.972 110.492L208.747 107.752Z" fill="#F2AF8C"/>
<path d="M208.747 107.752C209.344 105.819 209.665 100.312 206.502 97.1191L178.204 102.685C172.326 103.998 165.006 104.546 162.995 110.533C161.408 115.124 160.578 121.223 167.587 123.256C170.469 124.092 173.555 123.862 176.343 122.753L208.747 107.753V107.752Z" fill="#FFC99F"/>
<path d="M251.757 71.1952C255.589 69.2175 262.88 68.8806 264.875 70.7431C259.426 66.4858 256.474 57.8374 255.225 53.4824L251.758 71.1952H251.757Z" fill="#D3B7B3"/>
<path d="M243.915 127.051L250.742 122.671L266.63 74.398L253.047 71.0589C247.84 69.5659 244.959 78.237 244.18 81.5886L237.282 115.653C236.69 118.428 241.614 127.304 243.915 127.051Z" fill="#34273F"/>
<path d="M229.14 318.353V315.089L264.039 314.698V318.009C264.039 318.611 263.551 319.098 262.95 319.098H259.535C259.246 319.098 258.969 318.983 258.765 318.779L257.747 317.761C257.321 317.335 256.631 317.335 256.205 317.761L255.132 318.835C254.96 319.007 254.736 319.117 254.495 319.147C246.791 320.138 235.535 320.357 229.871 319.25C229.444 319.167 229.141 318.786 229.141 318.352L229.14 318.353Z" fill="#34273F"/>
<path d="M260.891 276.899L260.881 302.42L263.525 305.697C263.932 313.144 255.771 310.198 250.277 308.061C253.923 304.524 250.231 275.066 250.231 275.066L260.892 276.899H260.891Z" fill="#FFDBB0"/>
<path d="M262.693 304.203C265.888 308.969 264.04 314.698 264.04 314.698C245.748 314.931 229.185 318.702 229.139 315.089C241.958 312.387 245.047 307.857 249.005 304.837C251.47 304.806 255.771 305.423 256.743 306.381C257.162 306.795 262.023 305.342 262.692 304.203H262.693Z" fill="#56384D"/>
<path d="M281.556 275.759L281.812 300.675L280.896 306.179C280.472 313.927 286.995 310.338 292.712 308.114C288.333 302.398 291.474 274.891 291.474 274.891L281.556 275.757V275.759Z" fill="#FFDBB0"/>
<path d="M296.932 314.019C297.379 317.386 292.666 316.889 287.405 316.889C282.143 316.889 277.877 317.422 277.877 314.019C277.877 310.616 277.589 307.859 282.852 307.859C288.115 307.859 296.114 307.859 296.934 314.019H296.932Z" fill="#56384D"/>
<path d="M293.85 309.946C293.85 312.217 289.779 310.878 286.335 310.878C282.89 310.878 279.616 311.62 279.616 309.349C279.616 307.078 282.89 304.853 286.335 304.853C289.779 304.853 293.85 307.676 293.85 309.946Z" fill="#56384D"/>
<path d="M296.647 319.1C290.235 319.1 284.07 319.1 278.234 319.1C277.664 319.1 277.2 318.638 277.2 318.067V315.915C277.2 315.345 277.663 314.882 278.234 314.882C284.323 317.556 290.462 317.556 296.647 314.882C297.217 314.882 297.68 315.344 297.68 315.915V318.067C297.68 318.637 297.218 319.1 296.647 319.1Z" fill="#34273F"/>
<path d="M290.929 129.166C287.617 122.31 284.17 113.834 285.001 109.662L297.674 84.711C299.252 76.7903 294.907 68.0278 287.257 65.4414L279.214 62.8262C279.214 62.8262 251.776 66.8104 249.724 71.9318L243.317 95.2195C242.219 98.8154 243.194 102.723 245.853 105.382L249.666 109.195C252.591 112.119 253.685 116.973 252.816 120.204L248.153 142.472L247.928 142.497C244.225 163.365 241.173 188.79 238.809 214.531C237.085 235.73 236.094 262.548 234.029 293.56C253.909 303.873 278.25 288.005 306.057 288.505C306.057 234.513 304.961 192.173 302.942 171.537C301.502 156.812 297.369 142.486 290.932 129.166H290.929Z" fill="#56384D"/>
<path d="M292.015 85.7364L297.673 84.7119L285 109.663L286.669 119.164L288.759 123.984L260.683 173.644C256.194 181.133 246.18 184.507 241.919 184.507L245.775 148.11L251.053 128.608L256.192 139.904L266.816 107.009C270.83 95.9393 280.427 87.8381 292.014 85.739L292.015 85.7364Z" fill="#34273F"/>
<path d="M256.465 21.7715C254.886 23.3997 251.817 27.2299 251.817 39.5031L260.585 66.1249L272.045 64.6344L256.465 21.7715Z" fill="#E8D3D1"/>
<path d="M261.438 21.772L263.975 56.9546C259.561 59.4233 256.736 57.4456 255.223 51.7881L254.207 33.3851C254.327 28.3851 256.639 20.4168 261.438 21.772Z" fill="#D3B7B3"/>
<path d="M263.077 28.3848L284.975 29.7775L280.184 47.1597C279.455 51.353 279.846 58.5962 282.482 61.9379L285.165 65.6064C288.821 69.6683 259.465 71.532 264.355 66.6423C266.328 63.0539 267.584 59.1335 266.328 55.8821L263.077 28.3848Z" fill="#FFDBB0"/>
<path d="M276.093 53.4828C279.72 50.2726 279.611 45.5306 279.611 45.5306L280.275 25.5107L266.327 55.8813C266.726 56.7092 266.788 57.8502 266.712 60.2588C266.712 60.2588 272.466 56.6929 276.093 53.4828Z" fill="#EFBA9C"/>
<path d="M263.809 19.4688C258.14 19.1794 254.482 22.6827 255.905 29.123C256.136 30.1663 256.257 31.6405 256.5 33.2036C256.743 34.7667 256.961 37.6325 256.961 37.6325C256.961 37.6325 256.236 38.0333 255.902 40.785C255.567 43.5367 258.141 55.0046 260.506 56.4988C262.869 57.993 274.813 55.5832 277.05 52.5059C279.287 49.4285 280.127 44.451 280.721 40.413L284.975 29.7768C285.956 23.7235 280.881 20.3969 274.757 20.0837L263.809 19.4675V19.4688Z" fill="#FFDBB0"/>
<path d="M266.736 56.6201C273.542 54.5748 278.819 41.515 274.672 26.4111L286.457 33.6819L278.819 54.0349L266.736 56.6201Z" fill="#EFBA9C"/>
<path d="M261.514 32.3167C258.076 32.6849 256.992 32.4319 256.5 33.2034L256.961 37.6323C259.264 37.5822 261.141 39.5035 261.141 39.5035C261.925 38.2335 262.115 36.2695 261.774 33.6806L261.515 32.3154L261.514 32.3167Z" fill="#EFBA9C"/>
<path d="M261.773 33.6822L258.92 33.7912C259.441 36.2198 262.433 38.7273 258.92 42.4685C257.802 43.3452 260.449 45.2002 261.351 45.0298L264.224 44.4887L261.344 44.0479C260.864 43.974 259.923 43.5243 260 43.0459C263.839 39.207 262.678 35.5747 261.773 33.6797V33.6822Z" fill="#EFBA9C"/>
<path d="M270.596 47.1449C268.369 53.1957 263.52 54.8189 260.692 48.3774C260.641 48.2609 260.74 48.1719 260.915 48.1995C261.203 48.2446 261.719 48.6905 261.887 48.6654C262.576 48.5627 262.45 47.9853 263.244 47.9302C263.737 47.8951 264.019 48.3298 264.511 48.2659C265.003 48.202 265.02 47.5545 265.511 47.468C266.316 47.3265 266.882 48.2546 268.627 48.0529C269.056 48.0028 269.755 47.2088 270.35 46.9896C270.518 46.927 270.658 47.0309 270.597 47.1436L270.596 47.1449Z" fill="#FF977B"/>
<path d="M261.257 48.8735C262.626 51.5238 267.558 51.376 269.864 47.9717C269.062 48.4802 268.25 49.1578 267.542 49.2354C267.045 49.2893 266.192 49.0801 265.56 49.0501C265.371 49.0413 265.239 49.3945 264.753 49.4196C264.052 49.4571 263.887 49.1766 263.713 49.1816C263.242 49.1941 262.955 49.3895 262.663 49.4233C262.453 49.4471 261.702 49.2242 261.258 48.8735H261.257Z" fill="white"/>
<path d="M280.508 44.7823C280.568 44.8011 280.632 44.8061 280.692 44.7948C281.138 44.7134 281.896 44.3639 281.565 43.6212C281.517 43.5122 281.438 43.3757 281.349 43.2242C281.046 42.7044 280.628 41.9917 281.124 41.631C281.659 41.2427 281.717 40.7254 281.768 40.2708C281.835 39.6771 281.883 39.2488 282.829 39.126C282.981 39.106 283.056 38.9945 282.997 38.8755C282.938 38.7578 282.768 38.6764 282.616 38.6964C281.327 38.863 281.251 39.5456 281.182 40.148C281.133 40.5801 281.087 40.9885 280.671 41.2916C279.941 41.8239 280.467 42.7257 280.816 43.3231C280.895 43.4584 280.967 43.5799 281.01 43.6776C281.245 44.2036 280.528 44.3564 280.446 44.3714C280.299 44.399 280.235 44.5167 280.304 44.6332C280.344 44.7021 280.423 44.7572 280.509 44.7835L280.508 44.7823Z" fill="#EFBA9C"/>
<path d="M270.133 37.7515C270.098 38.0721 269.18 37.5762 268.661 37.377C267.551 37.0226 267.35 37.0113 266.657 36.9574C264.847 36.8735 264.581 37.3858 264.273 37.1165C263.916 36.8046 265.568 36.0594 268.034 36.3262C269.458 36.4802 270.164 37.4684 270.133 37.7503V37.7515Z" fill="#14182B"/>
<path d="M268.034 36.3269C270.359 36.8517 271.759 36.8679 272.045 36.2705C271.939 37.6595 271.035 38.3233 269.814 37.8324L268.034 36.3281V36.3269Z" fill="#14182B"/>
<path d="M256.504 37.1603C256.46 37.5698 257.224 37.144 257.637 37.0075C258.508 36.8008 258.653 36.8296 259.162 36.911C260.474 37.1928 260.556 37.8917 260.834 37.6199C261.156 37.3055 260.132 36.0192 258.309 35.8263C257.255 35.7149 256.54 36.802 256.503 37.1603H256.504Z" fill="#14182B"/>
<path d="M257.71 35.8938C256.381 36.6203 255.841 36.1819 255.225 35.21C255.395 36.2032 255.835 37.234 256.674 37.3304L257.71 35.8938Z" fill="#14182B"/>
<path d="M259.689 38.7207C260.263 38.7207 260.729 38.2553 260.729 37.6812C260.729 37.107 260.263 36.6416 259.689 36.6416C259.115 36.6416 258.649 37.107 258.649 37.6812C258.649 38.2553 259.115 38.7207 259.689 38.7207Z" fill="#14182B"/>
<path d="M268.035 38.8282C268.609 38.8282 269.074 38.3627 269.074 37.7886C269.074 37.2145 268.609 36.749 268.035 36.749C267.461 36.749 266.995 37.2145 266.995 37.7886C266.995 38.3627 267.461 38.8282 268.035 38.8282Z" fill="#14182B"/>
<path d="M270.39 33.5175C269.896 33.3747 269.359 33.2958 268.819 33.2845L264.086 33.1843L264.131 32.3564L268.741 32.6057C269.529 32.6483 270.288 32.8349 270.903 33.1367L273.497 34.4131L270.388 33.5175H270.39Z" fill="#14182B"/>
<path d="M256.5 33.2037L257.305 32.9595C257.642 32.8568 258.001 32.823 258.356 32.8581L261.472 33.1674L261.514 32.317L258.465 32.1692C257.944 32.1441 257.429 32.2681 257 32.5236L256.5 33.2025V33.2037Z" fill="#14182B"/>
<path d="M255.573 27.8054C259.608 23.7698 266.56 23.7235 277.509 31.5378C277.043 20.0987 273.302 15.4582 259.819 18.6646C255.712 19.6992 255.257 23.4642 255.573 27.8041V27.8054Z" fill="white"/>
<path d="M274.051 20.0449L275.522 30.1776L278.819 32.6851L276.094 20.7438L274.051 20.0449Z" fill="#D6D6D6"/>
<path d="M263.975 56.9544C263.975 56.9544 272.614 56.2555 274.998 51.5123C276.32 48.8833 277.824 45.1396 278.215 42.3753L278.378 41.2243C278.378 28.3862 276.093 23.2672 261.438 21.773C256.466 21.773 255.67 25.8875 255.572 27.8063C253.534 25.7685 256.405 14.5674 265.645 14.5674C280.883 14.5674 288.041 23.9536 288.041 30.0094C288.041 40.2761 288.062 47.1624 281.645 55.8835C275.013 60.0117 269.571 61.6675 263.975 56.9556V56.9544Z" fill="#E8D3D1"/>
<path d="M251.819 39.5033C251.819 44.6749 252.313 49.3204 253.121 53.3447C254.873 62.0796 260.852 69.3729 269.042 72.8786L271.102 73.7604C276.92 76.2504 283.539 76.0512 289.197 73.2155L295.183 71.799L289.352 62.4679L286.339 61.0025L285.481 58.6728L282.462 57.4905L282.023 54.4957L268.035 56.9544H259.091C256.657 56.1991 253.329 38.8282 251.817 39.5046L251.819 39.5033Z" fill="#E8D3D1"/>
<path d="M282.383 56.9541C280.275 60.5463 273.764 59.8724 264.521 59.642C274.471 61.5069 281.3 61.6986 285.481 58.6738L282.462 57.4914L282.383 56.9554V56.9541Z" fill="#D3B7B3"/>
<path d="M261.438 21.7716C255.763 21.7716 255.492 27.2964 255.764 28.3848L254.208 33.3848C254.461 26.2994 254.951 20.6719 261.439 21.7716H261.438Z" fill="#D3B7B3"/>
<path d="M286.338 61.0029C283.669 63.7058 277.76 62.9819 272.045 62.4633C278.301 64.2619 284.39 65.4418 289.351 62.4684L286.337 61.0029H286.338Z" fill="#D3B7B3"/>
<path d="M257.771 59.8086C268.992 73.7288 274.28 73.2504 282.939 72.4425C272.045 72.7782 265.23 67.0568 257.771 59.8086Z" fill="#D3B7B3"/>
<path d="M266.327 65.3789C277.848 71.3508 284.816 70.4002 290.454 67.428C284.026 70.0081 275.796 68.9473 266.327 65.3789Z" fill="#D3B7B3"/>
<path d="M276.093 53.4828C282.316 47.3142 282.437 37.1577 280.275 25.5107C282.295 37.9217 280.355 46.7531 276.093 53.4828Z" fill="#D3B7B3"/>
<path d="M259.092 56.9548C263.474 59.6051 280.7 60.2602 282.128 55.2139C279.981 59.3596 261.932 56.425 259.092 56.9548Z" fill="#D3B7B3"/>
<path d="M242.74 177.641L239.388 166.261L241.217 159.709L240.607 143.678L249.324 139.426L249.193 153.843L253.709 163.273L251.447 175.569C250.977 178.127 248.866 180.053 246.357 180.215C244.705 180.321 243.22 179.264 242.741 177.642L242.74 177.641Z" fill="#EFBA9C"/>
<path d="M239.757 155.417C242.248 152.677 245.306 150.586 251.635 152.233L251.039 125.178C250.94 120.683 248.548 116.535 244.677 114.248C243.989 113.842 243.29 113.456 242.606 113.119C240.007 111.838 236.999 113.878 237.19 116.769L239.755 155.416L239.757 155.417Z" fill="#56384D"/>
<path d="M275.947 126.646L269.859 120.375L281.171 83.1182L297.675 84.7126L285.039 123.267C284.209 125.336 277.928 127.671 275.948 126.647L275.947 126.646Z" fill="#56384D"/>
<path d="M251.433 177.22L259.615 168.411L260.786 161.709L268.44 147.517L262.108 139.901L255.866 152.96L247.448 159.505L244.149 171.575C243.463 174.085 244.6 176.737 246.891 177.971C248.399 178.784 250.266 178.475 251.432 177.218L251.433 177.22Z" fill="#FFDBB0"/>
<path d="M264.056 158.473C264.243 154.041 261.78 151.19 256.196 150.202L269.859 120.375L280.553 117.703C283.978 120.233 284.984 118.963 285.038 123.267L264.055 158.474L264.056 158.473Z" fill="#56384D"/>
<path d="M390.158 85.9559L383.914 71.1289C376.136 72.0445 360.78 83.2819 360.78 83.2819V103.832L390.158 85.9559Z" fill="#B18CE0"/>
<path d="M399.872 123.747L376.454 127.245L360.78 112.471L373.033 100.821L399.872 123.747Z" fill="#FFCD9C"/>
<path d="M291.301 183.897C291.534 186.709 292.835 189.35 294.787 190.975L296.308 192.24C297.925 193.587 299.963 193.284 301.032 191.538L303.836 186.965C305.023 185.028 305.356 182.402 304.736 179.868L300.514 166.191L291.864 165.816L291.302 183.896L291.301 183.897Z" fill="#FFCD9C"/>
<path d="M303.782 168.977L291.863 165.817L296.052 127.244L302.146 91.4154C308.252 87.7343 328.303 92.9985 321.223 94.7232L303.782 168.976V168.977Z" fill="#FFCD9C"/>
<path d="M295.562 97.1482L308.076 76.7713C313.641 68.2355 324.795 65.1657 333.828 69.8813C335.936 70.981 337.272 72.1621 337.166 73.1428C337.166 73.1428 330.888 100.505 309.971 114.213L295.562 97.1482Z" fill="#D6D6D6"/>
<path d="M322.747 288.755L323.082 292.329C323.303 294.693 322.94 298.225 324.45 300.068L326.648 301.935C327.656 312.479 321.823 306.602 314.088 299.632L312.731 281.666L322.747 288.758V288.755Z" fill="#FFC99F"/>
<path d="M347.644 290.019L348.246 297.573L345.876 303.222C345.576 310.369 353.481 305.678 358.759 303.561C356.952 300.969 356.561 295.167 356.7 288.163L347.644 290.021V290.019Z" fill="#FFC99F"/>
<path d="M298.26 160.511L299.513 240.13L305.08 291.021H323.04L324.128 247.05L322.437 235.452L339.815 155.266L298.26 160.511Z" fill="#34273F"/>
<path d="M317.185 155.808L329.112 234.517L332.073 248.398L339.815 291.021H357.157V249.814V233.678L353.433 164.962L317.185 155.808Z" fill="#493959"/>
<path d="M326.646 301.933C328.86 304.553 330.584 308.676 330.371 315.013C307.498 314.246 299.604 319.627 284.625 314.339C284.73 311.201 287.837 309.597 296.709 309.894C305.177 310.177 309.816 305.477 314.307 301.52C321.245 307.44 325.767 308.416 326.645 301.933H326.646Z" fill="#F2F2F2"/>
<path d="M328.586 318.62C306.276 317.957 296.878 320.694 286.058 318.731C285.168 318.57 284.523 317.367 284.553 316.469L284.625 314.339C296.331 317.543 312.583 314.417 330.371 315.013L330.303 317.015C330.273 317.929 329.504 318.646 328.585 318.619L328.586 318.62Z" fill="#C6AFA5"/>
<path d="M312.786 306.478C310.947 303.7 309.037 301.596 307.02 300.514C306.477 300.223 306.537 299.432 307.115 299.22L311.117 297.757C313.911 296.735 317.008 298.148 318.068 300.929L319.737 305.307L312.785 306.478H312.786Z" fill="#F2F2F2"/>
<path d="M345.83 303.928C342.844 308.565 345.246 316.166 345.246 316.166C362.911 316.008 374.828 319.368 374.796 315.902C374.774 313.329 374.585 309.46 367.502 309.523C362.235 309.571 360.533 301.48 355.932 301.525C349.06 301.586 348.863 312.242 345.829 303.928H345.83Z" fill="#F2F2F2"/>
<path d="M374.82 318.549C373.513 321.474 357.363 318.41 346.222 318.767C345.61 318.787 345.105 318.295 345.1 317.688L345.083 315.88C350.574 315.831 353.867 315.417 359.238 316.235C365.452 317.18 373.124 317.301 374.795 315.612L374.822 318.549H374.82Z" fill="#C6AFA5"/>
<path d="M359.853 306.129C358.363 304.775 358.874 302.481 361.389 299.25C361.731 298.81 361.424 298.168 360.867 298.173L355.787 298.218C351.637 298.256 349.155 302.929 351.527 306.334C351.681 306.555 351.844 306.778 352.017 307.004L359.855 306.127L359.853 306.129Z" fill="#F2F2F2"/>
<path d="M298.26 160.511C298.26 139.007 307.097 120.198 306.509 102.321C306.025 87.559 304.727 79.4679 316.367 70.376C323.155 65.0729 338.412 65.5614 348.248 67.6706C399.703 99.1834 349.104 105.397 354.034 176.047C338.349 172.655 298.26 160.511 298.26 160.511Z" fill="#F2F2F2"/>
<path d="M336.299 19.184C332.954 19.6173 326.144 25.7646 326.01 26.084C325.866 26.4271 325.475 31.0338 324.645 33.2933C322.544 38.5325 314.254 32.3014 321.249 41.164C321.337 45.0443 318.394 47.5893 317.875 50.2183C317.357 52.8473 322.11 53.9896 331.167 54.8212L329.98 61.2854C329.575 63.4935 328.114 66.259 325.761 66.7976C323.819 67.2423 316.501 82.3411 318.496 83.0162C323.451 84.692 345.41 71.2164 348.247 67.6706C346.829 62.613 346.371 50.3273 346.371 50.3273C346.371 46.8266 358.949 43.5575 353.584 29.9993C349.792 22.0346 345.826 19.0324 336.298 19.1852L336.299 19.184Z" fill="#FFCD9C"/>
<path d="M327.598 35.0381L325.94 26.4785L332.364 28.4349C334.51 29.2891 332.193 33.9634 331.163 36.1954C329.913 35.1496 328.717 34.6861 327.598 35.0381Z" fill="#FFB680"/>
<path d="M331.155 36.2786C329.99 35.4758 328.949 35.0211 327.599 35.0387C327 35.0462 326.578 34.435 326.818 33.8901C326.983 33.5169 327.403 33.3365 327.797 33.463C329.119 33.8889 329.771 34.6366 330.845 35.4608C331.072 35.6349 331.192 35.9142 331.163 36.1947L331.155 36.2786Z" fill="#493959"/>
<path d="M325.94 26.4775C328.05 27.0775 329.95 28.1046 331.703 29.4334C332.086 29.724 332.74 29.7578 333.009 29.5036L333.063 29.4535C333.233 29.2919 333.196 29.0552 332.968 28.8636C330.811 27.065 328.972 25.9916 326.198 25.5119C325.985 25.4743 325.771 25.4918 325.607 25.5532L325.59 25.5595C325.072 25.7561 325.279 26.2884 325.94 26.4763V26.4775Z" fill="#493959"/>
<path d="M322.246 44.8361C322.369 49.9149 329.319 48.8127 329.229 43.918C326.031 45.1893 325.52 45.7529 322.246 44.8361Z" fill="white"/>
<path d="M326.748 11.6169C327.495 15.3318 328.509 18.9139 331.703 21.4089L339.209 27.5849C341.438 28.9326 339.008 32.6425 336.612 33.662C335.749 36.6768 334.024 42.6575 342.42 40.1976C342.42 40.1976 340.829 47.422 346.37 50.3278L351.141 46.7105C356.327 42.779 359.248 36.4852 358.707 29.9997C358.619 28.9451 358.462 28.0985 358.272 27.5849C357.944 26.6932 358.14 25.6962 358.777 24.9923L356.471 23.2989L356.702 20.9993C355.092 21.3638 353.409 21.1684 351.926 20.4444C348.023 18.5369 338.539 13.8763 338.539 13.8763C336.327 12.8543 334.629 11.7408 334.219 10.3994C333.528 12.1917 334.554 13.6321 336.014 14.9836C333.608 14.5201 331.529 13.5745 330.13 11.6169C330.434 13.7085 331.846 15.6612 334.506 17.4572C331.435 17.4572 328.264 14.8308 326.746 11.6169H326.748Z" fill="#493959"/>
<path d="M344.28 38.7834C344.283 38.7997 344.286 38.8172 344.289 38.8348C344.483 39.932 344.112 41.0492 343.446 41.8959C342.975 42.4933 342.519 42.8803 342.075 43.0732C341.676 43.2461 341.333 43.5417 341.132 43.9562C340.502 45.2588 339.347 45.5669 338.72 44.7315L338.714 44.7128C338.298 43.434 338.3 42.0312 338.739 40.7624C339.133 39.6213 339.535 38.7045 339.946 38.0056C341.081 36.073 343.848 36.5364 344.278 38.7847L344.28 38.7834Z" fill="#FFCD9C"/>
<path d="M343.475 38.5245C342.913 37.6966 341.724 37.4612 340.949 38.1112C340.583 38.4181 340.368 38.8903 340.309 39.3837C340.274 39.6731 340.297 39.9561 340.348 40.2404C340.411 40.5936 340.965 41.9764 340.189 41.9526C339.774 41.9401 339.811 42.644 340.223 42.6565C340.892 42.6766 341.287 42.0603 341.257 41.3602C341.232 40.7815 340.917 40.2655 340.932 39.6806C340.959 38.6147 342.267 37.9246 342.932 38.904C343.179 39.2673 343.722 38.889 343.474 38.5233L343.475 38.5245Z" fill="#FF9971"/>
<path d="M318.595 36.2783L321.69 38.3437C323.674 39.9494 322.751 40.9602 321.25 41.1656C319.215 38.633 318.154 36.867 318.596 36.2796L318.595 36.2783Z" fill="#FFB680"/>
<path d="M331.167 54.8231C336.31 54.8231 337.721 54.5263 340.66 45.5859C340.66 55.0799 336.31 57.9681 330.656 57.6087L331.167 54.8231Z" fill="#FFB680"/>
<path d="M354.033 176.047L339.813 172.489L351.998 98.8193L366.988 110.569C361.648 123.914 352.41 155.138 354.032 176.047H354.033Z" fill="#D6D6D6"/>
<path d="M377.219 95.8743C373.675 90.2443 375.191 84.325 353.294 70.376L349.99 75.386L344.341 89.7208C342.099 95.0978 350.496 111.74 362.485 117.902L377.219 95.8743Z" fill="#F2F2F2"/>
<path d="M383.547 160.569C381.88 147.214 383.252 125.479 377.075 115.601C362.782 108.855 363.235 106.288 376.329 78.0183C378.1 74.1944 381.202 71.1458 385.338 70.3355C389.98 69.4249 394.122 68.9615 397.86 69.1005C402.228 69.2633 408.625 71.603 410.408 75.5934C418.088 92.2253 399.695 117.149 411.822 124.368C412.403 142.566 401.911 157.523 383.547 160.569Z" fill="#D9B6FF"/>
<path d="M398.443 93.3243L404.847 79.8537C399.141 77.6506 395.944 69.7636 388.585 82.3399L379.872 94.315C377.695 97.807 370.778 100.443 366.775 101.74C363.887 114.821 375.471 111.532 379.82 122.252C387.261 117.66 393.443 112.114 397.963 106.329C402.05 101.384 402.319 97.1281 398.444 93.3231L398.443 93.3243Z" fill="#B18CE0"/>
<path d="M377.362 20.8643L364.135 25.3307C364.135 33.1926 369.218 45.4407 373.463 51.9299L374.419 53.3928L387.548 32.9897L377.362 20.8655V20.8643Z" fill="#ED7777"/>
<path d="M378.852 36.833L399.872 38.346L398.319 55.3725C395.695 59.8151 398.454 60.1382 399.373 67.3363C392.687 83.1516 361.544 110.804 385.18 70.6241C385.18 70.6241 385.839 69.061 383.73 62.4215L378.852 36.833Z" fill="#FFD6C0"/>
<path d="M391.086 61.1184C394.595 58.0648 393.708 55.263 393.708 55.263L396.677 31.4092L383.466 61.796C383.814 62.9095 384.465 64.7244 384.602 65.8378C384.602 65.8378 387.576 64.1733 391.084 61.1197L391.086 61.1184Z" fill="#F4B795"/>
<path d="M396.993 32.4414C397.142 32.8046 397.276 33.1691 397.395 33.5373C397.276 33.1691 397.141 32.8046 396.993 32.4414Z" fill="#FFCD69"/>
<path d="M398.247 40.0557C398.237 40.5241 398.218 40.995 398.185 41.4697C398.217 40.995 398.237 40.5241 398.247 40.0557Z" fill="#FFCD69"/>
<path d="M395.422 29.5449C395.676 29.9144 395.913 30.2864 396.127 30.6609C395.913 30.2851 395.676 29.9132 395.422 29.5449Z" fill="#FFCD69"/>
<path d="M398.17 41.6611C398.139 42.087 398.101 42.5153 398.056 42.9462C398.101 42.5153 398.14 42.087 398.17 41.6611Z" fill="#FFCD69"/>
<path d="M397.886 35.4385C397.959 35.8092 398.02 36.1825 398.069 36.557C398.02 36.1812 397.959 35.8092 397.886 35.4385Z" fill="#FFCD69"/>
<path d="M397.481 33.793C397.615 34.2326 397.728 34.6747 397.824 35.1219C397.728 34.676 397.615 34.2326 397.481 33.793Z" fill="#FFCD69"/>
<path d="M398.113 36.874C398.165 37.3274 398.203 37.7846 398.226 38.2443C398.203 37.7846 398.164 37.3274 398.113 36.874Z" fill="#FFCD69"/>
<path d="M397.395 33.5371C397.423 33.6223 397.455 33.7075 397.482 33.7926C397.455 33.7075 397.424 33.6223 397.395 33.5371Z" fill="#FFB255"/>
<path d="M397.825 35.1201C397.847 35.2253 397.866 35.3318 397.886 35.4383C397.866 35.333 397.847 35.2253 397.825 35.1201Z" fill="#FFB255"/>
<path d="M395.888 27.6885C395.343 27.7674 394.796 27.8488 394.205 27.969C394.792 27.8488 395.348 27.7611 395.888 27.6885Z" fill="#FFB255"/>
<path d="M395.186 29.21C395.266 29.3214 395.344 29.4329 395.422 29.5444C395.345 29.4329 395.268 29.3214 395.186 29.21Z" fill="#FFB255"/>
<path d="M396.127 30.6602C396.158 30.714 396.193 30.7666 396.223 30.8217C396.193 30.7679 396.158 30.7153 396.127 30.6602Z" fill="#FFB255"/>
<path d="M396.854 32.1055C396.903 32.2169 396.948 32.3284 396.993 32.4399C396.948 32.3284 396.903 32.2157 396.854 32.1055Z" fill="#FFB255"/>
<path d="M398.247 40.0555C398.25 39.9365 398.25 39.8163 398.251 39.6973C398.251 39.8163 398.251 39.9365 398.247 40.0555Z" fill="#FFB255"/>
<path d="M398.186 41.4697C398.181 41.5336 398.176 41.5975 398.171 41.6614C398.176 41.5975 398.182 41.5336 398.186 41.4697Z" fill="#FFB255"/>
<path d="M398.056 42.9453C398.042 43.0743 398.029 43.2033 398.014 43.3336C398.029 43.2046 398.042 43.0756 398.056 42.9453Z" fill="#FFB255"/>
<path d="M379.558 28.3524C374.116 28.0293 371.168 32.2164 372.483 38.4125C372.696 39.4157 372.805 43.2697 372.805 43.2697C372.805 43.2697 372.842 46.3045 372.499 48.9447C372.156 51.585 374.201 60.6218 376.459 62.0759C378.718 63.5301 389.939 60.7382 392.112 57.8011C394.285 54.864 395.031 52.4768 395.634 48.6028L399.229 40.5655C400.22 34.7602 395.948 29.3795 390.068 29.0313L379.558 28.3524Z" fill="#FFD6C0"/>
<path d="M376.459 37.4844L372.173 38.2359C372.654 40.573 378.247 43.4388 375.113 48.3924C374.845 49.2316 374.599 50.6569 376.112 51.1654L380.032 52.1123L377.099 50.7884C376.424 50.4978 375.751 50.0908 376.022 49.437C379.056 44.7977 379.413 40.7822 376.459 37.4844Z" fill="#F4B795"/>
<path d="M372.321 38.2256L375.883 37.955C376.218 37.93 376.476 37.7183 376.458 37.4841C376.441 37.2699 376.198 37.1058 375.892 37.1033L372.306 37.0733C371.941 37.0708 371.638 37.2912 371.657 37.5454L371.679 37.846C371.697 38.0803 371.984 38.2494 372.319 38.2243L372.321 38.2256Z" fill="#5E2E28"/>
<path d="M372.271 37.1479C371.127 31.4077 372.804 28.5883 377.93 32.9883C390.169 24.7895 394.147 36.186 393.115 39.4187C392.295 42.0013 390.415 42.9407 392.656 44.5802C394.898 46.2197 392.228 47.6488 393.772 49.0128C395.317 50.3755 397.744 45.6623 397.744 45.6623C406.958 37.4272 399.747 22.4636 389.295 19.127C369.295 19.127 367.887 28.6334 372.271 37.1491V37.1479Z" fill="#ED7777"/>
<path d="M388.473 39.9107L382.791 38.7809C382.256 38.6745 381.868 38.3551 381.925 38.0657C381.978 37.8015 382.389 37.6512 382.881 37.7163L388.637 38.4766C389.222 38.5542 389.682 38.8974 389.619 39.2105L389.546 39.58C389.488 39.8681 389.008 40.0159 388.473 39.9094V39.9107Z" fill="#5E2E28"/>
<path d="M384.101 43.7574C383.937 43.6773 383.763 43.6121 383.57 43.5783C381.281 43.1788 379.746 44.2935 380.078 44.7607C380.364 45.164 380.612 44.3975 382.291 44.5227C382.935 44.6029 383.122 44.6192 384.151 45.1502C384.461 45.3406 384.922 45.7113 385.221 45.8278V45.8303C386.357 46.5655 387.195 45.5723 387.294 43.4932C387.052 44.311 385.936 44.3536 384.101 43.7574Z" fill="#5E2E28"/>
<path d="M375.326 42.653C375.15 42.6029 374.978 42.6255 374.815 42.6793L374.823 42.6693C374.809 42.6768 374.799 42.6806 374.787 42.6881C374.705 42.7169 374.629 42.757 374.554 42.8033C373.569 43.2605 373.245 43.4471 372.909 42.3574C372.905 43.4646 373.069 43.8905 373.672 44.1723C373.692 44.1961 373.718 44.2111 373.754 44.2149C373.757 44.2149 373.758 44.2174 373.761 44.2186V44.2161C373.961 44.2349 374.356 44.0245 374.601 43.9456C375.348 43.7978 375.464 43.8466 375.87 43.9932C376.909 44.4554 376.874 45.2682 377.144 44.9852C377.454 44.657 376.799 43.0663 375.328 42.653H375.326Z" fill="#5E2E28"/>
<path d="M389.295 19.126C401.939 19.126 406.537 28.0688 407.964 34.4565C409.392 40.8443 414.205 82.9958 414.205 82.9958C409.878 78.5382 401.976 71.6294 394.695 79.1769L384.123 91.4163C385.403 78.1586 392.854 76.9512 395.036 67.4185C395.036 67.4185 396.468 62.3759 395.921 54.2159C395.265 44.4252 392.83 28.5134 389.295 19.126Z" fill="#ED7777"/>
<path d="M396.94 45.6344C393.518 45.811 395.575 47.8764 393.513 49.3919C393.048 49.7339 392.812 50.2236 392.863 50.7659L394.69 55.2436C394.994 55.8661 396.388 55.8548 396.758 55.449C397.703 54.4144 397.263 51.6752 397.846 50.5805C398.855 48.6818 400.183 45.4666 396.941 45.6332L396.94 45.6344Z" fill="#FFD6C0"/>
<path d="M395.53 52.8274C395.587 52.8449 395.649 52.8512 395.706 52.8412C396.136 52.766 396.866 52.4366 396.554 51.7214C396.508 51.6162 396.434 51.4847 396.35 51.3382C396.062 50.8359 395.669 50.1483 396.147 49.8063C396.663 49.4369 396.723 48.9421 396.776 48.505C396.845 47.9351 396.894 47.5243 397.803 47.4141C397.948 47.3965 398.021 47.2901 397.966 47.1748C397.909 47.0609 397.748 46.982 397.601 46.9995C396.362 47.1498 396.282 47.8036 396.213 48.3823C396.163 48.7968 396.116 49.1889 395.712 49.4769C395.006 49.9817 395.505 50.8534 395.835 51.4296C395.91 51.5598 395.977 51.6776 396.018 51.7715C396.238 52.2788 395.55 52.4191 395.471 52.4341C395.33 52.4591 395.268 52.5719 395.333 52.6846C395.372 52.751 395.446 52.8036 395.53 52.8299V52.8274Z" fill="#F4B795"/>
<path d="M385.959 54.2784C382.447 59.1431 379.208 59.4762 376.316 54.2771C376.255 54.1669 376.387 54.0805 376.563 54.1256C378.031 54.5063 377.691 53.6008 378.698 53.6359C379.203 53.6534 379.406 54.3698 379.912 54.3586C380.418 54.3473 380.541 53.453 381.048 53.4192C382.085 53.3515 382.552 54.8808 385.726 54.1005C385.904 54.0567 386.033 54.1744 385.958 54.2784H385.959Z" fill="#DB8172"/>
<path d="M377.035 54.7207C379.033 56.607 382.098 56.5757 385.179 54.8222C383.711 55.0651 382.774 55.1516 381.235 54.9199C381.044 54.8911 380.554 55.1829 380.058 55.1578C379.346 55.1215 379.033 54.8146 378.856 54.8009C378.033 54.737 377.804 54.876 377.036 54.7207H377.035Z" fill="white"/>
<path d="M397.311 57.4081C398.188 57.2012 398.73 56.3229 398.524 55.4463C398.317 54.5698 397.438 54.0269 396.562 54.2338C395.685 54.4407 395.142 55.319 395.349 56.1955C395.556 57.0721 396.434 57.615 397.311 57.4081Z" fill="white"/>
<path d="M330.005 122.252C330.005 122.252 348.477 120.498 352.935 120.12L349.989 111.532C347.402 111.925 333.291 113.513 332.067 113.03L323.665 111.33L308.709 112.867L308.836 116.235C309.253 119.053 313.367 122.251 313.367 122.251C322.32 127.243 330.004 122.251 330.004 122.251L330.005 122.252Z" fill="#FFD6C0"/>
<path d="M385.651 141.083L379.743 167.917L374 192.055C373.993 193.954 374.102 195.851 374.326 197.736L378.4 232.005L381.069 297.565L390.086 291.816C390.086 273.062 399.71 256.844 399.71 246.734L396.638 216.92L406.113 140.527L385.653 141.083H385.651Z" fill="#FFD6C0"/>
<path d="M391.461 296.29L390.675 294.07L390.084 291.816L380.347 281.001L381.145 298.919C376.669 302.655 378.016 314.632 371.735 314.767L372.664 318.532L381.898 312.896C388.619 308.974 394.459 304.054 391.461 296.291V296.29Z" fill="#FFD6C0"/>
<path d="M391.552 319.483L393.185 307.285L393.949 304.76C395.034 301.91 392.642 296.267 391.461 296.292C391.608 303.148 375.161 320.135 371.734 314.769C359.853 320.548 362.971 320.098 372.847 319.887L381.495 319.701C386.411 319.596 383.12 315.122 390.015 307.924L389.482 319.53L391.55 319.485L391.552 319.483Z" fill="#493959"/>
<path d="M415.883 193.797L409.266 228.385C414.96 223.113 441.3 225.831 456.934 222.216L464.942 229.304L412.58 246.616C406.319 248.687 399.45 247.712 394.012 243.982C387.306 239.423 383.228 231.894 383.073 223.786L382.775 208.145L415.883 193.796V193.797Z" fill="#FFD6C0"/>
<path d="M458.713 220.672L456.934 222.217L448.086 225.37L445.574 233.536L464.94 229.305C470.057 232.099 480.705 226.453 483.135 232.248L486.296 230.004L477.665 223.48C471.553 218.665 464.834 215.037 458.71 220.672H458.713Z" fill="#FFD6C0"/>
<path d="M480.256 212.083L468.308 215.036L465.678 215.252C462.628 215.288 458.256 219.583 458.712 220.673C465.036 218.021 486.87 227.094 483.135 232.249C492.87 241.184 491.307 238.447 487.488 229.337L484.144 221.36C482.242 216.825 479.286 221.527 470.062 217.752L481.054 213.992L480.253 212.084L480.256 212.083Z" fill="#493959"/>
<path d="M411.822 124.368C437.049 142.305 428.309 224.726 428.309 224.726C407.027 235.074 404.324 273.593 359.606 260.049C361.565 210.02 379.032 184.681 384.148 131.243C397.057 133.19 403.226 133.412 411.823 124.368H411.822Z" fill="#D9B6FF"/>
<path d="M386.651 154.602C391.271 169.887 401.279 183.112 399.274 204.297C397.674 181.44 381.526 185.045 386.651 154.602Z" fill="#B18CE0"/>
<path d="M384.819 183.386C388.392 192.163 394.358 199.358 395.289 212.083C392.486 198.605 385.083 201.82 384.819 183.386Z" fill="#B18CE0"/>
<path d="M409.16 77.4484C405.076 74.0203 399.025 74.2195 395.245 77.982C390.295 82.908 386.263 88.8612 383.252 93.2349C379.346 98.9099 378.37 101.073 371.675 104.934C371.43 104.995 371.184 105.051 370.93 105.12L349.991 111.533L353.668 122.253C353.668 122.253 380.856 118 384.016 115.979C384.088 115.916 400.346 99.55 409.77 90.0648C413.364 86.4476 413.087 80.7437 409.161 77.4497L409.16 77.4484Z" fill="#D9B6FF"/>
<path d="M402.751 119.328L402.86 119.659C404.195 123.694 407.821 126.238 411.468 125.696L413.102 125.453C414.656 125.222 415.618 123.506 415.181 121.747L412.741 111.921C412.3 110.147 410.632 109.1 409.151 109.667L406.101 110.837C403.072 112 401.579 115.783 402.751 119.328Z" fill="#FFCD9C"/>
</svg>
