<svg width="328" height="41" viewBox="0 0 328 41" fill="none" xmlns="http://www.w3.org/2000/svg">
<path d="M150.51 12.34H153.081C155.38 12.34 155.922 14.031 155.922 16.0264C155.922 17.6498 154.873 19.307 153.351 19.307H150.51V12.34ZM145.403 33.0044H150.51V23.0611H154.298C160.284 23.0611 161.096 18.6644 161.096 15.8911C161.096 11.4268 159.27 8.58587 154.603 8.58587H145.403V33.0044ZM169.371 12.34H171.637C173.26 12.34 174.241 13.2193 174.241 15.5529C174.241 17.1087 173.666 19.1379 171.637 19.1379H169.371V12.34ZM169.371 22.892H170.69C174.613 22.892 174.342 25.3609 174.342 28.2695C174.342 29.8591 174.207 31.5163 174.884 33.0044H179.889C179.416 31.9898 179.314 27.3902 179.314 25.8344C179.314 21.4377 176 21.1672 174.884 21.0319V20.9642C178.198 20.4231 179.416 18.0895 179.416 14.978C179.416 10.818 177.183 8.58587 173.7 8.58587H164.264V33.0044H169.371V22.892ZM196.957 33.0044V29.2503H188.468V22.1141H196.044V18.36H188.468V12.34H196.687V8.58587H183.361V33.0044H196.957ZM204.533 33.0044H210.519L216.979 8.58587H211.94L207.678 26.3417H207.611L203.823 8.58587H198.513L204.533 33.0044ZM233.066 33.0044V29.2503H224.577V22.1141H232.153V18.36H224.577V12.34H232.796V8.58587H219.47V33.0044H233.066ZM241.386 33.0044V15.1471H241.454L248.116 33.0044H254.847V8.58587H250.078V25.4962H250.01L243.517 8.58587H236.617V33.0044H241.386ZM257.417 8.58587V12.6443H263.099V33.0044H268.206V12.6443H273.887V8.58587H257.417ZM281.565 33.0044V8.58587H276.458V33.0044H281.565ZM294.258 29.7576C291.384 29.7576 291.012 27.052 291.012 20.7951C291.012 14.5383 291.384 11.8327 294.258 11.8327C297.133 11.8327 297.505 14.5383 297.505 20.7951C297.505 27.052 297.133 29.7576 294.258 29.7576ZM294.258 33.4102C302.68 33.4102 302.68 27.1872 302.68 20.7951C302.68 14.3354 302.68 8.18002 294.258 8.18002C285.837 8.18002 285.837 14.3354 285.837 20.7951C285.837 27.1872 285.837 33.4102 294.258 33.4102ZM311.755 33.0044V15.1471H311.822L318.485 33.0044H325.215V8.58587H320.447V25.4962H320.379L313.885 8.58587H306.986V33.0044H311.755Z" fill="#D1C0E1"/>
<path d="M120.477 26.8526C118.572 26.8526 118.326 25.0598 118.326 20.914C118.326 16.7682 118.572 14.9755 120.477 14.9755C122.382 14.9755 122.629 16.7682 122.629 20.914C122.629 25.0598 122.382 26.8526 120.477 26.8526ZM120.477 29.2728C126.057 29.2728 126.057 25.1494 126.057 20.914C126.057 16.6338 126.057 12.5552 120.477 12.5552C114.897 12.5552 114.897 16.6338 114.897 20.914C114.897 25.1494 114.897 29.2728 120.477 29.2728ZM132.205 29.0039V21.9449H137.001V19.4574H132.205V15.3116H137.225V12.8241H128.821V29.0039H132.205Z" fill="#D1C0E1"/>
<path d="M7.27543 12.3291H9.84721C12.1483 12.3291 12.6897 14.0211 12.6897 16.0176C12.6897 17.6419 11.6407 19.3 10.1179 19.3H7.27543V12.3291ZM2.16571 33.0049H7.27543V23.0562H11.0654C17.055 23.0562 17.8671 18.6571 17.8671 15.8822C17.8671 11.4155 16.0398 8.57296 11.37 8.57296H2.16571V33.0049Z" fill="#D1C0E1"/>
<path d="M45.2181 33H50.7677L54.9976 15.1329H55.0653L58.8891 33H64.5403L69.9546 8.56808H64.9464L61.9008 25.7246H61.8331L58.1785 8.56808H52.1551L48.2975 25.7246H48.2298L45.0489 8.56808H39.8038L45.2181 33ZM85.8479 33V29.2438H77.3542V22.1038H84.9342V18.3476H77.3542V12.3242H85.5772V8.56808H72.2445V33H85.8479ZM94.3754 12.3242H96.6426C98.2669 12.3242 99.2482 13.2041 99.2482 15.539C99.2482 17.0956 98.673 19.1259 96.6426 19.1259H94.3754V12.3242ZM94.3754 22.8821H95.6951C99.6205 22.8821 99.3497 25.3523 99.3497 28.2625C99.3497 29.853 99.2144 31.5111 99.8912 33H104.899C104.426 31.9848 104.324 27.3827 104.324 25.8261C104.324 21.427 101.008 21.1563 99.8912 21.0209V20.9532C103.207 20.4118 104.426 18.0769 104.426 14.9637C104.426 10.8015 102.192 8.56808 98.7068 8.56808H89.2657V33H94.3754V22.8821Z" fill="#D1C0E1"/>
<path d="M37.8954 20.8985C37.8954 27.35 37.8954 33.6309 29.3672 33.6309C20.8389 33.6309 20.8389 27.35 20.8389 20.8985C20.8389 14.3786 20.8389 8.16602 29.3672 8.16602C37.8954 8.16602 37.8954 14.3786 37.8954 20.8985Z" fill="#D1C0E1"/>
<path d="M24.7585 19.3189L32.8569 9.646L30.398 16.4207H34.0987L30.398 22.0824H34.0987L25.8184 31.8545L28.2453 24.794H24.7585L28.2453 19.3189H24.7585Z" fill="#5A2F84"/>
</svg>
