<svg width="1265" height="274" viewBox="0 0 1265 274" fill="none" xmlns="http://www.w3.org/2000/svg">
<path d="M1257.57 259.469C1256.29 259.47 1255.03 259.811 1253.93 260.456C1253.93 260.13 1253.98 259.805 1253.98 259.469C1253.99 256.725 1253.17 254.039 1251.65 251.744C1250.12 249.45 1247.94 247.649 1245.39 246.564C1242.83 245.479 1240.01 245.158 1237.27 245.64C1234.53 246.123 1232 247.388 1229.98 249.279C1229.56 247.383 1228.49 245.685 1226.96 244.468C1225.43 243.252 1223.52 242.589 1221.55 242.591C1220.04 242.589 1218.55 242.984 1217.24 243.736C1215.92 238.778 1213.02 234.374 1208.96 231.18C1204.89 227.985 1199.89 226.173 1194.7 226.012C1189.51 225.851 1184.4 227.351 1180.15 230.287C1175.89 233.224 1172.71 237.439 1171.08 242.305C1169.85 241.258 1168.35 240.573 1166.75 240.329C1165.15 240.084 1163.51 240.289 1162.02 240.922C1160.53 241.554 1159.25 242.587 1158.33 243.903C1157.41 245.219 1156.88 246.764 1156.81 248.362C1154.71 246.763 1152.19 245.778 1149.55 245.517C1146.91 245.257 1144.25 245.732 1141.87 246.889C1139.49 248.045 1137.48 249.837 1136.08 252.061C1134.68 254.284 1133.94 256.851 1133.94 259.469C1133.94 259.548 1133.94 259.617 1133.94 259.686C1133.38 259.544 1132.8 259.471 1132.22 259.469C1130.31 259.469 1128.47 260.22 1127.11 261.555C1125.76 262.891 1125 264.702 1125 266.591C1125 268.48 1125.76 270.292 1127.11 271.627C1128.47 272.963 1130.31 273.713 1132.22 273.713H1257.57C1259.48 273.713 1261.32 272.963 1262.68 271.627C1264.03 270.292 1264.79 268.48 1264.79 266.591C1264.79 264.702 1264.03 262.891 1262.68 261.555C1261.32 260.22 1259.48 259.469 1257.57 259.469Z" fill="url(#paint0_linear_335_30725)"/>
<path d="M1142.57 86.6307C1139.97 86.6366 1137.41 87.218 1135.07 88.332C1135.25 87.4113 1135.35 86.4749 1135.35 85.536C1135.35 83.027 1134.65 80.5672 1133.31 78.4336C1131.97 76.2999 1130.05 74.5773 1127.77 73.4595C1125.49 72.3417 1122.94 71.8732 1120.4 72.1068C1117.87 72.3404 1115.45 73.2667 1113.42 74.7815C1111.79 70.7391 1109.29 67.0968 1106.08 64.1106C1102.87 61.1244 1099.04 58.8667 1094.85 57.4962C1090.67 56.1258 1086.22 55.6758 1081.84 56.1779C1077.46 56.68 1073.24 58.122 1069.48 60.4026C1068.68 57.0318 1066.7 54.0463 1063.89 51.9662C1061.08 49.886 1057.62 48.8431 1054.11 49.0191C1050.6 49.1951 1047.26 50.5789 1044.68 52.9293C1042.1 55.2798 1040.44 58.448 1039.99 61.8819C1038.25 61.5484 1036.5 61.38 1034.73 61.379C1027.68 61.375 1020.92 64.1294 1015.93 69.0366C1010.95 73.9438 1008.14 80.6022 1008.13 87.5479C1008.14 88.8106 1008.25 90.0709 1008.43 91.3201C1007.58 90.8709 1006.62 90.6324 1005.66 90.6249C1004.05 90.6284 1002.52 91.2498 1001.38 92.3558C1000.23 93.4618 999.577 94.9645 999.546 96.5421C998.872 96.423 998.189 96.3636 997.504 96.3646C994.188 96.3646 991.007 97.6629 988.662 99.9738C986.317 102.285 985 105.419 985 108.687C985 111.955 986.317 115.09 988.662 117.401C991.007 119.712 994.188 121.01 997.504 121.01H1142.57C1147.19 121.01 1151.63 119.2 1154.9 115.979C1158.16 112.759 1160 108.39 1160 103.835C1160 99.2801 1158.16 94.9116 1154.9 91.6907C1151.63 88.4698 1147.19 86.6603 1142.57 86.6603V86.6307Z" fill="url(#paint1_linear_335_30725)"/>
<path d="M674.97 25.093C673.238 25.097 671.529 25.4846 669.97 26.2274C670.095 25.6136 670.158 24.9891 670.16 24.3631C670.161 22.69 669.689 21.0497 668.797 19.627C667.904 18.2042 666.627 17.0555 665.108 16.3101C663.59 15.5648 661.891 15.2524 660.202 15.4081C658.513 15.5639 656.902 16.1816 655.55 17.1917C654.467 14.4961 652.798 12.0674 650.661 10.0761C648.524 8.08482 645.971 6.57935 643.181 5.66549C640.392 4.75163 637.433 4.45157 634.513 4.78638C631.593 5.1212 628.783 6.08277 626.28 7.60352C625.743 5.3558 624.425 3.36499 622.553 1.97791C620.681 0.590827 618.376 -0.104608 616.038 0.0127561C613.7 0.13012 611.478 1.05285 609.759 2.62018C608.04 4.18752 606.932 6.30012 606.63 8.58995C605.477 8.36759 604.305 8.25528 603.13 8.25457C598.435 8.25195 593.931 10.0886 590.608 13.3609C587.285 16.6331 585.415 21.0731 585.41 25.7046C585.419 26.5466 585.485 27.387 585.61 28.22C585.04 27.9205 584.406 27.7614 583.76 27.7564C582.693 27.7588 581.67 28.1731 580.909 28.9106C580.149 29.6481 579.711 30.6502 579.69 31.7022C579.241 31.6227 578.786 31.5831 578.33 31.5838C576.121 31.5838 574.002 32.4495 572.44 33.9905C570.878 35.5315 570 37.6215 570 39.8008C570 41.9801 570.878 44.0701 572.44 45.6111C574.002 47.1521 576.121 48.0178 578.33 48.0178H674.97C678.049 48.0178 681.002 46.8112 683.18 44.6635C685.357 42.5157 686.58 39.6027 686.58 36.5653C686.58 33.5279 685.357 30.6149 683.18 28.4671C681.002 26.3194 678.049 25.1128 674.97 25.1128V25.093Z" fill="url(#paint2_linear_335_30725)"/>
<path d="M132.57 203.469C131.289 203.47 130.032 203.811 128.93 204.456C128.93 204.13 128.98 203.805 128.98 203.469C128.986 200.725 128.175 198.039 126.648 195.744C125.12 193.45 122.944 191.649 120.388 190.564C117.832 189.479 115.01 189.158 112.271 189.64C109.532 190.123 106.997 191.388 104.98 193.279C104.56 191.383 103.495 189.685 101.961 188.468C100.427 187.252 98.518 186.589 96.55 186.591C95.0358 186.589 93.5482 186.984 92.24 187.736C90.9239 182.778 88.018 178.374 83.9561 175.18C79.8941 171.985 74.8938 170.173 69.7016 170.012C64.5094 169.851 59.4037 171.351 55.1465 174.287C50.8893 177.224 47.7089 181.439 46.08 186.305C44.8542 185.258 43.3542 184.573 41.7519 184.329C40.1496 184.084 38.5099 184.289 37.0205 184.922C35.5311 185.554 34.2524 186.587 33.3309 187.903C32.4094 189.219 31.8823 190.764 31.81 192.362C29.7079 190.763 27.1936 189.778 24.5524 189.517C21.9113 189.257 19.249 189.732 16.8677 190.889C14.4863 192.045 12.4813 193.837 11.08 196.061C9.67875 198.284 8.93737 200.851 8.94 203.469C8.94 203.548 8.94 203.617 8.94 203.686C8.378 203.544 7.80024 203.471 7.22 203.469C5.30514 203.469 3.4687 204.22 2.11469 205.555C0.760672 206.891 0 208.702 0 210.591C0 212.48 0.760672 214.292 2.11469 215.627C3.4687 216.963 5.30514 217.713 7.22 217.713H132.57C134.485 217.713 136.321 216.963 137.675 215.627C139.029 214.292 139.79 212.48 139.79 210.591C139.79 208.702 139.029 206.891 137.675 205.555C136.321 204.22 134.485 203.469 132.57 203.469Z" fill="url(#paint3_linear_335_30725)"/>
<path d="M275.611 90.9495C274.33 90.9507 273.073 91.2914 271.971 91.9359C271.971 91.6104 272.021 91.2849 272.021 90.9495C272.027 88.2048 271.216 85.5188 269.689 83.2247C268.161 80.9305 265.985 79.1292 263.429 78.0441C260.874 76.959 258.051 76.6379 255.312 77.1206C252.573 77.6033 250.038 78.8686 248.021 80.7596C247.608 78.8866 246.566 77.2063 245.063 75.9912C243.56 74.7761 241.685 74.0975 239.742 74.0656C237.799 74.0336 235.902 74.6501 234.359 75.815C232.816 76.98 231.718 78.6251 231.241 80.4834C228.874 78.3987 225.865 77.1578 222.698 76.9593C219.531 76.7608 216.387 77.6161 213.771 79.3885C213.599 77.6023 212.86 75.9153 211.658 74.5686C210.456 73.2218 208.854 72.284 207.079 71.8891C205.305 71.4942 203.45 71.6624 201.778 72.3697C200.106 73.0769 198.704 74.2871 197.771 75.8274C197.007 72.5827 195.559 69.5328 193.522 66.8759C191.485 64.2189 188.905 62.0143 185.948 60.4052C182.991 58.7961 179.724 57.8185 176.359 57.5358C172.994 57.2532 169.607 57.6719 166.417 58.7647C163.227 59.8574 160.305 61.5999 157.842 63.8788C155.379 66.1578 153.43 68.9223 152.12 71.9928C150.811 75.0633 150.171 78.3712 150.241 81.7017C150.312 85.0321 151.092 88.3106 152.531 91.3243C151.538 90.9932 150.483 90.8795 149.441 90.9911C148.398 91.1027 147.393 91.437 146.495 91.9706C145.597 92.5042 144.827 93.2245 144.24 94.0812C143.652 94.9379 143.261 95.9106 143.093 96.9316C142.925 97.9525 142.985 98.9974 143.268 99.9933C143.551 100.989 144.05 101.912 144.731 102.699C145.413 103.485 146.259 104.116 147.213 104.546C148.166 104.977 149.203 105.198 150.251 105.194H275.611C277.526 105.194 279.363 104.443 280.717 103.108C282.071 101.772 282.831 99.9604 282.831 98.0716C282.831 96.1827 282.071 94.3711 280.717 93.0355C279.363 91.6998 277.526 90.9495 275.611 90.9495Z" fill="url(#paint4_linear_335_30725)"/>
<path d="M241.584 65.0456H253.584C254.379 65.0454 255.162 64.8523 255.864 64.4834C256.565 64.1146 257.164 63.5812 257.608 62.9302C258.051 62.2793 258.326 61.5308 258.407 60.7506C258.488 59.9704 258.374 59.1825 258.074 58.4562C257.774 57.7299 257.298 57.0874 256.687 56.5854C256.076 56.0835 255.349 55.7373 254.571 55.5775C253.792 55.4177 252.986 55.4492 252.223 55.6691C251.46 55.8889 250.763 56.2905 250.194 56.8385C250.194 56.73 250.194 56.6313 250.194 56.5228C250.194 54.8371 249.687 53.1894 248.738 51.7878C247.789 50.3862 246.439 49.2938 244.86 48.6488C243.282 48.0037 241.544 47.8349 239.869 48.1638C238.193 48.4926 236.653 49.3043 235.445 50.4963C234.236 51.6882 233.413 53.2068 233.08 54.8601C232.747 56.5133 232.918 58.227 233.572 59.7843C234.226 61.3417 235.333 62.6728 236.754 63.6093C238.175 64.5458 239.845 65.0456 241.554 65.0456H241.584Z" fill="white"/>
<defs>
<linearGradient id="paint0_linear_335_30725" x1="1192.1" y1="238.209" x2="1194.3" y2="277.358" gradientUnits="userSpaceOnUse">
<stop stop-color="white"/>
<stop offset="1" stop-color="white" stop-opacity="0"/>
</linearGradient>
<linearGradient id="paint1_linear_335_30725" x1="1069" y1="67.4258" x2="1073" y2="126.426" gradientUnits="userSpaceOnUse">
<stop stop-color="white"/>
<stop offset="1" stop-color="white" stop-opacity="0"/>
</linearGradient>
<linearGradient id="paint2_linear_335_30725" x1="625.958" y1="12.2867" x2="628.628" y2="51.6289" gradientUnits="userSpaceOnUse">
<stop stop-color="white"/>
<stop offset="1" stop-color="white" stop-opacity="0"/>
</linearGradient>
<linearGradient id="paint3_linear_335_30725" x1="67.0992" y1="182.209" x2="69.3008" y2="221.358" gradientUnits="userSpaceOnUse">
<stop stop-color="white"/>
<stop offset="1" stop-color="white" stop-opacity="0"/>
</linearGradient>
<linearGradient id="paint4_linear_335_30725" x1="210.119" y1="69.6667" x2="212.323" y2="108.84" gradientUnits="userSpaceOnUse">
<stop stop-color="white"/>
<stop offset="1" stop-color="white" stop-opacity="0"/>
</linearGradient>
</defs>
</svg>
