<svg id="prevention-an" xmlns="http://www.w3.org/2000/svg" xmlns:xlink="http://www.w3.org/1999/xlink" viewBox="0 0 1101 273">
  <style>
    /* SEESAW START */ 

    @keyframes pr-ss {
      0% {
        transform: none;
      }
      100% {
        transform: rotate(18deg);
      }
    }

    #prevention-an #seesaw {
      transform-origin: 356.73px 229.92px;
      animation: pr-ss 3s ease-in-out both infinite alternate;
    }


    @keyframes pr-ss-boy {
      0% {
        transform: none;
      }
      100% {
        transform: rotate(-18deg);
      }
    }

    #prevention-an #boy-ll {
      transform-origin: 312.34px 240.01px;
    }
    #prevention-an #boy-rl {
      transform-origin: 318.95px 242.79px;
    }
    #prevention-an #boy-head {
      transform-origin: 304.99px 222.46px;
    }

    #prevention-an #boy-ll, #prevention-an #boy-rl, #prevention-an #boy-head {
      animation: pr-ss-boy 3s ease-in-out both infinite alternate;
    }

    @keyframes pr-ss-girl-lb {
      0% {
        transform: none;
      }
      100% {
        transform: rotate(-13deg);
      }
    }
    
    #prevention-an #girl-ll {
      transform-origin: 398.75px 216.34px;
    }
    #prevention-an #girl-rl {
      transform-origin: 391.07px 213.15px;
    }
    #prevention-an #girl-body {
      transform-origin: 407.84px 205.3px;
    }

    #prevention-an #girl-ll, #prevention-an #girl-rl, #prevention-an #girl-body {
      animation: pr-ss-girl-lb 3s ease-in-out both infinite alternate;
    }

    @keyframes pr-ss-girl-head {
      0% {
        transform: none;
      }
      100% {
        transform: rotate(-10deg);
      }
    }

    #prevention-an #girl-head {
      transform-origin: 407.23px 187.26px;
      animation: pr-ss-girl-head 3s ease-in-out both infinite alternate;
    }

    /* SEESAW END */ 


    /* SWING START */ 

    @keyframes pr-sw {
      0% {
        transform: none;
      }
      100% {
        transform: rotate(15deg);
      }
    }

    #prevention-an #girl-swing {
      transform-origin: 871.34px 103.62px;
      animation: pr-sw 2s ease-in-out both infinite alternate;
    }

    @keyframes pr-sw-head {
      0% {
        transform: none;
      }
      100% {
        transform: rotate(-10deg);
      }
    }

    #prevention-an #swing-head {
      transform-origin: 884.23px 139.81px;
      animation: pr-sw-head 2s ease-in-out both infinite alternate;
    }

    #prevention-an #swing-rl {
      transform-origin: 892.3px 158.24px;
      animation: pr-sw 2s ease-in-out both infinite alternate;
    }

    /* SWING END */


    /* KITE START */

    @keyframes pr-kite-group {
      0% {
        transform: none;
      }
      100% {
        transform: rotate(-5deg);
      }
    }

    #prevention-an #kite-group {
      transform-origin: 604.74px 192.38px;
      animation: pr-kite-group 2.5s ease-in-out both infinite alternate;
    }

    @keyframes pr-kite {
      0% {
        transform: none;
      }
      100% {
        transform: translate(-15px, -7px);
      }
    }

    #prevention-an #kite {
      animation: pr-kite 1.5s ease-in-out both infinite alternate;
    }

    @keyframes pr-kite-full {
      0% {
        transform: none;
      }
      100% {
        transform: rotate(15deg);
      }
    }

    #prevention-an #kite-full {
      transform-origin: 390.09px 47.23px;
      animation: pr-kite-full 1.4s ease-in-out both infinite alternate;
    }

    @keyframes pr-kite-tail {
      0% {
        transform: none;
      }
      100% {
        transform: skewX(15deg) skewY(-15deg);
      }
    }

    #prevention-an #kite-tail {
      transform-origin: 390.09px 47.23px;
      animation: pr-kite-tail 1.2s ease-in-out both infinite alternate;
    }

    @keyframes pr-kite-man-head {
      0% {
        transform: none;
      }
      100% {
        transform: rotate(-10deg);
      }
    }

    #prevention-an #kite-man-head {
      transform-origin: 598.34px 189.88px;
      animation: pr-kite-man-head 2s ease-in-out both infinite alternate;
    }

    @keyframes pr-kite-man-rh {
      0% {
        transform: none;
      }
      100% {
        transform: rotate(10deg);
      }
    }

    #prevention-an #kite-man-rh {
      transform-origin: 593.96px 194.73px;
      animation: pr-kite-man-rh 2.5s ease-in-out both infinite alternate;
    }

    @keyframes pr-kite-second-head {
      0% {
        transform: none;
      }
      100% {
        transform: rotate(5deg);
      }
    }

    #prevention-an #second-man-head {
      transform-origin: 556.68px 185.41px;
      animation: pr-kite-second-head 2.5s ease-in-out both infinite alternate;
    }

    @keyframes pr-kite-second-rh {
      0% {
        transform: none;
      }
      100% {
        transform: rotate(-25deg);
      }
    }

    #prevention-an #second-man-rh {
      transform-origin: 552.9px 187.8px;
      animation: pr-kite-second-rh 2.5s ease-in-out both infinite alternate;
    }

    /* KITE END */

    @keyframes pr-bird-x {
      0% {
        transform: none;
      }
      100% {
        transform: translateX(-50px);
      }
    }

    @keyframes pr-bird-y {
      0% {
        transform: translateY(10px) rotate(15deg);
      }
      100% {
        transform: translateY(30px) rotate(0deg);
      }
    }

    #prevention-an #bird {
      animation: pr-bird-x 5s ease-in-out both infinite alternate;
    }

    #prevention-an #bird-outer {
      transform-origin: 245.2px 8.6px;
      animation: pr-bird-y 5s -2.5s ease-in-out both infinite alternate;
    }

    @keyframes pr-bee-y {
      0% {
        transform: none;
      }
      100% {
        transform: translateY(-5px);
      }
    }

    #prevention-an #bee {
      animation: pr-bee-y .7s ease-in-out both infinite alternate;
    }
  </style>
  <defs>
    <linearGradient id="pr-lingrad" x1="112.02" y1="77.76" x2="112.02" y2="247.14" gradientUnits="userSpaceOnUse">
      <stop offset="0" stop-color="#883434"/>
      <stop offset="0.12" stop-color="#8d3444"/>
      <stop offset="0.63" stop-color="#9f3743"/>
      <stop offset="1" stop-color="#b9344c"/>
    </linearGradient>
    <linearGradient id="pr-lingrad-2" x1="215.36" y1="72.56" x2="215.36" y2="248.12" xlink:href="#pr-lingrad"/>
    <linearGradient id="pr-lingrad-3" x1="310.2" y1="72.9" x2="310.2" y2="246.66" xlink:href="#pr-lingrad"/>
    <linearGradient id="pr-lingrad-4" x1="404.38" y1="70.48" x2="404.38" y2="247.62" xlink:href="#pr-lingrad"/>
    <linearGradient id="pr-lingrad-5" x1="498.99" y1="72.9" x2="498.99" y2="246.66" xlink:href="#pr-lingrad"/>
    <linearGradient id="pr-lingrad-6" x1="601.27" y1="72.66" x2="601.27" y2="247.86" xlink:href="#pr-lingrad"/>
    <linearGradient id="pr-lingrad-7" x1="706.29" y1="75.32" x2="706.29" y2="245.48" xlink:href="#pr-lingrad"/>
    <linearGradient id="pr-lingrad-8" x1="781.56" y1="75.08" x2="781.56" y2="245.72" xlink:href="#pr-lingrad"/>
    <linearGradient id="pr-lingrad-9" x1="868.85" y1="73.15" x2="868.85" y2="247.62" xlink:href="#pr-lingrad"/>
    <linearGradient id="pr-lingrad-10" x1="983.77" y1="72.66" x2="983.77" y2="247.86" xlink:href="#pr-lingrad"/>
    <linearGradient id="pr-lingrad-11" x1="105.9" y1="245.45" x2="105.9" y2="74.11" gradientUnits="userSpaceOnUse">
      <stop offset="0" stop-color="#292561"/>
      <stop offset="0.02" stop-color="#2f2560"/>
      <stop offset="0.42" stop-color="#442874"/>
      <stop offset="0.76" stop-color="#4f2a7c"/>
      <stop offset="1" stop-color="#672e88"/>
    </linearGradient>
    <linearGradient id="pr-lingrad-12" x1="210.68" y1="246.41" x2="210.68" y2="71.2" xlink:href="#pr-lingrad-11"/>
    <linearGradient id="pr-lingrad-13" x1="306.87" y1="244.96" x2="306.87" y2="72.9" xlink:href="#pr-lingrad-11"/>
    <linearGradient id="pr-lingrad-14" x1="402.4" y1="245.93" x2="402.4" y2="70" xlink:href="#pr-lingrad-11"/>
    <linearGradient id="pr-lingrad-15" x1="498.36" y1="244.96" x2="498.36" y2="72.9" xlink:href="#pr-lingrad-11"/>
    <linearGradient id="pr-lingrad-16" x1="602.09" y1="246.17" x2="602.09" y2="71.93" xlink:href="#pr-lingrad-11"/>
    <linearGradient id="pr-lingrad-17" x1="707.11" y1="243.75" x2="707.11" y2="71.69" xlink:href="#pr-lingrad-11"/>
    <linearGradient id="pr-lingrad-18" x1="784.94" y1="244" x2="784.94" y2="73.63" xlink:href="#pr-lingrad-11"/>
    <linearGradient id="pr-lingrad-19" x1="873.46" y1="245.93" x2="873.46" y2="71.45" xlink:href="#pr-lingrad-11"/>
    <linearGradient id="pr-lingrad-20" x1="990.04" y1="246.17" x2="990.04" y2="71.93" xlink:href="#pr-lingrad-11"/>
    <linearGradient id="pr-lingrad-21" x1="947.18" y1="104.32" x2="995.22" y2="104.32" gradientTransform="matrix(1, 0, 0, -1, 0, 274)" gradientUnits="userSpaceOnUse">
      <stop offset="0" stop-color="#ee453d"/>
      <stop offset="1" stop-color="#f2b638"/>
    </linearGradient>
    <linearGradient id="pr-lingrad-22" x1="476.17" y1="113.54" x2="450.29" y2="68.71" xlink:href="#pr-lingrad-21"/>
    <linearGradient id="pr-lingrad-23" x1="18.77" y1="108.36" x2="66.81" y2="108.36" xlink:href="#pr-lingrad-21"/>
    <linearGradient id="pr-lingrad-24" x1="154.4" y1="89.9" x2="190.71" y2="89.9" xlink:href="#pr-lingrad-21"/>
    <linearGradient id="pr-lingrad-25" x1="738.67" y1="97.44" x2="780.46" y2="97.44" xlink:href="#pr-lingrad-21"/>
    <linearGradient id="pr-lingrad-26" x1="303.23" y1="10.51" x2="319.38" y2="10.51" gradientTransform="matrix(1, 0, 0, -1, 0, 274)" gradientUnits="userSpaceOnUse">
      <stop offset="0" stop-color="#ee453d"/>
      <stop offset="0.19" stop-color="#ee543c"/>
      <stop offset="0.55" stop-color="#ef7c3a"/>
      <stop offset="1" stop-color="#f2b638"/>
    </linearGradient>
    <linearGradient id="pr-lingrad-27" x1="629.04" y1="25.37" x2="707.3" y2="25.37" xlink:href="#pr-lingrad-26"/>
    <linearGradient id="pr-lingrad-28" x1="617.99" y1="21.86" x2="548.79" y2="21.86" gradientTransform="matrix(1, 0, 0, -1, 0, 274)" gradientUnits="userSpaceOnUse">
      <stop offset="0" stop-color="#ee453d"/>
      <stop offset="0.17" stop-color="#ee493c"/>
      <stop offset="0.37" stop-color="#ee573c"/>
      <stop offset="0.57" stop-color="#ef6d3b"/>
      <stop offset="0.78" stop-color="#f08d39"/>
      <stop offset="1" stop-color="#f2b638"/>
    </linearGradient>
    <mask id="mask" x="278.77" y="0" width="346.29" height="229" maskUnits="userSpaceOnUse">
      <rect x="278.77" width="327.86" height="220.91" fill="#fff"/>
    </mask>
    <mask id="mask-2" x="847.78" y="104.72" width="64.55" height="70.98" maskUnits="userSpaceOnUse">
      <rect x="847.78" y="108.36" width="64.55" height="67.34" fill="#fff"/>
    </mask>
    <linearGradient id="pr-lingrad-29" x1="284.99" y1="21.87" x2="371.31" y2="21.87" xlink:href="#pr-lingrad-26"/>
    <linearGradient id="pr-lingrad-30" x1="368.56" y1="23.92" x2="407.54" y2="27.74" xlink:href="#pr-lingrad-26"/>
  </defs>
  <path d="M22.87,246.75l57.82-42.34,86.08,9.1,108.8-42.92,72.7,30.93L368.74,190l15.8,11.57,82.84-39.45,72,38.55,19-10.67,14.21,10.67,102.61-29.38L750,197.52l25-9.67,36.64,15.52,63.37-24,71.16,24,57.65-24,39.38,29.82,33.76,36Z" fill="#55a5da"/>
  <path d="M1071.47,251,947.38,222.81,921.82,233.4,816.39,209.22l-70.46,17.42-19.84-6.52-15.31,6.52-80.29-22.23-69.81,21.72-18.45-6-13.77,6L429,209.58l-72.43,14.81-24.24-5.45-35.49,8.74-61.43-13.5-69,13.5-55.87-13.5L72.44,231,23.77,251.25l1053,.89" fill="#3580af"/>
  <g id="letters-back">
    <path d="M153.85,125.93c0-13.89-4-26.13-12.31-34.73l0,0c-1.21-1.18-2.51-2.35-3.86-3.48-4.73-4-10-7.47-14.17-9a11.9,11.9,0,0,0-9.2,0,66.55,66.55,0,0,0-7.9-.45A200.38,200.38,0,0,0,70.2,82l2.12,165.11L100.64,245l-.22-63.47C131.29,177.24,153.85,162.45,153.85,125.93Zm-53.43,28.64-.21-47.48c4-.24,8.51,0,12.13,1.44v0c6.82,2.63,11.49,9.31,11.49,20.76C123.83,144.08,115.33,152.43,100.42,154.57Z" fill="url(#pr-lingrad)"/>
    <path d="M262,235.23l-33.41-70.39c13.41-8.11,22.14-21,22.14-42,0-11.32-2.33-20.85-6.65-28.33h0C238.49,84.59,231,77.74,219.8,73.94s-12.09,1.43-12.09,1.43c-11.93,0-26.82,2.15-37.47,4.29l-1.49,166.08L196,248.12l1.08-72.07,7.23-1.43,30,73v0Zm-64.47-85,.63-46.76c4.68-.48,8.51-.24,11.71,1,7.45,2.62,11.28,10.49,11.28,21.7C221.12,141.2,212,149.32,197.5,150.27Z" fill="url(#pr-lingrad-2)"/>
    <polygon points="343.5 245.72 277.31 246.66 276.89 80.61 339.8 72.9 342.66 77.03 342.02 107.57 307.54 109.48 307.54 143.12 338.9 138.64 341.81 140.96 341.16 170.08 307.33 172 307.33 215.89 333.56 214.64 339.36 212.06 342.23 214.23 343.5 245.72" fill="url(#pr-lingrad-3)"/>
    <polygon points="454.61 77.27 411.2 244.52 386.08 247.62 354.15 79.89 379.05 75.73 383.41 70.48 385.65 74.63 403.54 178.19 427.58 74.17 446.36 76.32 453.35 73.14 454.61 77.27" fill="url(#pr-lingrad-4)"/>
    <polygon points="532.31 245.72 466.11 246.66 465.68 80.61 527.26 77.26 531.28 72.9 531.46 77.03 530.82 107.57 496.33 109.48 496.33 143.12 528.66 141.08 530.42 137.75 530.6 140.96 529.97 170.08 496.12 172 496.12 215.89 529.24 214.31 530.84 212.06 531.03 214.23 532.31 245.72" fill="url(#pr-lingrad-5)"/>
    <path d="M644.7,78,638.52,246.2l-26.39,1.66-27.46-97.11v96.87l-26.82.24.64-169.41.2-4.1,4.49,3.75,27-2,26.4,94.73,1.49-94,1.06-4.13s1.44,2,3.07,4.32Z" fill="url(#pr-lingrad-6)"/>
    <polygon points="753.2 101.71 750.28 105.43 720.47 106.61 718.98 244.76 690.03 245.48 689.19 107.81 660.87 109 659.38 79.41 661.03 75.32 666.26 79.14 749.63 75.83 750.16 99.87 753.2 101.71" fill="url(#pr-lingrad-7)"/>
    <polygon points="797.73 77.75 795.83 245 767.09 245.72 765.39 79.17 768.53 75.08 771.16 78.92 797.73 77.75" fill="url(#pr-lingrad-8)"/>
    <path d="M869.7,75.59a34.25,34.25,0,0,0-11.17,1.84l4.94-4.28c-10.25,3.42-17.46,8.45-26.1,21.17-.73,1.06-1.46,2.17-2.2,3.34-9.3,15.13-14.86,37.44-14.86,65,0,53.45,19.37,84.94,46.61,84.94h0c27.67,0,50.45-27.2,50.45-89C917.38,106.85,900.77,75.59,869.7,75.59Zm-.65,140.06c-13.62,0-18.95-19.57-18.95-55.36,0-32,5.12-54.4,18.95-54.4,14.27,0,18.73,22.44,18.73,56.32S882.67,215.65,869.05,215.65Z" fill="url(#pr-lingrad-9)"/>
    <polygon points="1027.19 77.99 1021.02 246.2 994.62 247.86 967.17 150.75 967.17 247.62 940.35 247.86 940.98 78.45 946.65 74.35 950.2 77.76 972.7 76.07 999.1 170.8 1000.59 76.79 1007.09 72.66 1011.01 77.26 1027.19 77.99" fill="url(#pr-lingrad-10)"/>
  </g>
  <g id="letters-front">
    <path d="M106.21,104.85c-3.66-1.45-8.19-1.69-12.31-1.45l.21,48.16c15.12-2.19,23.75-10.65,23.75-25.65,0-11.62-4.75-18.4-11.66-21.06ZM94.13,178.9l.21,64.37-28.71,2.18L63.48,78a204.71,204.71,0,0,1,36.69-3.88c32.82,0,48.15,21.06,48.15,48.4C148.32,159.54,125.43,174.54,94.13,178.9Z" fill="url(#pr-lingrad-11)"/>
    <path d="M205.08,100.74c-3.24-1.22-7.12-1.46-11.87-1l-.65,47.43c14.68-1,24-9.2,24-24.44C216.52,111.38,212.63,103.4,205.08,100.74ZM229.9,245.93l-30.44-74.05-7.33,1.45L191,246.41,163.4,244l1.51-168.44c10.79-2.18,25.91-4.35,38-4.35,27,0,43.61,17.66,43.61,48.16,0,21.29-8.85,34.37-22.45,42.59L258,233.34l-28.06,12.58Z" fill="url(#pr-lingrad-12)"/>
    <path d="M273.52,245l-.43-168.42L339.8,72.9l-.65,31-35,1.94v34.12l34.75-2.19-.64,29.53L304,169.22v44.53l35.4-1.69,1.3,31.94Z" fill="url(#pr-lingrad-13)"/>
    <path d="M409.31,242.79l-25.48,3.14L351.45,75.8l32-5.32,18.13,105L425.94,70l27.41,3.14Z" fill="url(#pr-lingrad-14)"/>
    <path d="M465,245l-.44-168.42,66.71-3.64-.65,31-35,1.94v34.12l34.76-2.19-.64,29.53-34.33,1.94v44.53l35.39-1.69,1.3,31.94Z" fill="url(#pr-lingrad-15)"/>
    <path d="M639.87,244.48l-26.76,1.69-27.85-98.49v98.25l-27.22.24.65-171.82,32.17-2.42L617.63,168l1.52-95.35,27,1.21Z" fill="url(#pr-lingrad-16)"/>
    <path d="M723,102.9,721.47,243l-29.36.72-.86-139.63-28.72,1.21-1.5-30,91.52-3.63.65,30Z" fill="url(#pr-lingrad-17)"/>
    <path d="M799.41,243.27l-29.15.73L768.53,75.08l32.82-1.45Z" fill="url(#pr-lingrad-18)"/>
    <path d="M873.67,102.19c-14,0-19.22,22.74-19.22,55.17,0,36.3,5.4,56.15,19.22,56.15s19-19.85,19-54.21S888.13,102.19,873.67,102.19Zm-2.16,143.74c-27.63,0-47.27-31.94-47.27-86.15s21.16-88.33,50.09-88.33c31.52,0,48.35,31.71,48.35,84.22,0,62.68-23.1,90.26-51.15,90.26Z" fill="url(#pr-lingrad-19)"/>
    <path d="M1027.81,244.48l-26.76,1.69L973.2,147.68v98.25l-27.2.24.65-171.82,32.15-2.42L1005.58,168l1.51-95.35,27,1.21Z" fill="url(#pr-lingrad-20)"/>
  </g>
  <path d="M1100.54,258c0,7.93-11.55,14.37-25.82,14.37H25.82C11.56,272.35,0,265.91,0,258s11.55-14.36,25.82-14.36H1074.74c14.25,0,25.82,6.43,25.82,14.36Z" fill="#f2b638"/>
  <path d="M25.82,272.35H1074.74c14.25,0,25.82-6.44,25.82-14.37H0C0,265.91,11.55,272.35,25.82,272.35Z" fill="#f08d46"/>
  <path d="M182.88,242.64a13.74,13.74,0,0,0-4.43-10c1.85.21,3.06,2,3.69,3.76s1,3.66,2.27,5a7.42,7.42,0,0,1,1.44-8.15q1.08,5,2.14,9.91A32.76,32.76,0,0,1,194,233c-.42,2-2.11,3.49-3.07,5.31s-.7,4.72,1.31,5.15l-11.94.13.62-.72" fill="#f2b638"/>
  <path d="M217.93,245.32c.74-2.62,1.45-5.24,2.19-7.87a24.87,24.87,0,0,0,1.73,7.79,4.12,4.12,0,0,0,1-3.41c.33,1,.65,2,1,3.08a8.92,8.92,0,0,0,3.14-5.48c.6,1.3,1.19,2.61,1.79,3.9a10.57,10.57,0,0,0,1.31-5.25,13.16,13.16,0,0,1,3.09,4.91c.24.72.59,1.6,1.35,1.65,1.18.1,1.31-1.69,1-2.81.36.77,1.24,1.14,1.91,1.67s1.17,1.58.58,2.21a1.82,1.82,0,0,1-1.24.43,38.15,38.15,0,0,1-10.77-.65c-3.16-.65-6.31-1.71-9.51-1.38" fill="#f2b638"/>
  <path d="M265.47,243.9a9.26,9.26,0,0,0-.38-5,6.91,6.91,0,0,1,2.9,4.76,8.25,8.25,0,0,1,3.84-7.42,25.55,25.55,0,0,1-.17,7.56,36.68,36.68,0,0,1,7.51-14.34c-.6,4.76-1.19,9.54-1.78,14.3a8,8,0,0,0,3-5.23c.55,1.51,1.1,3,1.63,4.52a23.43,23.43,0,0,1-16.69.61" fill="#f2b638"/>
  <path d="M398.19,243.83a20.13,20.13,0,0,0-2-9.13,16.4,16.4,0,0,1,5,8.38,3.05,3.05,0,0,0,.69-3.35l2.35,2.36a2,2,0,0,1,.56-3,1.7,1.7,0,0,1,2.33,1.64,19,19,0,0,1,3.07-6.12l.57,7.61c.84-.87,1.65-1.75,2.48-2.64l.58,1.09a5.64,5.64,0,0,0,1.93-2.32,12.92,12.92,0,0,1,2.3,3.92,1.2,1.2,0,0,1,0,1.15,1.3,1.3,0,0,1-1,.33q-9.62.19-19.24-.14" fill="#f2b638"/>
  <path d="M968.23,200.43a29.34,29.34,0,0,1-12-3.8,10.85,10.85,0,0,1-5.44-7.06c-.55-3,1-6.51,3.89-7.48-5.31-1.33-8.81-7.66-7.13-12.92,1.37-4.29,5.44-7.18,9.66-8.66a2.65,2.65,0,0,0,2.44-2.73,29.92,29.92,0,0,1,1.82-7.63c2.5-6,12.18-15.05,18.87-9.74,2.38,1.88,3.37,5.17,3.69,8.08.1.92.18,8.82-1.3,8.85a12.39,12.39,0,0,1,5.06,23.73c2.72.34,4.51,3.38,4.28,6.14s-2,5.16-4,7c-5.24,5-12.72,6.86-19.94,6.17Z" fill="url(#pr-lingrad-21)"/>
  <path d="M458.37,207.32a24.67,24.67,0,0,1-10.17-3.24,9.28,9.28,0,0,1-4.62-6c-.47-2.57.86-5.53,3.31-6.36a9,9,0,0,1-6.07-11c1.17-3.65,4.63-6.11,8.23-7.37a2.27,2.27,0,0,0,2.08-2.32,24.82,24.82,0,0,1,1.55-6.48c2.13-5.08,10.37-12.8,16.06-8.3,2,1.61,2.87,4.4,3.14,6.89.08.78.15,7.51-1.1,7.54A10.78,10.78,0,0,1,481.15,179a10.91,10.91,0,0,1-6.07,11.89c2.31.28,3.83,2.87,3.63,5.23a9.73,9.73,0,0,1-3.38,6c-4.47,4.22-10.82,5.83-17,5.26Z" fill="url(#pr-lingrad-22)"/>
  <path d="M39.82,196.38a29,29,0,0,1-11.95-3.8,10.83,10.83,0,0,1-5.44-7.06c-.55-3,1-6.5,3.89-7.48-5.31-1.32-8.81-7.66-7.13-12.91,1.37-4.3,5.44-7.18,9.66-8.66a3.69,3.69,0,0,0,2-1.22,3.7,3.7,0,0,0,.42-1.52,30,30,0,0,1,1.82-7.62c2.5-6,12.18-15.06,18.87-9.74,2.38,1.88,3.37,5.17,3.69,8.08.1.92.18,8.82-1.29,8.85a12.66,12.66,0,0,1,12.18,9.77,12.79,12.79,0,0,1-7.13,14c2.72.34,4.51,3.38,4.28,6.14s-2,5.16-4,7.05c-5.24,4.95-12.72,6.85-19.94,6.16Z" fill="url(#pr-lingrad-23)"/>
  <path d="M170.3,207.34a22,22,0,0,1-9-2.87,8.22,8.22,0,0,1-4.11-5.34c-.42-2.28.76-4.91,2.94-5.65a8,8,0,0,1-5.38-9.76c1-3.24,4.12-5.42,7.3-6.55a2.76,2.76,0,0,0,1.52-.91,3,3,0,0,0,.33-1.16,22.72,22.72,0,0,1,1.37-5.76c1.89-4.52,9.22-11.37,14.27-7.37,1.81,1.43,2.55,3.91,2.79,6.12.07.69.14,6.66-1,6.69a9.36,9.36,0,0,1,3.82,17.93c2.06.25,3.41,2.55,3.22,4.63a8.62,8.62,0,0,1-3,5.33c-4,3.74-9.6,5.18-15.07,4.66Z" fill="url(#pr-lingrad-24)"/>
  <path d="M757,203.29a25.43,25.43,0,0,1-10.4-3.31,9.52,9.52,0,0,1-4.73-6.14c-.48-2.64.87-5.67,3.38-6.51A9.18,9.18,0,0,1,739,176.1c1.2-3.73,4.74-6.24,8.4-7.53a3.26,3.26,0,0,0,1.76-1.06,3.1,3.1,0,0,0,.37-1.33,24.93,24.93,0,0,1,1.59-6.61c2.18-5.2,10.59-13.09,16.41-8.48,2.07,1.64,2.93,4.49,3.21,7,.08.8.15,7.67-1.13,7.69a11,11,0,0,1,10.59,8.51,11.12,11.12,0,0,1-6.19,12.14c2.36.29,3.91,2.94,3.72,5.34a10,10,0,0,1-3.46,6.12c-4.55,4.31-11,6-17.34,5.37Z" fill="url(#pr-lingrad-25)"/>
  <path d="M982.79,179.34a99,99,0,0,1-12.2,7.73c0-3.33,0-6.69-.07-10,0-1.08.36-3.73.39-6.08l4.65-6.13a51.56,51.56,0,0,0,5.28-.25c.57-.06.57-1,0-1-1.5.14-3,.22-4.55.24l2.89-3.81c.37-.47-.27-1.17-.63-.69-1.92,2.53-3.83,5.06-5.77,7.58l-.33-4.72c0-.62-.93-.63-.89,0,.14,1.93.27,3.86.41,5.79l-1.13,1.48a3.83,3.83,0,0,0-.89-2.68c-1.84-1.39-1.31,3-1.33,4.1-.13,3.47-.26,6.92-.38,10.39-3-5.06-5.84-10.22-8.51-15.47-.28-.55-1.05-.06-.76.49,2.88,5.66,6,11.21,9.21,16.65-.16,4.09-.3,8.16-.45,12.24a70.63,70.63,0,0,1-9-10.66c-.33-.49-1.11,0-.76.49a71.29,71.29,0,0,0,9.74,11.41q-.36,9.57-.71,19.14c-.39,10.65-1.07,17.53-1.46,28.19l5.15,0s.24-1.9.24-2.21q-.15-22-.28-44c0-3.15,0-6.31-.06-9.45,1.62-.86,3.22-1.76,4.78-2.71a.41.41,0,0,0,.21.1l6.44.91c.56.08.56-.91,0-1l-5.44-.76c2.27-1.41,4.48-2.91,6.65-4.52.46-.35,0-1.2-.45-.85Z" fill="#0a77aa"/>
  <path d="M472.3,188.3a100,100,0,0,1-11.7,6.75c0-2.92-.05-5.84-.06-8.75,0-.94.35-3.25.38-5.31l4.47-5.35q2.53,0,5.07-.21c.53-.05.55-.91,0-.86-1.45.12-2.91.19-4.37.21l2.77-3.33c.36-.42-.25-1-.6-.6l-5.52,6.62c-.12-1.38-.21-2.75-.33-4.13,0-.55-.9-.55-.86,0,.13,1.69.27,3.37.4,5.06l-1.07,1.29a3.24,3.24,0,0,0-.85-2.34c-1.77-1.21-1.25,2.67-1.29,3.58-.13,3-.24,6-.37,9.06q-4.31-6.62-8.17-13.49a.42.42,0,0,0-.73.43c2.77,4.95,5.73,9.79,8.84,14.53-.14,3.56-.29,7.11-.43,10.67a62,62,0,0,1-8.65-9.31c-.33-.44-1.07,0-.73.44a64.26,64.26,0,0,0,9.33,10c-.22,5.56-.45,11.14-.67,16.7L456,247.81l4.94,0s0-4.95,0-5.22l-.27-38.39c0-2.74,0-5.5,0-8.25,1.54-.75,3.07-1.53,4.57-2.37a.4.4,0,0,0,.22.09l6.18.79c.55.07.53-.79,0-.86l-5.23-.66c2.17-1.24,4.3-2.55,6.38-3.95.45-.31,0-1-.43-.73Z" fill="#0a77aa"/>
  <path d="M56.19,174A115.21,115.21,0,0,1,42.43,182c0-3.43,0-6.86-.07-10.29,0-1.11.41-3.83.45-6.24l5.24-6.28c2,0,4-.07,6-.25.63-.06.65-1.06,0-1-1.7.15-3.41.22-5.13.25,1.09-1.29,2.17-2.6,3.26-3.9.41-.49-.3-1.2-.71-.7L45,161.31c-.13-1.62-.25-3.22-.38-4.84-.06-.64-1.06-.65-1,0,.15,2,.31,3.95.46,5.94l-1.26,1.52a3.72,3.72,0,0,0-1-2.75c-2.09-1.43-1.48,3.13-1.53,4.22C40.1,169,40,172.5,39.81,176q-5.07-7.77-9.61-15.86c-.31-.56-1.18-.05-.86.51q4.9,8.73,10.4,17.07l-.51,12.55a73.73,73.73,0,0,1-10.17-10.94c-.38-.51-1.25,0-.86.51a76.93,76.93,0,0,0,11,11.7q-.39,9.82-.8,19.64Q37.7,227.62,37,244l5.81,0s-.05-5.82-.05-6.14q-.16-22.54-.32-45.11c0-3.22,0-6.46-.07-9.69,1.82-.87,3.62-1.8,5.38-2.77a.75.75,0,0,0,.24.1c2.42.31,4.85.62,7.27.91.63.09.63-.91,0-1l-6.13-.77c2.55-1.45,5.06-3,7.49-4.64.54-.35,0-1.22-.5-.86Z" fill="#0a77aa"/>
  <path d="M182.62,190.75a85.06,85.06,0,0,1-10.39,6l-.06-7.78c0-.84.31-2.89.34-4.72l4-4.74c1.51,0,3-.06,4.51-.2.48,0,.48-.8,0-.76-1.29.11-2.58.17-3.88.18l2.47-2.94c.31-.37-.23-.92-.54-.54l-4.9,5.88c-.1-1.23-.18-2.44-.28-3.67,0-.47-.79-.49-.76,0,.11,1.5.24,3,.35,4.5-.32.38-.63.76-1,1.14a2.71,2.71,0,0,0-.76-2.07c-1.58-1.09-1.11,2.36-1.14,3.18-.11,2.68-.21,5.37-.32,8q-3.82-5.87-7.26-12c-.24-.43-.88,0-.65.38q3.71,6.59,7.86,12.9-.18,4.74-.38,9.48a55.15,55.15,0,0,1-7.67-8.27c-.3-.38-.95,0-.65.38a57.5,57.5,0,0,0,8.3,8.85q-.3,7.41-.61,14.83-.51,12.38-1,24.76l4.39,0s0-4.39,0-4.63q-.12-17-.24-34.08c0-2.43,0-4.88-.05-7.32,1.38-.66,2.73-1.37,4.07-2.1a.36.36,0,0,0,.18.07c1.83.22,3.66.47,5.48.69.48.06.48-.69,0-.76l-4.63-.59c1.93-1.1,3.81-2.27,5.66-3.51.41-.27,0-.93-.38-.65Z" fill="#0a77aa"/>
  <path d="M771.24,183.84a102.18,102.18,0,0,1-12,6.9c0-3,0-6-.06-9,0-1,.35-3.32.4-5.44l4.56-5.46c1.73,0,3.46-.07,5.18-.23.55,0,.57-.91,0-.87-1.48.13-3,.2-4.45.21,1-1.12,1.89-2.26,2.83-3.39.35-.43-.25-1-.62-.62l-5.65,6.76c-.11-1.41-.22-2.8-.32-4.21,0-.55-.92-.57-.87,0,.14,1.72.26,3.45.41,5.17-.37.43-.74.87-1.1,1.32a3.22,3.22,0,0,0-.88-2.39c-1.8-1.24-1.28,2.71-1.32,3.66-.13,3.08-.25,6.17-.38,9.25q-4.39-6.75-8.35-13.79c-.27-.49-1,0-.75.44,2.83,5.06,5.86,10,9,14.85-.15,3.63-.29,7.27-.45,10.91a65.19,65.19,0,0,1-8.84-9.5c-.34-.44-1.09,0-.75.43a66.29,66.29,0,0,0,9.55,10.19l-.69,17.07-1.16,28.49,5.06.05s0-5.06,0-5.34q-.15-19.62-.28-39.23l-.06-8.44q2.37-1.14,4.68-2.41a.51.51,0,0,0,.21.09l6.31.8c.55.07.55-.8,0-.87l-5.34-.68c2.23-1.25,4.4-2.61,6.52-4C772.14,184.27,771.7,183.51,771.24,183.84Z" fill="#0a77aa"/>
  <path d="M505.1,243a13.77,13.77,0,0,0-4.42-10c1.84.22,3.06,2,3.69,3.77s1,3.66,2.27,5a7.39,7.39,0,0,1,1.44-8.14c.71,3.29,1.43,6.6,2.14,9.9a32.8,32.8,0,0,1,6-10.13c-.42,2-2.11,3.5-3.07,5.31s-.71,4.72,1.31,5.16l-11.95.12c.21-.23.41-.47.62-.71" fill="#f2b638"/>
  <path d="M540.18,244.88c.73-2.62,1.45-5.24,2.18-7.87a25.15,25.15,0,0,0,1.73,7.79,4.08,4.08,0,0,0,1-3.41c.33,1,.65,2.06,1,3.08a9,9,0,0,0,3.14-5.48c.59,1.3,1.18,2.61,1.79,3.91a10.86,10.86,0,0,0,1.31-5.26,13.1,13.1,0,0,1,3.08,4.92c.24.72.59,1.59,1.35,1.65,1.19.09,1.31-1.69,1-2.82.37.77,1.24,1.14,1.92,1.68s1.17,1.57.57,2.21a1.86,1.86,0,0,1-1.24.42,38.15,38.15,0,0,1-10.77-.65c-3.16-.65-6.31-1.7-9.51-1.38" fill="#f2b638"/>
  <path d="M587.72,244.29a9.37,9.37,0,0,0-.38-5,7,7,0,0,1,2.9,4.76,8.25,8.25,0,0,1,3.83-7.42,25.21,25.21,0,0,1-.17,7.56,36.89,36.89,0,0,1,7.51-14.34q-.88,7.16-1.78,14.3a7.84,7.84,0,0,0,3-5.22c.55,1.5,1.1,3,1.63,4.52a23.43,23.43,0,0,1-16.69.6" fill="#f2b638"/>
  <path d="M720.43,244.21a19.9,19.9,0,0,0-2-9.13,16.4,16.4,0,0,1,5,8.38,3.05,3.05,0,0,0,.69-3.35l2.35,2.36a2,2,0,0,1,.56-3,1.7,1.7,0,0,1,2.33,1.64,19.25,19.25,0,0,1,3.07-6.12c.2,2.54.38,5.07.58,7.61.83-.87,1.64-1.75,2.48-2.64.19.37.37.72.57,1.09a5.57,5.57,0,0,0,1.93-2.32,12.92,12.92,0,0,1,2.3,3.92,1.2,1.2,0,0,1,0,1.15,1.3,1.3,0,0,1-1,.33q-9.62.19-19.24-.14" fill="#f2b638"/>
  <path d="M774.48,244.84a13.73,13.73,0,0,0-4.42-10c1.85.21,3.06,2,3.69,3.76s1,3.66,2.27,5a7.41,7.41,0,0,1,1.44-8.14c.72,3.3,1.43,6.61,2.14,9.9a32.83,32.83,0,0,1,6-10.12c-.42,2-2.11,3.49-3.07,5.31s-.7,4.72,1.31,5.15l-11.94.13c.21-.24.4-.48.62-.72" fill="#f2b638"/>
  <path d="M809.56,246.69c.73-2.62,1.45-5.24,2.18-7.88a25.44,25.44,0,0,0,1.73,7.79,4.11,4.11,0,0,0,1-3.41c.32,1,.64,2.06,1,3.09a9,9,0,0,0,3.14-5.48c.59,1.29,1.18,2.6,1.79,3.9a10.71,10.71,0,0,0,1.31-5.25,13.14,13.14,0,0,1,3.08,4.91c.24.72.6,1.59,1.36,1.65,1.18.1,1.31-1.69.95-2.82.37.78,1.24,1.14,1.92,1.68s1.17,1.58.58,2.21a1.88,1.88,0,0,1-1.24.42,37.49,37.49,0,0,1-10.78-.65c-3.15-.64-6.31-1.7-9.51-1.38" fill="#f2b638"/>
  <path d="M857.08,246.09a9.23,9.23,0,0,0-.38-5,6.93,6.93,0,0,1,2.9,4.76,8.27,8.27,0,0,1,3.83-7.43,25,25,0,0,1-.17,7.57,36.88,36.88,0,0,1,7.51-14.34L869,245.93a7.92,7.92,0,0,0,3-5.23c.55,1.51,1.1,3,1.64,4.52a23.46,23.46,0,0,1-16.7.61" fill="#f2b638"/>
  <path d="M930,245.33a20.12,20.12,0,0,0-2-9.12,16.4,16.4,0,0,1,5,8.38,3.06,3.06,0,0,0,.69-3.36L936,243.6a2,2,0,0,1,.56-3,1.7,1.7,0,0,1,2.33,1.63,19.3,19.3,0,0,1,3.07-6.11c.2,2.53.38,5.07.58,7.61l2.47-2.64.58,1.09a5.53,5.53,0,0,0,1.93-2.33,13.09,13.09,0,0,1,2.3,3.93,1.18,1.18,0,0,1,0,1.14,1.28,1.28,0,0,1-1,.34q-9.62.19-19.24-.14" fill="#f2b638"/>
  <g opacity="0.2">
    <path d="M303.75,259.35a12.28,12.28,0,0,1,4,2.82c1.17,1.4,1.65,3.26,2.59,4.83s2.81,2.91,4.53,2.28c1.43-.52,2.1-2.13,2.6-3.55.57-1.58,1.13-3.17,1.69-4.75a2.16,2.16,0,0,0,.19-1.14c-.19-.91-1.31-1.21-2.25-1.31-3.87-.45-7.74-.9-11.64-1a3.87,3.87,0,0,0-1.48.18,1.21,1.21,0,0,0-.78,1.17" fill="url(#pr-lingrad-26)"/>
  </g>
  <g id="bee">
    <path d="M1002.16,231a4,4,0,0,0,1.11,2.58s.12-.45.13-.52.11-.37.18-.55a4.71,4.71,0,0,1,.21-.52,2.58,2.58,0,0,0,.23-.51,6.5,6.5,0,0,1-1-.13,3.32,3.32,0,0,1-.9-.36Z" fill="#1c4790"/>
    <path d="M1004.93,235.57a2.41,2.41,0,1,0-2.41-2.41A2.41,2.41,0,0,0,1004.93,235.57Z" fill="#fbb436"/>
    <path d="M1006.61,236.38a2.6,2.6,0,1,0-2.59-2.6A2.6,2.6,0,0,0,1006.61,236.38Z" fill="#1c4790"/>
    <path d="M1008.24,236.85a2.41,2.41,0,1,0-2.4-2.4A2.41,2.41,0,0,0,1008.24,236.85Z" fill="#fbb436"/>
    <path d="M1008,234s-.08,0-.08-.09a.25.25,0,0,0-.23-.22.28.28,0,0,0-.21.12v0l0,.08s-.05.07-.1.06a.08.08,0,0,1-.07-.08.43.43,0,0,1,.43-.39.42.42,0,0,1,.39.41.09.09,0,0,1-.08.09Z" fill="#1c4790"/>
    <path d="M1009.76,234.16a.09.09,0,0,1-.08-.09.37.37,0,0,0-.08-.22.33.33,0,0,0-.2-.09.31.31,0,0,0-.21.08.28.28,0,0,0-.09.2.09.09,0,0,1-.08.08.08.08,0,0,1-.09-.08.52.52,0,0,1,.14-.33.54.54,0,0,1,.34-.14.45.45,0,0,1,.33.16.5.5,0,0,1,.12.34.09.09,0,0,1-.08.08Z" fill="#1c4790"/>
    <path d="M1008.47,234.84a.35.35,0,0,1-.22-.08s0,0,0-.06,0,0,.06,0a.29.29,0,0,0,.35,0,0,0,0,0,1,.05,0s0,0,0,.06A.41.41,0,0,1,1008.47,234.84Z" fill="#1c4790"/>
    <path d="M1005.64,233a.22.22,0,0,1-.13-.06c-.35-.35-.76-.69-1.14-1s-.67-.55-1-.84a4.07,4.07,0,0,1-1.41-2.52,1.8,1.8,0,0,1,.39-1.35,1.71,1.71,0,0,1,1.24-.48h0a3.12,3.12,0,0,1,2.72,1.87,5.41,5.41,0,0,1,.24,3.37.17.17,0,0,1-.21.12.16.16,0,0,1-.13-.21,5,5,0,0,0-.23-3.14,2.8,2.8,0,0,0-2.41-1.68h0a1.42,1.42,0,0,0-1,.37,1.46,1.46,0,0,0-.31,1.08,3.58,3.58,0,0,0,1.3,2.3c.31.3.64.56,1,.83s.8.65,1.17,1a.16.16,0,0,1,0,.24.22.22,0,0,1-.13.06Z" fill="#1c4790"/>
    <path d="M1008.15,232s-.12,0-.14-.07a.16.16,0,0,1,0-.24,4.37,4.37,0,0,0,1.24-1.18,3,3,0,0,0,.55-1.74,1.7,1.7,0,0,0-.85-1.46,1.72,1.72,0,0,0-1.9.32,3,3,0,0,0-.89,1.9,9.25,9.25,0,0,0,.1,2.23.18.18,0,1,1-.35,0,9.7,9.7,0,0,1-.1-2.29,3.39,3.39,0,0,1,1-2.12,2.11,2.11,0,0,1,2.3-.36,2.08,2.08,0,0,1,1,1.76,3.37,3.37,0,0,1-.61,1.93,5,5,0,0,1-1.32,1.27.18.18,0,0,1-.1,0Z" fill="#1c4790"/>
  </g>
  <path d="M917.85,245.24a1,1,0,0,1-1-1V213.82a1,1,0,0,1,2,0v30.42A1,1,0,0,1,917.85,245.24Z" fill="#0a77aa"/>
  <path d="M964.22,213H964a.87.87,0,0,0-.88.87v30.67a.87.87,0,0,0,.88.87h.25a.87.87,0,0,0,.87-.87V213.82A.87.87,0,0,0,964.22,213Z" fill="#0a77aa"/>
  <path d="M968.7,218.47H914.33a3.63,3.63,0,0,1,3.63-3.63h47.57a3.14,3.14,0,0,1,3.15,3.15v.48Z" fill="#f2e904"/>
  <path d="M968.59,219.68H914.22v3.64h54.37Z" fill="#f2e904"/>
  <path d="M968.46,224.18H914.09v3.63h54.37Z" fill="#f2e904"/>
  <path d="M906.93,235.22l8.37-5.83,54.37.36,7.26,5.23Z" fill="#f2e904"/>
  <path d="M911.3,249.18a1,1,0,0,1-1-1V236.32a1,1,0,0,1,1.94,0v11.89A1,1,0,0,1,911.3,249.18Z" fill="#0a77aa"/>
  <path d="M972.46,249.53a1,1,0,0,1-1-1V236.67a1,1,0,1,1,1.94,0v11.89A1,1,0,0,1,972.46,249.53Z" fill="#0a77aa"/>
  <path d="M977,234.91h-70v1.21h70Z" fill="#1a231d"/>
  <path d="M912.33,231.5h1.6l4.36.06,6.46.05,7.83.07,8.65.09,8.69.08,8.1.07,6.85.06,4.93,0,2.34,0h.09a.19.19,0,0,0,0-.37h-1.6l-4.35-.05-6.47-.06L952,231.5l-8.65-.08-8.69-.09-8.1-.07-6.84,0-4.93-.05-2.34,0h-.1A.19.19,0,0,0,912.33,231.5Z" fill="#e91d25"/>
  <path d="M909.84,233.33l3.88,0,9.36.12,11.26.14,9.75.13c1.09,0,2.16,0,3.24,0,.51,0,1,0,1.54,0h.07a.18.18,0,1,0,0-.36l-3.89,0-9.35-.11-11.27-.14-9.75-.13c-1.08,0-2.15,0-3.24,0-.51,0-1-.06-1.53,0h-.07A.18.18,0,1,0,909.84,233.33Z" fill="#e91d25"/>
  <path d="M900.46,250.42a14.11,14.11,0,0,0-1.39-6.35,11.5,11.5,0,0,1,3.47,5.84,2.12,2.12,0,0,0,.48-2.34l1.63,1.65a1.39,1.39,0,0,1,.4-2.07,1.18,1.18,0,0,1,1.62,1.14,13.19,13.19,0,0,1,2.14-4.25c.14,1.76.27,3.53.41,5.29.57-.6,1.15-1.22,1.71-1.83l.41.76a3.72,3.72,0,0,0,1.34-1.62,9.59,9.59,0,0,1,1.61,2.74.8.8,0,0,1,0,.78.86.86,0,0,1-.72.24c-4.47.09-9,.06-13.41-.09" fill="#f08d46"/>
  <g id="bird">
    <path d="M248.26,11.42c3.26-4.48,2.9-7.31,1.17-11.42,4.36,3.92,3.78,10.35,1.57,13.41s-8.17,5.59-13.23,2.66c4.45.38,7.24-.15,10.51-4.63Z" fill="#b47273" fill-rule="evenodd"/>
    <path d="M250.13,11.4c1.8,1.31,3,2.8,2.59,3.32s-2.16-.13-4-1.44c-3.72-2.7-7.51-5-11.14-7.91,5.63,3.36,15.11,9.35,2-2.75,3.87,2.56,6.8,6.07,10.52,8.78Z" fill="#b47273" fill-rule="evenodd"/>
  </g>
  <path d="M707.28,246c-8.78,2.19-17.62,4.37-26.65,4.81-6.65.32-13.34-.31-20,.25s-13.46,2.33-20.08,1.13a46.24,46.24,0,0,1-10.34-3.64c-.55-.24-1.2-.61-1.19-1.22,3.71-1.27,7.71-1.3,11.62-1.33q16.55-.09,33.09-.19a69.83,69.83,0,0,0,7.38-.31c2.21-.25,4.4-.71,6.62-.81,6.55-.29,13.22,2.51,19.55.81" fill="url(#pr-lingrad-27)"/>
  <path d="M684.22,198.86a1.28,1.28,0,0,1-1.27-1.12c-.14-1.21-.28-3.09-.42-4.9s-.29-3.64-.41-4.81a7,7,0,0,1,.1-3,4.58,4.58,0,0,1,3.28-2.89,45.43,45.43,0,0,1,7.38-1.41,3.47,3.47,0,0,1,3.14.78,5.68,5.68,0,0,1,1.25,3.25c.43,3,.74,6,.92,9a1.28,1.28,0,0,1-2.55.16c-.18-3-.48-5.93-.9-8.84a4.44,4.44,0,0,0-.52-1.81c-.14-.14-.48-.12-1-.06a43.55,43.55,0,0,0-7,1.31c-1,.3-1.42.65-1.59,1.21a5.21,5.21,0,0,0,0,1.93c.14,1.21.28,3.09.42,4.9s.28,3.64.41,4.81a1.27,1.27,0,0,1-1.11,1.41h-.16Z" fill="#ef5230"/>
  <path d="M627.91,248.19a1.92,1.92,0,0,1-.48-3.77c.07,0,7.31-1.93,9.67-2.65l.5-.15c2.22-.68,3.56-1.09,4.74-2.46l39.22-45.34a10.29,10.29,0,0,1,7.31-3.65l10.31-.53a1.92,1.92,0,0,1,.2,3.83l-10.31.53a6.52,6.52,0,0,0-4.62,2.33l-39.22,45.35c-1.9,2.2-4,2.86-6.52,3.61l-.48.14c-2.44.75-9.52,2.62-9.83,2.69a2.12,2.12,0,0,1-.49.06Z" fill="#3cbeeb"/>
  <path d="M694.49,191.54c1.81,17.69,3.66,34.64,6.87,51.79,1.32.1,3.38,1,4.71,1.09-.36-2.86-.74-7-1.09-9.89a31.58,31.58,0,0,1,12,1.94c.55,3.27,1.1,6,1.65,9.26,1.53,0,3.08.53,4.62.53-1-7.46-2.06-16.27-3.09-23.72-.88-6.45-1.65-13-2.67-19.41-.55-3.48-1.37-6.65-3.5-8.14-2.38-1.66-5.35-1-7.87-1.17-1.17-.07-11.45-.67-11.61-2.28ZM702.94,219c.08.42,4,.38,4.29.41,2.38.21,4.75.18,7.12.44a.94.94,0,0,1,.63.23,2.89,2.89,0,0,1,.51,1.43c.36,2.06.86,4.17,1.1,6.28a3.4,3.4,0,0,1-.05,1.61c-.25.56-.95.08-1.91-.09a40.06,40.06,0,0,0-8.16-.65,1.85,1.85,0,0,1-1.84-.73,5.23,5.23,0,0,1-.56-2C703.68,223.65,703.32,221.35,702.94,219Zm-1.64-16.75c1.85,0,3.69,0,5.54,0s3.72,0,5.59,0a1.06,1.06,0,0,1,.64.14,2.6,2.6,0,0,1,.53,1.51c.07.44,1.2,7.89.87,8-3.83.69-8.09-.4-12-.61C702.11,208.24,701.71,205.26,701.3,202.27Z" fill="#f2e904"/>
  <path d="M626.93,246.56l12.84-3.75a9.87,9.87,0,0,0,4.63-3l38.67-44.51a9.5,9.5,0,0,1,6.81-3.38l10-.32,15.32,3.05-10.37.51a8.3,8.3,0,0,0-6,3.23l-39.6,49.07a8.53,8.53,0,0,1-4.83,3.06l-10.51,2.24a7.67,7.67,0,0,1-3.83-.17l-13-3.94a1.11,1.11,0,0,1,0-2.05Z" fill="#1396d3"/>
  <path d="M720.73,244.67a.25.25,0,0,1-.25-.22L714,199.61a.27.27,0,0,1,.23-.29.25.25,0,0,1,.29.22L721,244.38a.28.28,0,0,1-.23.29Z" fill="#fff"/>
  <path d="M704.32,241.68a.24.24,0,0,1-.25-.22l-5.48-39.3a.27.27,0,0,1,.22-.3.29.29,0,0,1,.3.23l5.48,39.3a.27.27,0,0,1-.23.29Z" fill="#fff"/>
  <path d="M712.93,215.13h0l-11.27-1.38a.25.25,0,0,1,.06-.5L713,214.63a.25.25,0,0,1,0,.5Z" fill="#fff"/>
  <path d="M716.62,234.11h0l-12.21-1a.26.26,0,0,1-.24-.28.25.25,0,0,1,.28-.24l12.22,1a.26.26,0,0,1,.24.28.25.25,0,0,1-.26.24Z" fill="#fff"/>
  <path d="M643.78,254.62a1.92,1.92,0,0,1-.35-3.81l9.84-1.81a6.61,6.61,0,0,0,3.86-2.38l40.25-49.47a10.18,10.18,0,0,1,7.35-3.89l10.31-.57a1.91,1.91,0,0,1,.21,3.82l-10.31.56a6.44,6.44,0,0,0-4.59,2.48L660.11,249a10.45,10.45,0,0,1-6.14,3.74l-9.85,1.81a1.38,1.38,0,0,1-.35,0Z" fill="#3cbeeb"/>
  <path d="M700.31,198.07a1.35,1.35,0,0,1-1.33-1.16c-.15-1.23-.31-3.1-.46-4.91s-.31-3.63-.45-4.79a6.8,6.8,0,0,1,.11-3.05c.72-2.11,2.89-2.71,3.59-2.92a54.06,54.06,0,0,1,8.1-1.39,4,4,0,0,1,3.34.75,5.25,5.25,0,0,1,1.39,3.32c.47,3,.81,6,1,9a1.33,1.33,0,0,1-2.66.19c-.2-3-.54-5.92-1-8.82a3.89,3.89,0,0,0-.56-1.76c-.2-.19-.72-.14-1.23-.07a51.64,51.64,0,0,0-7.7,1.32c-1.07.3-1.59.65-1.78,1.2a4.84,4.84,0,0,0,0,1.86c.16,1.22.31,3.1.47,4.9s.31,3.63.45,4.79a1.32,1.32,0,0,1-1.16,1.49h-.15Z" fill="#ef5230"/>
  <path d="M647.27,238.49a.62.62,0,0,1-.18-.07.25.25,0,0,1,0-.37c11.48-12,22.7-24.71,33.35-37.71a.26.26,0,0,1,.41.33c-10.66,13-21.89,25.7-33.38,37.73a.26.26,0,0,1-.19.09Z" fill="#fff"/>
  <path d="M679.71,216.94a.56.56,0,0,1-.17-.06.27.27,0,0,1,0-.37l14.26-17.67a.26.26,0,0,1,.36-.05.27.27,0,0,1,0,.37l-14.25,17.68A.52.52,0,0,1,679.71,216.94Z" fill="#fff"/>
  <g opacity="0.6">
    <path d="M618,246.94c-23.67.21-39.85.52-63.52.73-1.46,0-3,1.83-4.21,2.62s-2,1.9-1.07,3c.68.83,7.86.69,8.93.76,10.54.8,11.51.45,29.37,2.73,10.4,1.33,18.69.09,29-3.14.45-.14.66-1.66.74-2.14s.52-2.75.2-2.39" fill="url(#pr-lingrad-28)"/>
  </g>
  <path d="M569.43,225a20.83,20.83,0,0,1-.28,2.1c-.38,2-1,5.46-3.37,6.31a2,2,0,0,1-.48.12,3,3,0,0,1-1.45,0,2.29,2.29,0,0,1-.91-.53,4.43,4.43,0,0,1-.64-.76c-2.36-3.65-1.74-13.26-1.69-14,2.6-.6,5.17-1.21,7.77-1.8a22.92,22.92,0,0,1,1,8.62Z" fill="#f26f53"/>
  <path d="M565.59,226.27c2-.73,4.76-1.64,8.14-2.56l2.9,2.65c-5.35,5.44-10.47,8.27-13,6.75a4.2,4.2,0,0,1-1.72-4.51C562.33,227.54,563.42,227.06,565.59,226.27Z" fill="#f26f53"/>
  <path d="M551.44,216.15c-.38,2.84-.65,5.22-.82,7a37.08,37.08,0,0,0-.32,5.16,26.06,26.06,0,0,0,1.17,6.63c.88,3.22,2,7.15,3.48,11.67l3.63-.15c-.31-5.93-.61-11.88-.92-17.81l1.72-15-7.94,2.59Z" fill="#f26f53"/>
  <path d="M565.27,231.33a2.13,2.13,0,0,1-.64,1,2.17,2.17,0,0,1-.9.5l-.35.09-.42,0a4.43,4.43,0,0,1-.64-.76.79.79,0,0,0,.22-.05h.09a5.51,5.51,0,0,0,.82-.23,8.6,8.6,0,0,0,.9-.29l.44-.18.44-.19,0,.09Z" fill="#f05b3d"/>
  <path d="M554.18,228.94a2.07,2.07,0,0,1-.93.74,2.33,2.33,0,0,1-2-.09,1.93,1.93,0,0,1-.83-.88l0-.1a1.9,1.9,0,0,0,.46.1l.47.09c.31,0,.62.07.94.08s.63,0,.94,0a2.63,2.63,0,0,0,.48,0l.48,0Z" fill="#f05b3d"/>
  <path d="M570.49,221.59v.74c0,.66,0,1.3,0,1.9-3.42.41-6.83.82-10.26,1.21-.33-2.17-.67-4.35-1-6.52-.23,2.3-.44,4.58-.66,6.88l-9.24-.36c.08-.63.15-1.29.24-2,0-.22.05-.45.08-.67.37-3,.8-6.24,1.31-10,.11-.88.24-1.76.37-2.68a15,15,0,0,1,.6-2.89,6.21,6.21,0,0,1,1.2-2.08c3-3.47,8.9-2.52,9.88-2.37a8.82,8.82,0,0,1,4.15,1.79l0,0a7.35,7.35,0,0,1,.84.93,12.84,12.84,0,0,1,1,1.36c.2.33.3.53.3.53a12.87,12.87,0,0,1,1.22,6v.78c0,2.68,0,5.12,0,7.3Z" fill="#76bfea"/>
  <path d="M569.15,207.78H569c-4.06,0-6.78,3-11.73,4.51a15.28,15.28,0,0,1-6.39.56c.11-.87.24-1.76.37-2.67a14.65,14.65,0,0,1,.6-2.89l11.47-2.24.9-.18,2.89-.23,1.22-.1c.2.8.4,1.59.58,2.39Z" fill="#66beeb"/>
  <path d="M569.27,207.92a20,20,0,0,0-7.92,1.1,13.67,13.67,0,0,0-1.69.75c-.49.25-1,.57-1.69.87a6.92,6.92,0,0,1-3,.65,7.12,7.12,0,0,1-2.21-.42,8.88,8.88,0,0,1-1.83-.93,29.26,29.26,0,0,0,.68-4.22,30.19,30.19,0,0,0,0-4c0-.25,0-.51,0-.76,0-.63-.09-1.28-.14-1.93-.07-.93-.17-1.87-.27-2.79-.14-1.32-.3-2.59-.44-3.69-.19-1.58-.38-2.8-.45-3.31v0a19.73,19.73,0,0,1,2.64-1.35l.86-.34,6.15-1.39a20.41,20.41,0,0,1,7.3.48,81.06,81.06,0,0,0,.55,12.88c.08.72.18,1.45.29,2.2C568.41,203.88,568.82,206,569.27,207.92Z" fill="#4057a6"/>
  <path d="M569.26,207.92a20,20,0,0,0-7.91,1.1c0-.31.31-.58.83-.76,2.72-.94,4.86-6.61,5.6-8.76.09.72.19,1.45.3,2.2.33,2.19.73,4.28,1.18,6.23Z" fill="#3a54a4"/>
  <path d="M559.19,187.15a2.5,2.5,0,0,1-1.93,1.32,2.4,2.4,0,0,1-2.18-.79c0-.3,0-.65,0-1a1.27,1.27,0,0,0,0-.27v0a9,9,0,0,0-.17-1.25.88.88,0,0,0,0-.16c-.07-.35-.16-.67-.23-1l3.69-.29c0,.3.07.64.13,1,0,.13,0,.25.07.39s.11.48.18.74A9.35,9.35,0,0,0,559.19,187.15Z" fill="#f26f53"/>
  <path d="M559.23,184.6c-.24.16-.46.33-.7.47a12.38,12.38,0,0,1-2.32,1.16l-1.13.41a1.27,1.27,0,0,0,0-.27v0a10.89,10.89,0,0,0-.16-1.25l3.56-.41Z" fill="#f05b3d"/>
  <g id="second-man-head">
    <path d="M562,182a5.66,5.66,0,0,1-3,2.75,6.53,6.53,0,0,1-4.34.52,5.76,5.76,0,0,1-3.9-2.84,5.84,5.84,0,0,1,.17-5.22,6.18,6.18,0,0,1,7.35-2.69c3.17,1.17,4.69,5,3.68,7.5Z" fill="#f26f53"/>
    <path d="M553.11,178.72c-.1.27-.36.44-.57.35a.47.47,0,0,1-.19-.63c.09-.27.35-.44.56-.35A.48.48,0,0,1,553.11,178.72Z" fill="#2c2d63"/>
    <path d="M558.32,180.78a.42.42,0,1,1-.76-.28c.1-.27.35-.44.56-.36A.48.48,0,0,1,558.32,180.78Z" fill="#2c2d63"/>
    <path d="M554.54,181.48c-.35-.44-.3-.58,0-.9a5.16,5.16,0,0,0,.64-1l.2.1a5.87,5.87,0,0,1-.67,1c-.26.28-.28.32,0,.68Z" fill="#f05b3d"/>
    <path d="M559.51,179.09c-.06.17-.51.17-1,0s-.83-.45-.76-.64.51-.16,1,0S559.58,178.9,559.51,179.09Z" fill="#f47f40"/>
    <path d="M554.43,177.23c0,.17-.51.17-1,0s-.84-.45-.77-.64.51-.16,1,0S554.5,177,554.43,177.23Z" fill="#f47f40"/>
    <path d="M554.5,183.21a.68.68,0,0,1-.28,0,1.16,1.16,0,0,1-.82-1.15h.21a1,1,0,0,0,.67,1,.93.93,0,0,0,.94-.33l.17.13A1.14,1.14,0,0,1,554.5,183.21Z" fill="#f05b3d"/>
    <path d="M552.81,180.31c0,.17-.48.17-.94,0s-.79-.43-.73-.6.47-.17.94,0S552.87,180.14,552.81,180.31Z" fill="#f1654d"/>
    <path d="M558.73,182.47c-.06.17-.48.17-1,0s-.79-.44-.73-.61.48-.17.94,0S558.78,182.3,558.73,182.47Z" fill="#f1654d"/>
    <path d="M561.18,181.57s1.44-.3,1.25.6-.52,1.47-1.71,1.27S561.18,181.57,561.18,181.57Z" fill="#f26f53"/>
    <path d="M561.61,181.9a.68.68,0,0,1,.27.26.58.58,0,0,1,.1.39.3.3,0,0,1-.11.23.53.53,0,0,1-.21.11.45.45,0,0,1-.2,0,.38.38,0,0,1-.17-.08l.15,0a.27.27,0,0,0,.16,0,.24.24,0,0,0,.18-.22.83.83,0,0,0,0-.31,2,2,0,0,0-.14-.3h0Z" fill="#f05b3d"/>
    <path d="M555.21,175.66a3.29,3.29,0,0,1-4-.46,2.29,2.29,0,0,1-.36-2.13,2,2,0,0,1,1.7-1.25,2.94,2.94,0,0,1,1.42.48l1.19.65a1.75,1.75,0,0,1,1.59-1.34,1.38,1.38,0,0,1,1,.46,1.42,1.42,0,0,1,.33,1.14,2.19,2.19,0,0,1,2.18-.76,1.66,1.66,0,0,1,1.06.83c.11.29.07.54-.14,1.65a1.86,1.86,0,0,1,2-.21s.63.41.63.93-.29.65-1,1.39a1.32,1.32,0,1,1,.34,2.51,1.42,1.42,0,0,1,.92,1.43,1.47,1.47,0,0,1-2,.62,1.06,1.06,0,0,1-.52,0c-.69-.26-.52-1.27-1-2.13-.8-1.42-2.57-.89-4.49-2.68a5.63,5.63,0,0,1-.93-1.1Z" fill="#fab045"/>
  </g>
  <path d="M566.83,191.58c1.87,1.9,3.75,3.8,5.62,5.71-1.06,2.87-2.11,5.74-3.18,8.62l2.69.5c.64-.57,4.74-4.35,4.38-9.43-.16-2.13-1.05-3.79-2.36-6.24-1.47-2.75-2.24-3-2.52-3C570,187.41,568.19,189,566.83,191.58Z" fill="#f26f53"/>
  <path d="M573.9,191.68a8.45,8.45,0,0,1-3.11,6.13c-.31-.21-.63-.43-1-.62-.77-.51-1.55-1-2.34-1.52l-.07,0c-1-.63-2-1.25-2.94-1.86-.18-2.49-.37-5-.55-7.47a59.56,59.56,0,0,1,8.93,1.33,7.85,7.85,0,0,1,1,4.07Z" fill="#4057a6"/>
  <path d="M569.83,197.19c-.77-.51-1.55-1-2.34-1.52l-1.19-6.15Z" fill="#3a54a4"/>
  <path d="M568.77,210.54a1.34,1.34,0,0,0,1.06-.36,3.15,3.15,0,0,0,.52-.51,3,3,0,0,0,.37-.57,10.37,10.37,0,0,0,.94-2.29l2.69-3.24-2-1.38-2.46,3c-.79.67-1.34,1.12-1.74,1.45l-.45.39s-.05.06-.08.07c-.37.32-.57.45-.71.75a.75.75,0,0,0-.08.48.39.39,0,0,0,.18.23c.14.09.24,0,.31.08s0,.12.06.42a.2.2,0,0,0,0,.14.24.24,0,0,0,.15.06c.24,0,.38-.1.42-.06s-.16.27-.09.48a.4.4,0,0,0,.16.18c.2.14.38.07.44.18s-.1.2-.08.31.27.19.33.19Z" fill="#f16c51"/>
  <path d="M569.78,205.27a2.59,2.59,0,0,0-1.42.43c-.51.42-1.31.54-1,.73s.61.06.94.14,1-.44,1-.44l.46-.87Z" fill="#f16c51"/>
  <path d="M568.77,210.54a1.4,1.4,0,0,0,1.06-.36,3.15,3.15,0,0,0,.52-.51,7.38,7.38,0,0,0-2.66-2.65.28.28,0,0,1-.09.07c-.36.32-.56.45-.7.75a.71.71,0,0,0-.09.48.38.38,0,0,0,.19.23c.14.09.24,0,.31.08s0,.12.05.42a.22.22,0,0,0,.06.14.2.2,0,0,0,.14.05c.24,0,.38-.09.42-.05s-.15.27-.08.48a.45.45,0,0,0,.15.18c.2.14.38.07.44.18s-.1.2-.07.31.27.19.32.19Z" fill="#f05f49"/>
  <path d="M560,204.55a18.83,18.83,0,0,1-.81,3.27,22.5,22.5,0,0,1-1.21,2.83,7,7,0,0,1-3,.65,6.58,6.58,0,0,1-2.21-.42,72.12,72.12,0,0,0,4.57-7c1.4-2.43,2.22-4.18,2.69-4,.72.21,0,4.48,0,4.72Z" fill="#3a54a4"/>
  <g id="secand-man-rh">
    <path d="M549.84,188.82,543,185.21c-2.07-2.39-4.16-4.78-6.23-7.19l-2.15.52a17.19,17.19,0,0,0,4.6,9.75c.8.81,5.24,5.35,8.35,3.9a5,5,0,0,0,2.29-3.37Z" fill="#f26f53"/>
    <path d="M533.09,176.76c.09.28.19.47.21.53a5.34,5.34,0,0,0,.55.77c.13.17.31.41.51.7.63,1.61,1.28,3.22,1.92,4.82l2.31-1.15-1.52-3.82c-.23-1.09-.37-1.83-.48-2.37-.05-.21-.09-.41-.14-.62h0a.38.38,0,0,0,0-.1c0-.17-.07-.32-.1-.44h0a1.22,1.22,0,0,0-.09-.27,1.14,1.14,0,0,0-.15-.29.67.67,0,0,0-.41-.33.5.5,0,0,0-.32,0c-.14.1-.13.23-.23.26s-.13-.06-.42-.17a.27.27,0,0,0-.16,0,.29.29,0,0,0-.12.1c-.14.2-.1.4-.17.43s-.17-.29-.41-.33a.43.43,0,0,0-.24.06c-.24.11-.27.32-.38.31s-.18-.2-.24-.23h0a3.12,3.12,0,0,0,.1,2.13Z" fill="#f16c51"/>
    <path d="M536.91,177.86a2.83,2.83,0,0,0,.41-1.52c-.08-.7.24-1.49-.11-1.3s-.4.53-.66.78-.17,1.14-.17,1.14Z" fill="#f16c51"/>
    <path d="M533,174.65a1.2,1.2,0,0,0,0,.49s.37,1.72.8,1.84c.27.06.16-.64,0-1.19.16.52.42,1.23.73,1.38.5.24-.05-2.07-.11-2.27,0,.19.56,2.16,1.07,2.34s-.12-2.38-.17-2.52c.05.13.62,2.13,1,2.24h0c.16,0,.13-.72,0-1.31a3,3,0,0,0-.06-.32c0-.07,0-.14,0-.23h0c0-.09-.05-.17-.09-.27a1.4,1.4,0,0,0-.15-.3c-.19-.25-.33-.31-.41-.32a.53.53,0,0,0-.33,0c-.14.1-.12.23-.22.26s-.13-.06-.42-.17a.29.29,0,0,0-.16,0,.24.24,0,0,0-.12.1c-.15.2-.1.4-.17.42s-.17-.28-.41-.32a.4.4,0,0,0-.24.06c-.24.11-.27.32-.38.31s-.19-.2-.24-.23Z" fill="#f06148"/>
    <path d="M551.82,195.82a1.94,1.94,0,0,1-.29.21l-.33.2a4,4,0,0,1-1.36.41,10.44,10.44,0,0,1-1.36.08,10.64,10.64,0,0,1-6.26-2c.64-3.17,1.26-6.32,1.89-9.49l8.83,2.61h0c.92,3.38.51,6.53-1.17,8Z" fill="#4057a6"/>
  </g>
  <path d="M551.84,199.24l-.38-.22c-.07-.93-.17-1.87-.26-2.79a4,4,0,0,1-1.36.41l.92-4.1.29-1.35.47,4.84.31,3.21Z" fill="#3a54a4"/>
  <path d="M555.34,245.4a8.12,8.12,0,0,1-2.57,2.95c-1.39,1-3.32,1.69-3.19,2.34,0,.18.21.24.28.56.1.51-.3.76-.2,1,.17.45,2.08.59,3.73-.31,1.19-.65,1-1.13,2.12-1.58a17,17,0,0,0,2.49-.75c.58-.28.9-.45,1.08-.8.36-.71-.18-1.52-.5-2.38a7.12,7.12,0,0,1-.2-4.09c-1,1-2,2-3,3.07Z" fill="#f26f53"/>
  <path d="M574.6,226.42a8.1,8.1,0,0,1,3.67,1.32c1.48,1,2.74,2.48,3.32,2.14a.66.66,0,0,0,.31-.42c0-.31-.31-.52-.22-.66s.24,0,.41-.07.4-.71.38-1.09a2.68,2.68,0,0,0-1.09-1.74,2.91,2.91,0,0,0-.65-.46c-.59-.32-1-.26-1.59-.94a17,17,0,0,0-1.59-2.06c-.48-.43-.75-.67-1.14-.71-.79-.09-1.35.71-2,1.33a7.25,7.25,0,0,1-3.74,1.67c1.33.56,2.64,1.14,4,1.7Z" fill="#f26f53"/>
  <path d="M552.15,215.15l-.49-.16,1-3,2,2.26-.38.33L552.86,213Zm5.16,0-1.15-1.81-.42.26,1.59,2.57,1.48-2.79-.45-.24Zm3.78-2.67,1.43,1.59.38-.34-2-2.25-1,3,.48.15Zm4.46,2.15-1.13-1.8-.44.26,1.61,2.57,1.46-2.79-.45-.24Zm4.93-1.14-1.81-2-1,3,.48.15.71-2.15,1.42,1.59.17-.16Zm-19,3.58,1.42,1.59.38-.34-2-2.25-1,3,.48.15Zm4.45,2.17-1.12-1.82-.44.27,1.61,2.56,1.46-2.79-.45-.24Zm3.79-2.68,1.44,1.59.38-.34-2-2.25-1,3,.48.16Zm4.46,2.16-1.14-1.81-.43.27,1.6,2.56,1.48-2.79-.45-.23Zm3.33-2.16,1.43,1.59.37-.34-2-2.25-1,3,.47.16ZM553,221.26l1.42,1.59.38-.34-2-2.25-1,3,.48.16Zm4.44,2.17-1.12-1.82-.44.27,1.61,2.56,1.47-2.79-.45-.23Zm3.81-2.68,1.43,1.6.38-.34-2-2.26-1,3,.49.16Zm4.45,2.17-1.14-1.81-.42.26,1.59,2.57,1.48-2.79-.45-.24Zm4.78-1.33-1.64-1.84-1,3,.48.16.71-2.16,1.4,1.58v-.74Zm-20.9,1.22c0,.23-.05.45-.08.68l1.29,1.45.38-.34Zm13.21-11.66-1.15-1.82-.43.27,1.6,2.56,1.48-2.77-.45-.24Zm3.32-2.17,1.43,1.6.38-.33-2-2.27-1,3,.48.15Z" fill="#fff" opacity="0.54"/>
  <path d="M583.84,248.84l2.2.21-4.3-18.56L594,227.73s.9,19.32,2.81,21.86c.92,1.22,20.1-2.31,20.1-2.31l-.1-1.92-14.41-.51s1.57-12.4,1.74-15.49c.25-4.73,2.45-14.21,2.45-14.21-.62,0-18,2.79-18,2.79-3.2,2.39-15.34,6.19-15.66,8.35-.47,3.08,10.88,22.55,10.88,22.55Z" fill="#355ea0"/>
  <path d="M616.78,245.91l-.09-.55-14.28-.51s2.52-14.4,2.88-16.56a83.18,83.18,0,0,0,1.3-13.14l-3.73,1.31A75.27,75.27,0,0,1,601.58,231c-.51,2.92-1.34,15.16-1.34,15.16A162.09,162.09,0,0,0,616.78,245.91Z" fill="#274d80"/>
  <path d="M586,248.93l-4.27-18.46L594,227.71s-3.33-2-4.69-2.94c0,0,.76,1.46,1.12,2.18l-10.93,2.65s5,11.82,6.26,19.59l.23-.25Z" fill="#274d80"/>
  <path d="M585.94,248.57l.28,1.67h-6.9a8.82,8.82,0,0,1,4.42-1.67,2,2,0,0,0,2.13,0l0,0Z" fill="#3cbeeb"/>
  <path d="M586.23,250.24h-6.9v.47h6.9Z" fill="#fff"/>
  <path d="M616.22,245.36l1.78-.21-.63,5.78s-1.58-.72-1.38-3.75c.23,0,.8-1.16.25-1.76l0-.07Z" fill="#3cbeeb"/>
  <path d="M618.51,245.18l-.63,5.77-.49,0,.63-5.78Z" fill="#fff"/>
  <path d="M617.41,250.45l-2.48-.06a5.32,5.32,0,0,1,2.39-1.52l.09,1.56Z" fill="#3cbeeb"/>
  <path d="M614.86,250.37v.5l2.83,0v-.51Z" fill="#fff"/>
  <g id="kite-man-rh">
    <path d="M573.54,198l2.3,1.91-2.62,2.71-2.7-2.5Z" fill="#c87734"/>
    <path d="M569.66,196.6a2.73,2.73,0,0,0-.28,3.24c.36.53,2.26.42,2.54.49.88-.18,1.93-.45,2-2.1.07-1.25-.52-1.72-1.62-2.16a4.47,4.47,0,0,0-2.65.51Z" fill="#c87734"/>
    <path d="M566.79,194.86c-.14-.24-.36-.48-.21-.73a.28.28,0,0,1,.31-.12,2.93,2.93,0,0,1,1.69,1.26,3.25,3.25,0,0,0,1.9,1.19,18.18,18.18,0,0,0,2.09.33c.37.05.25.55-.11.5-.14,0-.28,0-.44-.06a.26.26,0,0,1-.21.4,4.52,4.52,0,0,1-3.66-.88,10,10,0,0,1-1.37-1.89Z" fill="#c87734"/>
    <path d="M565.63,196.41c-.14-.24-.37-.48-.21-.73a.28.28,0,0,1,.3-.13,3,3,0,0,1,1.7,1.27,3.19,3.19,0,0,0,1.9,1.19,17.68,17.68,0,0,0,2.08.33c.37,0,.26.55-.11.5-.14,0-.28-.05-.44-.06a.25.25,0,0,1-.21.39,4.49,4.49,0,0,1-3.66-.87,10.45,10.45,0,0,1-1.37-1.89Z" fill="#c87734"/>
    <path d="M565.88,198.17c-.2-.19-.46-.41-.38-.69a.26.26,0,0,1,.27-.18,3.12,3.12,0,0,1,1.94.93,3.46,3.46,0,0,0,2.13.8,16.38,16.38,0,0,0,2.1-.07.26.26,0,1,1,0,.51l-.44,0c.14.13.62.76.41.83a5.83,5.83,0,0,1-4.27-.56,10.8,10.8,0,0,1-1.77-1.6Z" fill="#c87734"/>
    <path d="M565.75,195.46c-.14-.24-.36-.48-.21-.74a.28.28,0,0,1,.31-.12,2.93,2.93,0,0,1,1.69,1.26,3.25,3.25,0,0,0,1.9,1.19,16,16,0,0,0,2.09.33c.36.05.25.55-.12.5l-.43-.06a.26.26,0,0,1-.21.4,4.55,4.55,0,0,1-3.67-.88,10.2,10.2,0,0,1-1.36-1.88Z" fill="#c87734"/>
    <path d="M571.13,196.7a1.68,1.68,0,0,0,.62,1.88s-.9-.73-1-1.1a.82.82,0,0,1,.36-.77Z" fill="#9e612c"/>
    <path d="M569.5,194.31a.29.29,0,0,1,.35-.28,6.81,6.81,0,0,1,2.56,1,5.87,5.87,0,0,1,1.43,2.36c0,.2-.19.23-.36.26a.21.21,0,0,1-.24.15c-1.07-.08-1.16-1-1.84-1.69s-1.89-.59-1.92-1.77Z" fill="#c87734"/>
    <path d="M594.3,192.4c-4.28.94-9,10.82-10.25,11-.45.07-9.35-5-9.35-5l-2.5,4.35,0,0,0,0s8.78,8.27,13.11,7.82l.09,0a2,2,0,0,0,.56-.1h0a7.8,7.8,0,0,0,2.06-.88c6.36-3.25,9.06-10.46,9.06-10.46h0C597.83,195.91,596.09,192,594.3,192.4Z" fill="#f3ea27"/>
    <path d="M569.63,196.71a2.62,2.62,0,0,0-.36,3A10,10,0,0,1,569.63,196.71Z" fill="#9e612c"/>
  </g>
  <path d="M607.76,201.74c0-.13,0-.26,0-.38s0-.14,0-.21v-.06h0a21.91,21.91,0,0,0-1-6.07c-1.51-3.66-4.65-3.8-7.16-3.9-3.49-.13-5.93,1.14-6.7,3.17-4.06,10.63-4.88,23.94-4.88,23.94h0s13,3.81,19.38,2.37h.07A176.6,176.6,0,0,0,607.76,201.74Z" fill="#f3ea27"/>
  <path d="M594.84,187.15a4.27,4.27,0,0,1,.18.49,7.31,7.31,0,0,1,.3,1.25c.07.41.11.79.14,1.16a11.71,11.71,0,0,1,0,2c3.26,1.6,6.8-.61,6.8-.61a11.47,11.47,0,0,1-.38-1.58,25.09,25.09,0,0,1-.3-2.63v-.1h-6.7Z" fill="#c87734"/>
  <path d="M594.84,187.15a4.27,4.27,0,0,1,.18.49,5.19,5.19,0,0,1,.3,1.25c.07.41.11.79.14,1.16a8.07,8.07,0,0,0,4.58.67,4.29,4.29,0,0,0,1.81-.87,24.34,24.34,0,0,1-.29-2.64v-.09h-6.71Z" fill="#9e612c"/>
  <path d="M603.2,190.79a11.86,11.86,0,0,1-6.07,1.81,10.48,10.48,0,0,1,.77,2.14s4.51-1.27,5.28-3.93Z" fill="#fff"/>
  <path d="M595.83,191.93a2,2,0,0,0,1.3.67l-1.66,1.49s0-1.8,0-2.06.36-.08.36-.08Z" fill="#fff"/>
  <g id="kite-man-head">
    <path d="M602.78,184.71s-.53,3.56-1.8,4.27-5.72.76-6.66-.37-.76-10.47-.41-11.18,6.51-3.43,8.59-.45S602.78,184.71,602.78,184.71Z" fill="#c87734"/>
    <path d="M592.32,173.79c1.31-1.45,4.79-1.36,8-1,2.65.33,4.41,3.51,4.37,3.65.66.21,1.18,1.88,1,3-.83,4.36-3,5.13-3.46,5-1.93-.53-2.1-4.14-1-6.9a13.79,13.79,0,0,0-5,0c-.82.2-3.27.45-4.1-.06-1.23-.74-.49-3,.22-3.79Z" fill="#2d0a05"/>
    <path d="M600,178.5a6.15,6.15,0,0,0-2.86-.3,1.66,1.66,0,0,0,0,1.24,11.85,11.85,0,0,0,2.75-.2,1.68,1.68,0,0,0,.11-.76Z" fill="#2d0a05"/>
    <path d="M592.94,179a5.58,5.58,0,0,1,2.63-.77,1.55,1.55,0,0,1,.17,1.21,11.14,11.14,0,0,1-2.6.29,1.57,1.57,0,0,1-.2-.71Z" fill="#2d0a05"/>
    <path d="M598.53,181.61c-.08.52-.4.86-.73.76s-.56-.65-.48-1.23.45-.94.79-.77a1.21,1.21,0,0,1,.41,1.24Z" fill="#0a0001"/>
    <path d="M594.94,181.48c0,.52-.25,1-.51,1s-.49-.48-.46-1.05.26-1,.55-.94S595,181,594.94,181.48Z" fill="#0a0001"/>
    <path d="M597.35,186.24a4,4,0,0,1-2.72-.17s0,1.44.9,1.68,1.44-.77,1.81-1.52Z" fill="#76201f"/>
    <path d="M594.63,186.07a2.61,2.61,0,0,0,.21.65,3.62,3.62,0,0,0,2.17.14,5.57,5.57,0,0,0,.34-.62A4.34,4.34,0,0,1,594.63,186.07Z" fill="#fff"/>
    <path d="M595.63,182.38s-.85,1.86-.66,2.36,1.57.21,1.57.21l-.93-2.57Z" fill="#c87734"/>
    <path d="M595.63,182.38a4.52,4.52,0,0,0-.9,1.93c0,.1,0,.2,0,.31a.49.49,0,0,0,.17.37.93.93,0,0,0,.62.21,2.61,2.61,0,0,0,1.05-.24c-.35,0-.7-.06-1-.11a.57.57,0,0,1-.34-.16s0-.15,0-.31a7.94,7.94,0,0,1,.23-1c.08-.34.17-.67.22-1Z" fill="#9e612c"/>
    <path d="M602.58,182.78c.42-.44,2.22-1,2.45-.24.36,1.15-1,3.36-2.69,2.46-.61-.32-.13-1.86.24-2.24Z" fill="#c87734"/>
    <path d="M602.88,183.51s1.31-.86,1.44-.48c.24.76-.85,1.4-1.16,1.51,0,0,.61-.66.45-.94S602.88,183.51,602.88,183.51Z" fill="#9e612c"/>
    <path d="M601.18,177.61a27,27,0,0,0-3.86-.17c-.9.14-4.25,1.07-5.38.13s-.29-2.53-.29-2.53.29,2.74,2.26,2.39S599.56,176.34,601.18,177.61Z" fill="#0a0001"/>
  </g>
  <g id="kite-group">
    <g mask="url(#mask)">
      <g id="kite">
        <g id="kite-full">
          <g id="kite-body">
            <path d="M413.86,18.37V18c-6.12-3.89-8.5-8.16-10.67-10.81,0,0,0,.05-.05.07A32.23,32.23,0,0,1,395.88,15c-.79.63-9.2,6.2-9.2,6.21.05.2.09.38.13.58a27.52,27.52,0,0,0,12.06,2.1,27.48,27.48,0,0,0,15-5.54Z" fill="#ef5230"/>
            <path d="M413,23.23a16.45,16.45,0,0,0,.81-4.88,27.41,27.41,0,0,1-15,5.54,27.43,27.43,0,0,1-12.06-2.1c.33,1.48.71,3,1.09,4.45a28.52,28.52,0,0,0,14.39,1.24A28.46,28.46,0,0,0,413,23.2Z" fill="#3cbeeb"/>
            <path d="M403.67,12c1,3.9,5.1,6.45,6.31,6.82a26.43,26.43,0,0,1-9,2.76,23,23,0,0,1-4.54.07c-1.19-.1-3.38-.13-4.31-.89a20,20,0,0,0,6.6-3.19,18.2,18.2,0,0,0,4.9-5.58Z" fill="#1396d3"/>
            <path d="M404.41,27.06c-.71.18-1.41.34-2.13.45a28.39,28.39,0,0,1-7,.32,36,36,0,0,1-5.22,18.58,4.77,4.77,0,0,1-.11.59A39.33,39.33,0,0,0,404.41,27.06Z" fill="#f2e904"/>
            <path d="M404.4,27.06A39.23,39.23,0,0,1,389.94,47a1.61,1.61,0,0,1-.52,1,64.2,64.2,0,0,0,15.2-11.36A35.77,35.77,0,0,0,413,23.26v0A28.51,28.51,0,0,1,404.4,27.06Z" fill="#1396d3"/>
            <path d="M395.26,27.83a28.24,28.24,0,0,1-7.38-1.56A61,61,0,0,1,390,37.61a53,53,0,0,1,0,8.82,36,36,0,0,0,5.21-18.58Z" fill="#3ab66f"/>
            <path d="M389.67,48.05a.36.36,0,0,1-.13,0,.23.23,0,0,1,0-.31A66.89,66.89,0,0,0,402.77,8.93a.21.21,0,0,1,.22-.21.22.22,0,0,1,.22.22,67.37,67.37,0,0,1-13.36,39,.21.21,0,0,1-.17.09Z" fill="#295483"/>
            <path d="M397.6,23.83a29.44,29.44,0,0,1-10.55-1.94.22.22,0,0,1-.13-.28.23.23,0,0,1,.29-.13c8.66,3.3,18.48,2.28,25.62-2.68a.2.2,0,0,1,.29.06.21.21,0,0,1-.05.3,27.27,27.27,0,0,1-15.48,4.66Z" fill="#295483"/>
          </g>
          <g id="kite-tail">
            <path d="M385.14,53.33s0,0,0,0S385,53,385,52.93a3,3,0,0,0-.09-.38,3.2,3.2,0,0,0-.37-.74c-.08-.14-.35-.58-.52-.61.89.14,1.76.41,2.65.62-.43.42-.83.86-1.26,1.28C385.35,53.17,385.24,53.34,385.14,53.33Z" fill="#3ab66f"/>
            <path d="M381.24,56.53l.45.21a3.47,3.47,0,0,0,.71.31,3.53,3.53,0,0,0,1.58.15c-.17,0-.42-.22-.52-.32a1.55,1.55,0,0,1-.41-.79c-.05-.3.05-.58,0-.87C383.05,55.22,381.25,56.51,381.24,56.53Z" fill="#f2e904"/>
            <path d="M372.65,60a10,10,0,0,0,1.1-3.06,7.88,7.88,0,0,0,2,2.38c-.12-.11-1.31.3-1.47.33-.52.11-1.06.22-1.58.35Z" fill="#ef5230"/>
            <path d="M367,53.61c.14-.17,1.08.1,1.27.11a3.13,3.13,0,0,0,1.63-.21c-.27.13-.9-.38-1.05-.55a2.47,2.47,0,0,1-.47-.91S367.05,53.61,367,53.61Z" fill="#3ab66f"/>
            <path d="M374.6,69.23a9.68,9.68,0,0,0-.68-1.42,2.3,2.3,0,0,1-.18-.58.78.78,0,0,1,.13-.59c.13.59.8.55,1.27.66.17,0,1,.28,1.15.16a16.48,16.48,0,0,1-1.67,1.77Z" fill="#3ab66f"/>
            <path d="M372.32,71.18l.06,0a5.3,5.3,0,0,0,.49,1.83,3.19,3.19,0,0,1,0,1.68,2.81,2.81,0,0,0-1.35-1.37c-.18-.09-1.25-.72-1.37-.64a20.85,20.85,0,0,1,2.13-1.49Z" fill="#ef5230"/>
            <path d="M365.13,75.75a6.23,6.23,0,0,1-1-.52c-.17-.11-1-.81-.79-1.07a2.72,2.72,0,0,0-.5,1.61c0,.15.28,1.25.18,1.31l2.11-1.31Z" fill="#f2e904"/>
            <path d="M359.1,80a5,5,0,0,1,.29.82,2.32,2.32,0,0,1,.05.59c0,.09-.1.48-.06.52a1.18,1.18,0,0,0-.86-.41c-.34,0-.78.23-1.09.12C357.62,81.44,359.15,80.15,359.1,80Z" fill="#3ab66f"/>
            <path d="M372.59,50.93a1.17,1.17,0,0,1,0-.22,2,2,0,0,1,.46-.68,3.2,3.2,0,0,1,.61-.55c.12-.08.53-.21.6-.32a1.73,1.73,0,0,0-.18,1.32,3.42,3.42,0,0,0,.32,1,10,10,0,0,1-1.65-.41c-.11-.06-.16-.06-.18-.09Z" fill="#f2e904"/>
            <path d="M354.66,85.77s-.4-.68-.41-.73a3.93,3.93,0,0,1-.25-1.27c0,.24.5.62.72.66a1.45,1.45,0,0,0,.7-.13s-.76,1.44-.76,1.45Z" fill="#ef5230"/>
            <path d="M389.67,47.65a.18.18,0,0,0-.14.06.21.21,0,0,0,0,.06,28.35,28.35,0,0,1-10,9.6,8.23,8.23,0,0,0-.78-2.35A8.1,8.1,0,0,0,374,51.09a6.36,6.36,0,0,0-5,.3,4.88,4.88,0,0,0-2.72,4c-.05,2.35,2.09,4.23,4.2,4.68,1.83.39,3.9.05,6.48-1.06.73-.31,1.45-.66,2.16-1a11.83,11.83,0,0,1-1.84,7.68c-2.08,3.35-5.42,5.7-8.09,7.39-.93.59-1.89,1.17-2.82,1.72a54.33,54.33,0,0,0-6.56,4.34c-2.36,1.9-5.36,5-6.23,9.14a.19.19,0,0,0,.14.23h0v0a.18.18,0,0,0,.18-.14c.86-4,3.79-7.06,6.1-8.92a55,55,0,0,1,6.53-4.31c.93-.55,1.9-1.12,2.83-1.71,2.7-1.71,6.08-4.12,8.21-7.53a12.16,12.16,0,0,0,1.86-8,28.6,28.6,0,0,0,10.3-9.85.14.14,0,0,0,0-.07A.2.2,0,0,0,389.67,47.65Zm-12.79,11c-2.51,1.08-4.5,1.41-6.26,1-2-.43-4-2.16-3.9-4.31a4.47,4.47,0,0,1,2.52-3.67,5.62,5.62,0,0,1,2.59-.62,6.85,6.85,0,0,1,2.07.34,7.67,7.67,0,0,1,4.44,3.75,8.63,8.63,0,0,1,.78,2.38A23.23,23.23,0,0,1,376.88,58.67Z" fill="#295483"/>
          </g>
        </g>
        <path id="kite-line" d="M624.78,228.61s-.51.57-20.62-8.86C558.42,199.7,389.94,47,389.94,47" fill="none" stroke="#252960" stroke-miterlimit="10" stroke-width="0.75"/>
      </g>
    </g>
    <g>
      <path d="M604.12,221.82a.69.69,0,0,0,.86-.08.71.71,0,0,0,.34.39.65.65,0,0,0,.89-.18.58.58,0,0,0,.53.37.79.79,0,0,0,.69-.27.5.5,0,0,0,.71.27c.75-.48.77-1.75.75-2.54a2.17,2.17,0,0,0-1.13-2.14,2.78,2.78,0,0,0-3.35,1.59l0,0c-.3.6-1.21,2.12-.28,2.57Z" fill="#c87734"/>
      <path d="M603.87,217.57a5.82,5.82,0,0,1,2.2-.06h0a.48.48,0,0,1,.4.78c-.37.41-.81.87-1.34.83-.3,0-.55-.28-.85-.2s-.69.68-.86,1c-.28.55-1.35-.08-1.15-.66a2.76,2.76,0,0,1,1.55-1.69Z" fill="#c87734"/>
      <path d="M606,218.32l1.59-3.19,2.62,1.74-1.88,2.88Z" fill="#c87734"/>
      <path d="M617.67,205.93c-2-8-12.93-13.53-12.93-13.53h0c-2,2.92-1.13,7.49-.63,10.18h0s0,0,0,0c1,1.88,6.8,5,7,5.8v0s0,0,0,.05c-.11.6-3.92,6.08-4.84,7.39l-.2.27,0,0,0,.06,4.2,2.76S618.63,209.71,617.67,205.93Z" fill="#f3ea27"/>
    </g>
  </g>
  <g mask="url(#mask-2)">
    <g id="girl-swing">
      <path d="M892.38,146l.15-.25c.12-.24.25-.48.36-.72s.11-.2,0-.38a4.48,4.48,0,0,1-.32-.44.9.9,0,0,0-.24-.31,6.9,6.9,0,0,0-.79.54,6.32,6.32,0,0,0-1.17,1.14c-.09.11-.2.32-.35.37a7.54,7.54,0,0,0-.26-1.29,4.51,4.51,0,0,0-.46-1.32c0-.08-.11-.18-.21-.17s-.12.07-.16.13c-.46.65-.94,1.31-1.41,2s-.95.83-1.15,1.45c-.49,1.56.94,2,2.2,1.89a5.1,5.1,0,0,0,3.07-1.55,5.66,5.66,0,0,0,.73-1Z" fill="#f16b58"/>
      <path d="M870,141.06c-1.73-11.73-2.42-21.47-6.52-32.91,0,0,0,0,0,0l-1-3a.23.23,0,0,0-.43.15l1,3h0c4.08,11.39,4.76,21.09,6.49,32.79.91,6.15,1.86,12.53,3.12,18.74a.23.23,0,0,0,.23.19h0a.25.25,0,0,0,.19-.28C871.82,153.57,870.87,147.21,870,141.06Z" fill="#4fc5de"/>
      <path d="M895.54,156c-2-9.13-4.36-18.3-7.06-27.24l-.62-2.07c-2.42-8-5.13-10.55-8.11-18.48,0,0,0,0,0,0l-1.27-3.38a.24.24,0,0,0-.29-.13.23.23,0,0,0-.14.29l1.26,3.37h0c3,7.92,5.69,10.44,8.11,18.46l.62,2.07c2.71,8.94,5.07,18.08,7.06,27.21l.3,1.38a.23.23,0,0,0,.22.19h0a.24.24,0,0,0,.18-.29C895.73,157,895.64,156.5,895.54,156Z" fill="#4fc5de"/>
      <path d="M896.62,161.93c-4,.43-19.49,1.57-22.84,2.26a.74.74,0,0,1-.85-.52l-.77-2.93a.71.71,0,0,1,.68-.9c4-.06,19.22-1.72,23.12-2.53a.73.73,0,0,1,.86.61l.48,3.21a.73.73,0,0,1-.64.83h0Z" fill="#1396d3"/>
      <path d="M896.72,153.36c0-.46-.91-1-1.24-1.23-1.52-.94-4-.11-5.45.72a12,12,0,0,0-4,3.87c-1.45,2.26.7,2.07,2.48,1.68a16.31,16.31,0,0,0,4.9-2,13.86,13.86,0,0,0,1.58-1.26,7,7,0,0,0,1.49-1.38.74.74,0,0,0,.18-.39v0Z" fill="#1396d3"/>
      <path d="M889.92,142.64a.4.4,0,0,1,0,.12c.06.26-.44.62-.58.81a6.39,6.39,0,0,0-.69,1.08c.09-.15-.41-1-.49-1.17-.18-.39-.38-.77-.56-1.15a7.79,7.79,0,0,0-1.16-2.12c.13.13.61.2.8.29a2.45,2.45,0,0,1,.69.46l1.71,1.44a1.14,1.14,0,0,1,.24.25Z" fill="#ef5230"/>
      <path d="M886.62,141.09a5.26,5.26,0,0,1-.87-1.88,8.91,8.91,0,0,1,.42-2c-1.65-.61-3.51-1.06-5.15-1.65.42.15.55,1,.63,1.41.17.72.55,1.35.66,2.08a1.28,1.28,0,0,1-.17,1,2.61,2.61,0,0,0-.22.27c-.16.29.41.62.56.84a3.32,3.32,0,0,0,1.34,1.26,3.18,3.18,0,0,0,2.21.18,1.32,1.32,0,0,0,.82-.54c.17-.29,0-.64-.14-.91a.83.83,0,0,1-.07-.13Z" fill="#f16b58"/>
      <path d="M893.72,159.48c-.11.27-.85.74-3.07.44a3.09,3.09,0,0,0-.86,0,7.36,7.36,0,0,1-.81-.06,27.2,27.2,0,0,1-5.59-1.07c-1-.28-2.08-.78-2.3-1.78a2,2,0,0,1,1-2h0a4.59,4.59,0,0,1,2.28-.6,20.78,20.78,0,0,1,7.77,1.65C895.12,157.18,893.83,159.21,893.72,159.48Z" fill="#f16b58"/>
      <path d="M886.9,153.54a4.7,4.7,0,0,1,2.27-.64,15.41,15.41,0,0,1,3.17.25,11.93,11.93,0,0,1,2.13.4c.6.23,1.26.3,1.9.48,1.26.38,2.46.95,3.69,1.45s2.55.92,3.8,1.43c.54.22,1.09.43,1.62.66a3.71,3.71,0,0,1,1.28.66c.38.38.75,1.17.3,1.63a2.64,2.64,0,0,1-1.78.55,15.05,15.05,0,0,1-4.52-.63,7.87,7.87,0,0,1-1.94-.69,8.7,8.7,0,0,0-1.75-.94,5.36,5.36,0,0,0-2.29,0,8.85,8.85,0,0,1-2.3,0,29,29,0,0,1-4.17-.83c-1-.27-2.09-.75-2.32-1.75a2,2,0,0,1,.94-2Z" fill="#f16b58"/>
      <path d="M877.47,153.26a1.38,1.38,0,0,1-.57,0c-1.91-.56-.24-7.08.21-8.4a4.16,4.16,0,0,1,.76-1.46,1.69,1.69,0,0,1,1.48-.59c3.16.58.71,8.36-.63,9.82A2.13,2.13,0,0,1,877.47,153.26Z" fill="#f16b58"/>
      <path d="M871.93,151.2a2.64,2.64,0,0,1-.9-.89c-.2-.41,0-.83.42-.86a7,7,0,0,1,1.56.33c.9.17,1.79.29,2.66.53a3.63,3.63,0,0,1,2.51,1.54c.68,1.46-.72,1.9-2,1.77a5.24,5.24,0,0,1-1.38-.32,6.06,6.06,0,0,1-1.24-.82c-.57-.36-1.06-.83-1.6-1.22,0,0,0,0-.05,0Z" fill="#f16b58"/>
      <path d="M879.62,143a10.78,10.78,0,0,0,.45,3.26,17.61,17.61,0,0,1,.13,6.86,2.59,2.59,0,0,0,.18,2.09c.54.66,1.55.56,2.4.41l4.08-.78c1.14-.21,2.07-.39,2.71-1.46a5.58,5.58,0,0,0,.63-2.2,12.17,12.17,0,0,0-.47-4.94,23.7,23.7,0,0,0-1.66-4.34,3.14,3.14,0,0,0-.73-1.07A4,4,0,0,0,886,140a3.78,3.78,0,0,1,.69,1.39c.2,1.09-1.2,1.33-2,1.16a3.72,3.72,0,0,1-1.83-1.07c-.43-.47-.95-1.24-.57-1.89-.13.21-.6.35-.81.53l-.67.62a3.61,3.61,0,0,0-1,1.14,3.91,3.91,0,0,0-.23,1Z" fill="#ef5230"/>
      <path d="M877.05,144.51a12.33,12.33,0,0,0-.88,1.92,12.94,12.94,0,0,1,4.2,3.26,40.76,40.76,0,0,0,.71-4.38,5.42,5.42,0,0,0-.59-3.76.43.43,0,0,0-.24-.24c-.18-.08-.39,0-.56.16a8.45,8.45,0,0,0-1.85,1.83A12.58,12.58,0,0,0,877.05,144.51Z" fill="#ef5230"/>
      <path d="M888,152.43a13.37,13.37,0,0,0,2.45-2.24,9.76,9.76,0,0,1,6.29,2.93c-.16-.17-1.07,0-1.29.07a7.06,7.06,0,0,0-1.32.38,10.31,10.31,0,0,0-2.23,1.17c-1.54,1.07-3,2.24-4.66,3.21a15.12,15.12,0,0,1-3.53,1.58c-.62.17-2.93.81-3.27.18a6,6,0,0,1-.23-1.76c-.08-.73-.15-1.47-.17-2.21,0-.12,0-.92.17-.9a13.29,13.29,0,0,0,7.78-2.43Z" fill="#3cbeeb"/>
      <path d="M894.5,158.24h.06a.13.13,0,0,0,.07-.18,5.44,5.44,0,0,0-1.24-2,4.05,4.05,0,0,0-2-.88c-.07,0-.15.05-.15.12s0,.15.11.15a3.79,3.79,0,0,1,1.88.8,5.35,5.35,0,0,1,1.16,1.92A.13.13,0,0,0,894.5,158.24Z" fill="#fff"/>
      <path d="M906.33,161.64a1.92,1.92,0,0,0,1,.46,1.14,1.14,0,0,0,.87-.42,2.89,2.89,0,0,0,.49-.83c.31-.68,2.31-4,1.06-4.41a1.22,1.22,0,0,0-.92.17c-.62.3-2,.63-2.4,1.14s.15,1.13-.12,1.69a2,2,0,0,1-1.07.9.16.16,0,0,0,0,.24,6.26,6.26,0,0,0,1.13,1Z" fill="#f2e904"/>
      <path d="M907.39,161.74s0,0,.05,0a10.46,10.46,0,0,0,2.34-4.89s0-.08-.06-.08-.08,0-.08,0a10.36,10.36,0,0,1-2.31,4.82s0,.09,0,.1h0Z" fill="#fff"/>
      <path d="M907.1,158.36s0,0,.06,0a.07.07,0,0,0,0-.1.68.68,0,0,1-.15-.7.08.08,0,0,0,0-.1.08.08,0,0,0-.1,0,.83.83,0,0,0,.19.86.05.05,0,0,0,.05,0Z" fill="#fff"/>
      <path d="M907.6,157.86h0s0-.05,0-.1a.62.62,0,0,1,0-.59.09.09,0,0,0,0-.1s-.09,0-.1,0a.83.83,0,0,0,0,.72S907.57,157.86,907.6,157.86Z" fill="#fff"/>
      <path d="M908.13,157.55h0a.06.06,0,0,0,0-.09.62.62,0,0,1,0-.53.06.06,0,0,0,0-.09.09.09,0,0,0-.1,0,.74.74,0,0,0,0,.65s0,0,.07,0Z" fill="#fff"/>
      <g id="swing-rl">
        <path d="M897.4,167.19a1.5,1.5,0,0,1-.68,1.2c-.86.42-1.52-.68-1.93-1.22-.6-.78-1.15-1.6-1.67-2.43a28.44,28.44,0,0,1-1.79-3.47c-.13-.29-.4-1.2-.68-1.35-1.39-2.37-.07-3.37.5-3.71a1.66,1.66,0,0,1,1-.18,5,5,0,0,1,1.14.76,2.09,2.09,0,0,1,.91.76,1.43,1.43,0,0,1,.14.2c1.28,2.2,2.08,5.42,2.83,7.89A4.31,4.31,0,0,1,897.4,167.19Z" fill="#f16b58"/>
        <path d="M894.82,169.19a1.86,1.86,0,0,0,.41,1,1.07,1.07,0,0,0,.92.3,2.85,2.85,0,0,0,.93-.28c.69-.29,4.4-1.31,3.78-2.48a1.15,1.15,0,0,0-.77-.51,8.65,8.65,0,0,0-2.54-.82c-.47.06-.66.92-1.23,1.16a2.1,2.1,0,0,1-1.4-.07c-.1,0-.18,0-.2.15A7.21,7.21,0,0,0,894.82,169.19Z" fill="#f2e904"/>
        <path d="M895.57,170a10.54,10.54,0,0,0,5.06-2,.07.07,0,0,0,0-.1.08.08,0,0,0-.1,0,10.27,10.27,0,0,1-5,1.94.08.08,0,0,0-.07.08.08.08,0,0,0,.07.07Z" fill="#fff"/>
        <path d="M897.7,167.34s.07,0,.07-.07a.69.69,0,0,1,.37-.62s.05-.05,0-.1a.08.08,0,0,0-.1,0,.82.82,0,0,0-.45.75.07.07,0,0,0,.07.07Z" fill="#fff"/>
        <path d="M898.4,167.34s.06,0,.07-.05a.68.68,0,0,1,.4-.44s0-.06,0-.1-.06-.05-.1,0a.8.8,0,0,0-.48.53s0,.09.06.1h0Z" fill="#fff"/>
        <path d="M899,167.47a.11.11,0,0,0,.08-.06.58.58,0,0,1,.35-.38s.05-.05,0-.1-.06-.05-.1,0a.79.79,0,0,0-.45.48s0,.09,0,.1h0Z" fill="#fff"/>
      </g>
      <path d="M880.37,149.84a.25.25,0,0,0,.13-.09,13.57,13.57,0,0,0,1.22-5.9.14.14,0,0,0-.15-.13.15.15,0,0,0-.13.16,13.44,13.44,0,0,1-1.21,5.76.14.14,0,0,0,.07.18h.06Z" fill="#fff"/>
      <path d="M881.92,147.12a.29.29,0,0,0,.1-.05A3.68,3.68,0,0,0,883,145a.16.16,0,0,0-.12-.16.15.15,0,0,0-.16.13,3.33,3.33,0,0,1-.87,1.93.14.14,0,0,0,0,.2.12.12,0,0,0,.1,0Z" fill="#fff"/>
      <path d="M889,144.13h0a.15.15,0,0,0,.1-.17,5,5,0,0,0-1.15-2,.14.14,0,0,0-.2.2A4.5,4.5,0,0,1,888.9,144a.14.14,0,0,0,.13.1Z" fill="#fff"/>
      <path d="M881.55,160h0a.15.15,0,0,0,.09-.18,3.57,3.57,0,0,1-.31-1.4,1.07,1.07,0,0,1,.72-1,1.05,1.05,0,0,1,1,.54,3.87,3.87,0,0,0,.38,1.43.14.14,0,0,0,.17.09.13.13,0,0,0,.1-.16,3.68,3.68,0,0,0-.38-1.45,1.13,1.13,0,0,1,.61-1.05,1.17,1.17,0,0,1,1.29.38,3.66,3.66,0,0,1,.69,1.38.18.18,0,0,0,.14.1.15.15,0,0,0,.13-.12,2,2,0,0,0-.45-1.39l-.2-.32a1.28,1.28,0,0,1-.11-1.05.44.44,0,0,1,.31-.27,1,1,0,0,1,.66.17,5.22,5.22,0,0,1,1.69,1.55.16.16,0,0,0,.17.06.14.14,0,0,0,.09-.14,2,2,0,0,0-.57-1,1.39,1.39,0,0,1-.48-.89.65.65,0,0,1,.31-.52,1.08,1.08,0,0,1,1-.14,1.52,1.52,0,0,1,.48.27l.09.18a3.42,3.42,0,0,0,.77.83.17.17,0,0,0,.19,0,.14.14,0,0,0,0-.18,4.9,4.9,0,0,0-.83-1,.73.73,0,0,1,.06-.67.88.88,0,0,1,1-.26.11.11,0,0,0,0,.06,2.78,2.78,0,0,0,1.12,1,.13.13,0,0,0,.17,0,.15.15,0,0,0,0-.18,3.24,3.24,0,0,0-1.09-1h0a.86.86,0,0,1,0-.55.5.5,0,0,1,.28-.32,1,1,0,0,1,.65,0,3.54,3.54,0,0,1,1,.46l.18.14.5.38a.14.14,0,0,0,.19-.21,4.5,4.5,0,0,0-.69-.55l0,0a1.16,1.16,0,0,1-.34-.32.45.45,0,0,1-.1-.37.53.53,0,0,1,.34-.31,1.32,1.32,0,0,1,.56,0,3.75,3.75,0,0,1,1.2.51c.21.13.42.24.63.35a7.83,7.83,0,0,1,.79.47.14.14,0,0,0,.2,0,.13.13,0,0,0,0-.19c-.27-.18-.55-.33-.82-.48l-.62-.35a3.92,3.92,0,0,0-1.3-.55,1.46,1.46,0,0,0-.69,0,.72.72,0,0,0-.53.52.88.88,0,0,0,0,.42,2.83,2.83,0,0,0-.41-.14,1.18,1.18,0,0,0-.83,0,.86.86,0,0,0-.44.49,1.27,1.27,0,0,0,0,.55,1.08,1.08,0,0,0-1.14.41,1,1,0,0,0-.14.61,2,2,0,0,0-.3-.14,1.34,1.34,0,0,0-1.22.18.89.89,0,0,0-.42.75,1.22,1.22,0,0,0,.22.67,5.43,5.43,0,0,0-.7-.48,1.15,1.15,0,0,0-.88-.19.72.72,0,0,0-.49.43,1.58,1.58,0,0,0,0,1.13,1.4,1.4,0,0,0-1.38-.24,1.35,1.35,0,0,0-.73,1,1.27,1.27,0,0,0-1.16-.41,1.35,1.35,0,0,0-.93,1.26,3.58,3.58,0,0,0,.33,1.5.12.12,0,0,0,.13.09Z" fill="#1396d3"/>
      <path d="M892.14,144.12a1.53,1.53,0,0,0,.07-.24c0-.16,0-.31.07-.45a1.48,1.48,0,0,0,.05-.41.32.32,0,0,0-.1-.23c-.06,0-.13,0-.17,0a.48.48,0,0,0-.16.13.83.83,0,0,0-.18.51c0,.17,0,.32,0,.47a.7.7,0,0,0,.09.4s.07.11.12.11.2-.2.23-.29Z" fill="#f16b58"/>
      <path d="M871.48,149.75l-.17-.21c-.1-.14-.17-.28-.27-.42a3.11,3.11,0,0,1-.22-.4.31.31,0,0,1,0-.25.17.17,0,0,1,.18-.06.47.47,0,0,1,.21.06.92.92,0,0,1,.4.43c.07.16.15.31.21.48a1.09,1.09,0,0,1,.08.43s0,.15-.07.17-.28-.12-.33-.22Z" fill="#f16b58"/>
      <g id="swing-head">
        <path d="M886,124.54a2.8,2.8,0,0,0-2.81-1.12c-.49.1-.94.34-1.43.41a1.18,1.18,0,0,1-1.29-.55,3.41,3.41,0,0,0-.81,2.64,2,2,0,0,0,2,1.66,4.32,4.32,0,0,0,1.31-.52,1.73,1.73,0,0,1,1.36-.2.8.8,0,0,1,.44,1.13c.83-.16,1.65.29,1.72-.76A4.22,4.22,0,0,0,886,124.54Z" fill="#110401"/>
        <path d="M879.17,138a8.58,8.58,0,0,0,1.17.72,9,9,0,0,0,5.41.85,4.94,4.94,0,0,0,3.45-1.91,4.52,4.52,0,0,0,.52-3.38,14.31,14.31,0,0,0-2.21-5.06,7,7,0,0,0-3.55-3c-2.42-.72-6.87,1.07-8,3.31-1.48,3,.69,6.55,3.23,8.43Z" fill="#f16b58"/>
        <path d="M888.41,133.13a.3.3,0,0,1,0,.41.3.3,0,0,1-.4-.11A.28.28,0,0,1,888,133,.28.28,0,0,1,888.41,133.13Z" fill="#110401"/>
        <path d="M888.16,135.21a.29.29,0,0,0,.14-.05.33.33,0,0,0,.1-.27.46.46,0,0,0-.24-.28.38.38,0,0,1-.16-.14.11.11,0,0,0-.15-.07c-.06,0-.1.08-.07.15a.51.51,0,0,0,.25.27c.07,0,.13.08.14.14s0,0,0,0a.09.09,0,0,0-.14.07.12.12,0,0,0,.07.16h.08Z" fill="#e44536"/>
        <path d="M888.79,135.92c0,.56-.27,1-.91,1a1.62,1.62,0,0,1-.84-.38,4,4,0,0,1-.59-.72,2.18,2.18,0,0,0,2.33,0v.15Z" fill="#fff"/>
        <path d="M886.14,134a.27.27,0,1,1-.45.3.27.27,0,1,1,.45-.3Z" fill="#110401"/>
        <path d="M884.62,134.33s0,0,.06,0a.1.1,0,0,0,0-.15.54.54,0,0,1,0-.55.56.56,0,0,1,.47-.28.11.11,0,0,0,.11-.12.11.11,0,0,0-.11-.11.75.75,0,0,0-.66.4.81.81,0,0,0,0,.77A.1.1,0,0,0,884.62,134.33Z" fill="#110401"/>
        <path d="M887.44,132.55s.1,0,.11-.1a.41.41,0,0,1,.31-.31.44.44,0,0,1,.41.17.12.12,0,0,0,.16,0,.11.11,0,0,0,0-.15.65.65,0,0,0-.65-.28.61.61,0,0,0-.49.51.13.13,0,0,0,.1.14h0Z" fill="#110401"/>
        <path d="M888,130.11l-.14-.11a9.91,9.91,0,0,0-2.11-1.24,3.84,3.84,0,0,1,1.73,2,11.54,11.54,0,0,0-5,4l-1.36-1.33c.16.58.41,1.2.51,1.76,0,0-.49.05-.49,0-.41-.59-1.2-2-2.13-1.33a1,1,0,0,0-.29,1.12,3.08,3.08,0,0,0,.62,1.06l2.6,3.31a4.81,4.81,0,0,1-1.2.15c-2.38,0-4.19-2.09-5-4.18a7.3,7.3,0,0,1,1.32-7.41,7.19,7.19,0,0,1,6.79-1.69c2.59.55,5.19,2.3,5.43,5.14,0-.21-.89-.9-1.27-1.21Z" fill="#301006"/>
        <path d="M876.65,130.86a2.35,2.35,0,0,0-.75-.18s-.1,0-.12,0l0,0a5.53,5.53,0,0,0-3.66,0h0A3.79,3.79,0,0,0,870,134.2c0,.68.24,1.34.21,2a1.57,1.57,0,0,1-1,1.58,4.63,4.63,0,0,0,3.32,1.72,2.66,2.66,0,0,0,2.69-2.24,5.88,5.88,0,0,0-.38-1.87,2.45,2.45,0,0,1,.06-1.88,1.12,1.12,0,0,1,.6-.49.3.3,0,0,0,0,.16,0,0,0,0,1,0,0v0c.07.11.23.07.34.09s.41,0,.62.07a.32.32,0,0,0,.25-.05.25.25,0,0,0,.07-.22c0-.59,0-1.17.07-1.76C876.85,131.13,876.89,131,876.65,130.86Z" fill="#110401"/>
        <path d="M881.17,133.52s.07,0,.09,0a.13.13,0,0,0,0-.18,3.3,3.3,0,0,1,.72-5.21.15.15,0,0,0,0-.19.14.14,0,0,0-.18,0,3.57,3.57,0,0,0-.78,5.62.13.13,0,0,0,.1,0Z" fill="#110401"/>
      </g>
      <path d="M893.13,143.34v-.07a.21.21,0,0,0,0-.14.62.62,0,0,0-.41-.41.33.33,0,0,0-.35.07.27.27,0,0,0,0,.31,1.81,1.81,0,0,0,.28.33s-.11,0-.12,0a.34.34,0,0,0-.13.1.19.19,0,0,0,0,.23.2.2,0,0,0,.15.12.18.18,0,0,1,.1,0,.44.44,0,0,0-.14.28.21.21,0,0,0,.24.21l-.1.17a1.35,1.35,0,0,0,0,.18v.14a.17.17,0,0,0,.2.15l.24-.1a1.08,1.08,0,0,0,.2-.16.86.86,0,0,0,.21-.29.73.73,0,0,0,.07-.24.66.66,0,0,0,0-.28c0-.09-.14-.12-.16-.2v-.18a.29.29,0,0,0-.22-.23s-.06,0-.07,0Z" fill="#f16b58"/>
      <path d="M870.17,149.4s0-.06,0-.07a.47.47,0,0,1,0-.16.64.64,0,0,1,.23-.57.34.34,0,0,1,.38-.08.28.28,0,0,1,.09.33,1.81,1.81,0,0,1-.14.45s.13,0,.14,0a.25.25,0,0,1,.17,0,.17.17,0,0,1,.09.22.27.27,0,0,1-.11.19s-.08,0-.09,0a.6.6,0,0,1,.27.23c.07.14,0,.25-.16.31a.76.76,0,0,1,.17.13.47.47,0,0,1,.1.16,1,1,0,0,1,0,.14c0,.1,0,.22-.12.23h-.29a.77.77,0,0,1-.26-.07,1,1,0,0,1-.34-.2.68.68,0,0,1-.17-.21.66.66,0,0,1-.13-.28c0-.1.1-.17.09-.27s-.06-.1-.07-.15v0a.36.36,0,0,1,.12-.32S870.17,149.43,870.17,149.4Z" fill="#f16b58"/>
    </g>
  </g>
  <g opacity="0.6">
    <path d="M352.5,245.63c4.2.3,15.05,4,18.81,5.85-2.58,1.36-19.75,1.67-22.65,2-12.06,1.21-34,4.11-36,4.55-3.11.63,1.54,1.48-13.12-1.34-.85-.16-15-3-14.5-3.69.34-.47,8.2-.65,8.78-.64,17.48.69,24-3,58.74-6.7" fill="url(#pr-lingrad-29)"/>
  </g>
  <g opacity="0.6">
    <path d="M406.59,247.49c-11.47,2.34-23,4.67-34.72,4.53-1.38,0-3.16-.42-3.3-1.78-.12-1.19,1.14-2,2.26-2.4a39.15,39.15,0,0,1,10.73-1.8q11.34-.85,22.69-1.68c1.06-.08,2.27-.1,3,.69s-.08,2.48-1,2" fill="url(#pr-lingrad-30)"/>
  </g>
  <g>
    <path d="M375.24,250.39l-1.43.56-5.38-17.17-.48-1.53-.78-.12L345.54,229l-.85-.12-1-.14-.55-.07,0-.1.08-.85.1-.77.24,0,1.11.17.41.06,22.35,3.25,1.53.21h.05Z" fill="#e75125"/>
    <path d="M368.61,230.51l-.57,3L364.38,253l-1.43-.35,3.9-20.75.31-1.62Z" fill="#e75125"/>
    <path d="M344.16,227.21l-.14.52-.29,1.07L343.4,230,338,250.32l-1.41-.48,5.7-21.34.17-.63.23-.89,1.08.17Z" fill="#e75125"/>
    <path d="M351.62,245l-1.31.73L343.39,230l-.59-1.37-.35-.8-.08-.17.08-.75.23,0,1.08.17.26.58.52,1.19Z" fill="#e75125"/>
    <path d="M337.1,251.29c1.89,0,3.41-.52,3.41-1.13s-1.55-1.08-3.43-1.07-3.42.53-3.42,1.14S335.21,251.31,337.1,251.29Z" fill="#e75125"/>
    <path d="M350.55,246.75c1.89,0,3.41-.52,3.41-1.13s-1.54-1.08-3.44-1.06-3.41.52-3.41,1.13S348.65,246.77,350.55,246.75Z" fill="#e75125"/>
    <path d="M363,254.27c1.89,0,3.42-.53,3.42-1.13s-1.55-1.09-3.44-1.07-3.42.53-3.41,1.13S361.11,254.29,363,254.27Z" fill="#e75125"/>
    <path d="M374.48,252c1.89,0,3.42-.53,3.41-1.13s-1.54-1.09-3.43-1.07-3.42.53-3.41,1.13S372.59,252,374.48,252Z" fill="#e75125"/>
  </g>
  <g id="seesaw">
    <g id="boy-ll">
      <path d="M307.39,242.23q-1.56,6.65-3.12,13.26l3.14-.16c4.77-7.83,7.67-13.93,7.24-15.46a2.78,2.78,0,0,0-1.07-1.62,2.4,2.4,0,0,0-1.43-.26,4.32,4.32,0,0,0-2.62,1.5,10.63,10.63,0,0,0-2.11,2.73Z" fill="#f7a287"/>
      <path d="M305.46,258.26c.79.17.61.2,1.69.47,3.33.83,4.34.45,4.65.31.47-.2.78-.34.83-.61.23-1.14-4.45-2.86-7.39-2.93a2.18,2.18,0,0,0-1.88.58,1.4,1.4,0,0,0-.07,1.52C303.6,258,304.1,258,305.46,258.26Z" fill="#302d66"/>
      <path d="M304.85,254.08s-1.52,1.87-1.14,2.79,2.38.21,4,1.08,2.45,1.44,4.24.37c.31-.18.43-.32.42-.42-.08-.5-1.62-.65-3.23-2a3,3,0,0,1-.78-.88,5.23,5.23,0,0,1-.43-2.07l-3,1.12Z" fill="#f7a287"/>
      <path d="M307.3,258.21l2-2.21,1.68.8-1.68,2Z" fill="#302d66"/>
    </g>
    <path d="M302,231.93l-.48,2.13,17.34,3.88.47-2.13Z" fill="#3f55a4"/>
    <path d="M297.85,226.05a22.16,22.16,0,0,0-1.21,4.85c-.34,2.52-.6,4.45.21,5.64,1.41,2.12,6.15,2.1,11.55,0-.13-.77-.24-1.53-.37-2.31l-7.18-.5,1.5-7.17a2.62,2.62,0,0,0-1.42-1.47A2.76,2.76,0,0,0,297.85,226.05Z" fill="#f7a287"/>
    <path d="M307,234.82s2.11-2.14,2.56-1.94.22.41.22.41.81-.3,1,0,.22.36.22.36.62-.17.7,0,0,.17,0,.17.62-.13.79.11,0,.3,0,.3-1.26,1.75-1.87,1.93-2.82.63-2.82.63l-.83-1.93Z" fill="#f7a287"/>
    <path d="M295.16,231.26a22.56,22.56,0,0,1,1.67-3.56c1.09-1.88,1.65-2.82,2.75-3.14a2.68,2.68,0,0,1,2.77.7,2.71,2.71,0,0,1,.33,1.92c0,1.09-.11,2.56-.27,4.29Z" fill="#f79b40"/>
    <path d="M388.16,212.23l16.5,4.83,19.85-5.18-18.82-4.27c-5.83,1.54-11.68,3.07-17.51,4.62Z" fill="#e75125"/>
    <path d="M388.19,212.22v2l16.4,5.32c0-.84,0-1.68.05-2.52Z" fill="#e55125"/>
    <path d="M404.63,217.05c0,.84-.05,1.68-.06,2.52l19.92-5.51v-2.19Z" fill="#e55125"/>
    <g id="girl-rl">
      <path d="M393.12,215.27a33.87,33.87,0,0,1-5.33,7,32.28,32.28,0,0,1-5,4.17c-1.1-.36-2.21-.71-3.31-1.08,2.79-4.27,5.57-8.56,8.36-12.83,1.16-1.79,3.12-2.4,4.35-1.61A2.93,2.93,0,0,1,393.12,215.27Z" fill="#b95339"/>
      <path d="M383.94,228.57c-.44.62-1.17.38-2.61.82a5.24,5.24,0,0,0-.72.27c-.9.4-1.07.81-1.91,1-2.06.46-4.58-1.22-4.44-2,.08-.5,1.1-.39,2.56-.69.24,0,.48-.11.75-.18a9,9,0,0,0,2.13-.94,4.29,4.29,0,0,1,2.26-.88,2.25,2.25,0,0,1,1.92.75,1.76,1.76,0,0,1,.07,1.93Z" fill="#fff"/>
      <path d="M379.52,225.26a11.19,11.19,0,0,1-4,2.58c-.25.08-1.26.39-1.24.72,0,.15.26.28.61.45a5.26,5.26,0,0,0,.69.28l.35.31a3.49,3.49,0,0,0,2.19.62c.83-.07.88-.48,2.07-1,1.66-.77,2.42-.36,3-1,.32-.38.55-1.11.07-2.65Z" fill="#b95339"/>
      <path d="M379.49,228a7.65,7.65,0,0,0-1.92.08v-1.07h-.75V229l.43-.05a8.63,8.63,0,0,1,2.08-.14,2.45,2.45,0,0,1,1.28.89,5.24,5.24,0,0,1,.72-.27,3.3,3.3,0,0,0-1.86-1.34Z" fill="#de6727"/>
    </g>
    <path d="M404.27,207.46l-11.15,7.81a3.5,3.5,0,0,1-3.46.9c-1.11-.44-2.72-1.93-1.82-3.64.38-.6.77-1.19,1.16-1.79v0a35.24,35.24,0,0,1,6.22-5.33c2.72-1.82,4.36-2.88,6-2.33C403.38,203.79,404.12,206.78,404.27,207.46Z" fill="#b95339"/>
    <path d="M388.83,212.82a4.47,4.47,0,0,1,1,.12,5.81,5.81,0,0,1,.9.27,6.45,6.45,0,0,1,.86.35,8.17,8.17,0,0,1,.86.46,2.23,2.23,0,0,1-1,.1,4,4,0,0,1-.95-.22,5.52,5.52,0,0,1-.88-.43A3.51,3.51,0,0,1,388.83,212.82Z" fill="#f05b3d"/>
    <path d="M388.53,211.23A4.93,4.93,0,0,1,392,210a5.21,5.21,0,0,1,4.44,3.9c.74-.57,1.79-1.4,3-2.47,2.92-2.6,4.39-3.9,4.24-5.11-.21-1.93-3.52-3.72-6.18-3.2-.86.17-1.66.58-4.18,3a67.11,67.11,0,0,0-4.78,5.08Z" fill="#f69258"/>
    <path d="M403.37,211,299.16,248.93l1.13,3.09L404.5,214.09Z" fill="#3f55a4"/>
    <g id="boy-rl">
      <path d="M312.09,260.69c.79.17.6.19,1.69.46,3.32.83,4.33.45,4.64.31.47-.2.78-.34.84-.6.22-1.15-4.46-2.86-7.4-2.93a2.14,2.14,0,0,0-1.87.57,1.38,1.38,0,0,0-.07,1.52C310.23,260.46,310.72,260.39,312.09,260.69Z" fill="#302d66"/>
      <path d="M314,244.66q-1.56,6.63-3.13,13.25l3.14-.15c4.78-7.83,7.68-13.93,7.24-15.47a2.78,2.78,0,0,0-1.07-1.62,2.26,2.26,0,0,0-1.42-.25,4.26,4.26,0,0,0-2.62,1.49,10.63,10.63,0,0,0-2.11,2.73Z" fill="#f7a287"/>
      <path d="M311.46,256.49s-1.52,1.87-1.14,2.79,2.38.21,4,1.08,2.45,1.44,4.24.37c.31-.18.43-.33.42-.42-.09-.5-1.62-.65-3.23-2a3.37,3.37,0,0,1-.79-.88,5.47,5.47,0,0,1-.42-2.07l-3.06,1.12Z" fill="#f7a287"/>
      <path d="M313.93,260.62l2-2.22,1.68.82-1.68,2Z" fill="#302d66"/>
    </g>
    <path d="M307.77,221.26c-.07.25-.16.55-.22.87,0,.1,0,.2-.05.3a9.7,9.7,0,0,0-.14,1.16v.19a10.2,10.2,0,0,0,0,1.38,5.24,5.24,0,0,1-5.2-1.21,13,13,0,0,0,.53-1.38,12.25,12.25,0,0,0,.5-2.61l4.57,1.31Z" fill="#f7a287"/>
    <path d="M307.49,222.43a9.7,9.7,0,0,0-.14,1.16v0a4.91,4.91,0,0,1-2.79-1.8,4.28,4.28,0,0,1-.59-1.17Z" fill="#e1876e"/>
    <g id="boy-head">
      <path d="M312,218.09a16.38,16.38,0,0,1-.47,1.62,2.67,2.67,0,0,1-.12.24h0s-.21.37-.42.72l-.15.21a4.58,4.58,0,0,1-.76,1,3.09,3.09,0,0,1-1.32.65c-1.11.3-2.24.13-6.51-1.1a4.57,4.57,0,0,1-1.65-.65,4,4,0,0,1-1.25-3.21c0-2.91,3.63-4.94,5.71-5.65,1-.32,2.68-.9,4-.18a5.64,5.64,0,0,1,1.72,1.79,3.32,3.32,0,0,1,.64,1.28,5.72,5.72,0,0,0,.09,1,3.41,3.41,0,0,0,.31.81c.24.4.41.44.46.7s-.09.29-.27.75Z" fill="#f7a287"/>
      <path d="M310.18,211.94c-.14.69-1.61,1-2.49,1.19-.42,1.31-.84,2.62-1.27,3.93a1.33,1.33,0,0,0-.93,1,1.28,1.28,0,0,0,1.13,1.31c0,.24,0,.54-.18.67-.38.23-1.16-.34-1.34-.16s.16.28.16.53c0,.67-1.31,1.53-2.56,1.44a2.9,2.9,0,0,1-.93-.24,6.38,6.38,0,0,1-2.35-1.46,5.75,5.75,0,0,1-1.46-2.51c-.76-3.06,2-5.68,2.17-5.89a8.34,8.34,0,0,1,6.24-2.14c1.91.27,4,1.47,3.8,2.34Z" fill="#954c22"/>
      <path d="M310.69,216.41c0,.24-.07.46-.21.47s-.3-.15-.32-.39.07-.45.21-.47S310.66,216.18,310.69,216.41Z" fill="#302d66"/>
      <path d="M311.3,217.53c.08.22-.3.57-.86.79s-1.07.19-1.15,0,.29-.58.85-.79S311.21,217.3,311.3,217.53Z" fill="#f05b3d"/>
      <path d="M310.73,214.57c.07.1-.17.41-.55.7s-.74.44-.83.34.17-.41.55-.7S310.65,214.47,310.73,214.57Z" fill="#302d66"/>
      <path d="M299.55,213.34c0-.08-.93-1.08-1.76-.74,0,0,1,.45.69.63a3.27,3.27,0,0,0-.56.2.76.76,0,0,0-.4.56s0,.06,0,.16c.85-.44,1.16-.42,1.29-.33a1.9,1.9,0,0,1,.26.78C299.11,214.7,299.11,214.75,299.55,213.34Z" fill="#954c22"/>
      <path d="M311.35,219.94h0s-.21.37-.42.72c0,.07-.1.14-.14.21-.79-.7-.51-1.31-.51-1.31a2.77,2.77,0,0,0,1.09.37Z" fill="#e1876e"/>
    </g>
    <path d="M282.8,247.8l16.76,4.91,20.17-5.26c-6.38-1.46-12.74-2.89-19.12-4.34Z" fill="#e75125"/>
    <path d="M282.82,247.78v2.06l16.66,5.41c0-.86,0-1.71.06-2.56l-16.72-4.92Z" fill="#e55125"/>
    <path d="M299.53,252.7c0,.86,0,1.7,0,2.56l20.25-5.6,0-2.23Z" fill="#e55125"/>
    <path d="M295.07,247.33l15.62-2.63s8.13-7.3-.08-7.3-16,.4-16,.4-1.56,1.84-1.41,3.56c.06.68.36.9.81,1.76a10.24,10.24,0,0,1,1.07,4.2Z" fill="#f7a287"/>
    <path d="M395,217.05a1.13,1.13,0,0,1-1.14-1.11l-.11-11.15a1.13,1.13,0,1,1,2.25,0l.11,11.14A1.13,1.13,0,0,1,395,217.05Z" fill="#3f55a4"/>
    <path d="M294.61,237.92l16-.52c.44,1.72.89,3.44,1.32,5.14a18.6,18.6,0,0,1-12.48,2.89,15.06,15.06,0,0,1-3.05-.8,3.78,3.78,0,0,1-1.58-1.06C293.68,242.22,293.61,240,294.61,237.92Z" fill="#262b5a"/>
    <path d="M410,211.54c-.34.44-1,1.23-5,3.72-1.17.75-2.17,1.34-2.87,1.75-3.26,2.23-6.83.43-5.95-2a12.9,12.9,0,0,1,1.13-1.93c.32-.46.8-1,1.76-2.12,3.45-4,5.24-5.92,7.7-6.27h0a5,5,0,0,1,2.89.47,3.72,3.72,0,0,1,1.83,1.59C412.35,208.57,410.46,211,410,211.54Z" fill="#b95339"/>
    <path d="M397.33,212.51a6.9,6.9,0,0,1,3.06.64,7.33,7.33,0,0,1,3.55,3.8c5.1-2.17,8.21-5.92,7.79-9.2a5.31,5.31,0,0,0-1.1-2.55,9.36,9.36,0,0,0-3-1.21,7.39,7.39,0,0,0-5.15.51,7,7,0,0,0-2,1.87A16.89,16.89,0,0,0,397.33,212.51Z" fill="#f79d61"/>
    <g id="girl-body">
      <path d="M415,191l-1.09,3.59-.05.19-.3,1c-.1.31-.18.62-.28.92,0,.1-.06.18-.08.28-.09.27-.17.54-.25.8l-.53,1.78c-.07.24-.14.48-.21.7-.17.54-.32,1.09-.49,1.62-.26.83-.51,1.66-.75,2.48-10.23-1-12.72-2.3-12.82-3.35,0-.23.1-.31.16-1.21.09-1.34,0-2.44,0-3.54,0-.49,0-1,0-1.48,0-.19,0-.41,0-.6s0-.65.09-1v0c0-.34.11-.74.19-1.17,0-.09,0-.19.06-.27a14.89,14.89,0,0,1,.93-2.72c.66-.25,1.3-.47,1.9-.63a1.43,1.43,0,0,1,.28-.07c.2-.06.38-.1.57-.14.43-.1.84-.17,1.25-.23a13.46,13.46,0,0,1,7,.9l1.21.51a3.49,3.49,0,0,1,.34.15l.37.17.38.19c.76.37,1.46.77,2.08,1.15Z" fill="#b95339"/>
      <g id="girl-lh">
        <path d="M412.39,190.5l6.14-2.88,6.34-7.58,1.18,1.61c-.83,4.95-3,7.28-4.08,8.24a29,29,0,0,1-3.49,2.48,49.49,49.49,0,0,1-4.55,2.56,2.9,2.9,0,0,1-1.75-1.33A3,3,0,0,1,412.39,190.5Z" fill="#b95339"/>
        <path d="M424.45,180.54s0-3.62.43-3.33.11,1.69.38,1.57,1.38-3.16,1.64-2.81-.81,2.24-.4,2.34,1.16-2.76,1.48-2.41-.82,2.65-.62,2.67,1.4-2.14,1.51-1.67-1.11,1.82-.92,2,1.28-1.27,1.26-.8a5.21,5.21,0,0,1-1.12,1.82l-2.32,2Z" fill="#b95339"/>
      </g>
      <g id="girl-rh">
        <path d="M401.12,188.61l-5.69-4.09L390,176.28l-1.36,1.47a14.36,14.36,0,0,0,3.16,8.65,29.67,29.67,0,0,0,3.37,3.12,45.43,45.43,0,0,0,4.15,3.1,5.71,5.71,0,0,0,1.23-1.62,6.09,6.09,0,0,0,.62-2.4Z" fill="#b95339"/>
        <path d="M390.34,176.85s.4-3.59-.07-3.36-.3,1.67-.55,1.53-1-3.28-1.31-3,.55,2.31.14,2.37-.85-2.88-1.2-2.55.52,2.71.32,2.7-1.15-2.28-1.31-1.82.91,1.93.69,2.13-1.12-1.41-1.15-.94a5.23,5.23,0,0,0,.9,1.93c.18.21,2.1,2.26,2.1,2.26l1.46-1.28Z" fill="#b95339"/>
      </g>
      <path d="M401.65,188.34c-.29,2.34-1.1,5.9-3.5,6.1,0-.32.05-.66.09-1v-.06a15.29,15.29,0,0,1,1.19-4.3c.78-.29,1.5-.53,2.2-.73Z" fill="#b95339"/>
      <path d="M415,191.15l-1.45,4.92c-.1.33-.18.64-.28,1a6.17,6.17,0,0,1-1.46-7.6l.7.33a23.54,23.54,0,0,1,2.49,1.4Z" fill="#b95339"/>
      <path d="M413.58,196.26a21.49,21.49,0,0,0-1.16,5.42,22,22,0,0,0,.13,4.71,7.62,7.62,0,0,1-4.71.57c-1.79-.39-2-1.29-4.1-1.66-1.77-.31-2.36.21-3.93-.25a6.76,6.76,0,0,1-2.81-1.71c.24-1.56.46-3.18.64-4.87.24-2.2.41-4.31.53-6.32a18.41,18.41,0,0,1,4.14.53,18.92,18.92,0,0,1,4,1.49c2.31-.53,6.13.93,7.21,2.07Z" fill="#7b7bba"/>
      <g>
        <path d="M407.49,202.55c-.09.34-.55.51-1.48.86a1,1,0,0,1-.2.07c-.32.12-.59.2-.79.26,0,0-.24-2.21-.55-2.36s-2.08.19-2.7,0a.65.65,0,0,1-.44-.39.81.81,0,0,1,0-.44.93.93,0,0,1,.41-.43c1.07-.64,1.61-1,1.65-1a1.72,1.72,0,0,1,.66-.39l.1,0a1.73,1.73,0,0,1,1.37.5l.21.2a6.53,6.53,0,0,1,.8,1.3c.78,1.34,1,1.5.9,1.8Z" fill="#fff"/>
        <path d="M402.17,200.48a.47.47,0,0,1-.22.27c-.15.07-.3.1-.32,0s.07-.2.22-.27S402.15,200.41,402.17,200.48Z" fill="#3c3d7f" opacity="0.46"/>
        <path d="M404.05,199.68c0,.14,0,.25-.11.25s-.11-.11-.11-.23,0-.26.11-.26S404.05,199.55,404.05,199.68Z" fill="#3c3d7f"/>
        <path d="M405.49,199.4c-.09.07-.35-.06-.58-.2a2.57,2.57,0,0,1-.35-.24l-.07-.05.07-.07c.14-.2.45-.79.6-1,0-.06.07-.1.09-.08s.42,1.53.25,1.67Z" fill="#fff"/>
        <path d="M407.49,202.55c-.09.34-.55.51-1.48.86a1,1,0,0,1-.2.07,1.42,1.42,0,0,1,.21-.93c.3-.56-.25-.36-.67-.18s.08-.77.26-1.15-.21-.07-.53-.23.45-1.69.45-1.69,0,0,.06-.06l.21.2a6.53,6.53,0,0,1,.8,1.3c.78,1.34,1,1.5.9,1.8Z" fill="#f26f53" opacity="0.52"/>
        <path d="M404.09,198.93l-.59.5-.11-.28c-.07-.17-.16-.43-.26-.69,0-.08-.05-.14-.07-.23a2.58,2.58,0,0,0-.14-.39c-.05-.19-.11-.37-.17-.55-.18-.62-.29-1.13-.15-1.16s.39.4.66.93c.07.14.14.28.21.44l.21.46.13.28c.11.26.2.46.24.58A.82.82,0,0,1,404.09,198.93Z" fill="#fff"/>
        <path d="M403.68,198l-.62.26a3.71,3.71,0,0,0-.14-.39c-.05-.18-.11-.37-.17-.55-.18-.62-.29-1.13-.15-1.15s.39.39.66.92l.21.44Z" fill="#f26f53" opacity="0.52"/>
        <path d="M403.26,197.06a4.49,4.49,0,0,1-.51.23c-.18-.62-.29-1.13-.15-1.16S403,196.53,403.26,197.06Z" fill="#69bfeb"/>
        <path d="M404.05,198.82l-.66.33c-.07-.17-.16-.43-.26-.69l.67-.22c.11.26.19.46.23.58Z" fill="#f9c63b" opacity="0.59"/>
        <path d="M405.11,198.93a1.46,1.46,0,0,1-.2.27c-.11.13-.23.17-.28.09a.86.86,0,0,1-.07-.33v-.12c.14-.2.45-.79.6-1a2.65,2.65,0,0,1,0,1.13Z" fill="#f26f53" opacity="0.52"/>
      </g>
      <path d="M402.2,188.2l-.63,5.75-.82-.09.61-5.43.28-.09.58-.14Z" fill="#7b7bba"/>
      <path d="M412.91,189.93l-1.56,5.68-.79-.23,1.6-5.81a2.12,2.12,0,0,1,.37.18l.38.2Z" fill="#7b7bba"/>
      <path d="M405.39,187.12a8.54,8.54,0,0,0,.17-1.17,7.84,7.84,0,0,0,0-.82l3.67.68a7,7,0,0,0-.14,1.77,8.84,8.84,0,0,0,.13,1.18,2.27,2.27,0,0,1-4.16-.56,5.85,5.85,0,0,0,.23-.73c0-.07,0-.18.08-.34Z" fill="#b95339"/>
      <path d="M409.38,186.78a9.1,9.1,0,0,1-2.64.73,11.13,11.13,0,0,1-1.36.11v0a10.12,10.12,0,0,0,.2-1.44l3.78.63Z" fill="#d75032"/>
      <g id="girl-head">
        <path d="M402.21,182.47a3.76,3.76,0,0,0-.38,2.84,2.22,2.22,0,0,1,.18,1.33c-.11.45-.32.38-.52.91a3.23,3.23,0,0,0-.07,1.95,1,1,0,0,1,.09.35c0,.49-.68.58-.88,1.14-.12.37.13.41.07,1s-.38.63-.52,1.36a2.06,2.06,0,0,0,.06,1.07c.08.27.17.53.34.58.49.16,1.25-1,1.21-1.41-.1-1.05.84-1.35.89-1.79.08-.73-.22-1,.07-1.6.14-.28.25-.32.53-.83a3.53,3.53,0,0,0,.37-.83c.2-.81-.24-1.14-.06-1.86.1-.4.28-.44.52-.88a3.87,3.87,0,0,0,.4-2.39,14.57,14.57,0,0,0-1.89-2.83l-.39,1.94Z" fill="#2c2d63"/>
        <path d="M400.42,194.16a5.72,5.72,0,0,0-1.58,3.48c-.18,2.18.27,2.76.27,2.76a11.78,11.78,0,0,0,1.83-2.33c.56-1.08.28-3.7.28-3.7l-.82-.21Z" fill="#2c2d63"/>
        <path d="M401.3,194.3l-.91-.29a.49.49,0,0,0-.62.32l0,.12a.49.49,0,0,0,.32.62l.91.29a.49.49,0,0,0,.62-.32l0-.12A.5.5,0,0,0,401.3,194.3Z" fill="#de6727"/>
        <path d="M400.83,193.58a1,1,0,0,1,.09-.32,1.38,1.38,0,0,1,.19-.28.92.92,0,0,1,.25-.23.48.48,0,0,1,.33-.08,1,1,0,0,0-.26.18l-.21.22a6,6,0,0,1-.41.5Zm.12-1.7a3,3,0,0,0,.13.52,2.41,2.41,0,0,1,.08.25,2.67,2.67,0,0,0,.09.26.86.86,0,0,0,0-.55c0-.09-.07-.17-.11-.26a1.18,1.18,0,0,0-.17-.22Zm1.36-2.71c.11-.19.18-.39.27-.57a1.38,1.38,0,0,1,.14-.27,1.15,1.15,0,0,1,.19-.26.58.58,0,0,0-.29.17,2.31,2.31,0,0,0-.19.28,1.48,1.48,0,0,0-.09.33,1.93,1.93,0,0,0,0,.34ZM402,187.5a5.39,5.39,0,0,0,.25.48,1.64,1.64,0,0,0,.14.22c.06.07.1.16.16.23a.93.93,0,0,0-.16-.54,1,1,0,0,0-.17-.21.87.87,0,0,0-.22-.17Zm-.28,4.28c.11-.2.18-.4.26-.58s.09-.18.15-.27a1.1,1.1,0,0,1,.19-.25.46.46,0,0,0-.29.17,1,1,0,0,0-.18.28,1,1,0,0,0-.1.33,1.82,1.82,0,0,0,0,.33Zm-.27-1.68a3.57,3.57,0,0,0,.25.48,1.28,1.28,0,0,0,.14.23c.06.07.1.15.16.22a.9.9,0,0,0-.16-.53,1,1,0,0,0-.17-.21.69.69,0,0,0-.22-.17Zm1.37-3c.11-.2.18-.39.27-.58a2.34,2.34,0,0,1,.14-.27,1.38,1.38,0,0,1,.19-.25.58.58,0,0,0-.29.17,1,1,0,0,0-.18.28,1,1,0,0,0-.1.33,1.82,1.82,0,0,0,0,.33Zm-.26-1.68a3.57,3.57,0,0,0,.25.48,1.28,1.28,0,0,0,.14.23c.06.07.1.15.16.22a.9.9,0,0,0-.16-.53,1,1,0,0,0-.17-.21.87.87,0,0,0-.22-.17Z" fill="#4d4b9e"/>
        <path d="M411,183a3.73,3.73,0,0,0-.38,2.85,2.28,2.28,0,0,1,.18,1.32c-.11.45-.32.38-.52.92a3.05,3.05,0,0,0-.07,1.94,1.2,1.2,0,0,1,.08.35c0,.49-.67.58-.87,1.14-.13.37.13.41.07,1s-.38.64-.52,1.37a2.09,2.09,0,0,0,0,1.07c.09.27.17.52.34.58.5.15,1.26-1,1.21-1.41-.09-1.06.85-1.36.89-1.79.09-.73-.21-1,.07-1.61.14-.28.26-.32.54-.83a3.54,3.54,0,0,0,.36-.83c.2-.8-.24-1.14-.05-1.86.1-.39.28-.44.52-.87a3.79,3.79,0,0,0,.39-2.4,14.43,14.43,0,0,0-1.89-2.83l-.39,2Z" fill="#2c2d63"/>
        <path d="M413.35,182.68a5.14,5.14,0,0,1-2,3,5.93,5.93,0,0,1-3.68,1.36,4.83,4.83,0,0,1-4.94-6.26,5.52,5.52,0,0,1,5.84-3.87c3,.37,5.13,3.37,4.76,5.76Z" fill="#b95339"/>
        <path d="M407.83,174.92a3.43,3.43,0,0,1-.38,2.34c-.55.86-1.38,1-2.47,1.69a7.82,7.82,0,0,0-2.38,2.53,4.65,4.65,0,0,1-.21-1.15,5.39,5.39,0,0,1,3.49-5.21,4.54,4.54,0,0,1,1.95-.19Z" fill="#2c2d63"/>
        <path d="M405.59,175.85a3.69,3.69,0,0,0,.94,2.24c.72.73,1.25.46,3,1.46a6,6,0,0,1,2.1,1.79,4.68,4.68,0,0,1,.59,1.16c.39.07.77.14,1.17.19a5.77,5.77,0,0,0-.12-4.88,5.4,5.4,0,0,0-5-2.92,5,5,0,0,0-2.62,1Z" fill="#2c2d63"/>
        <path d="M404.91,181.66c0,.26-.21.46-.43.43a.46.46,0,0,1-.31-.51c0-.25.22-.45.43-.42A.43.43,0,0,1,404.91,181.66Z" fill="#2c2d63"/>
        <path d="M409.89,182.37c0,.25-.21.45-.42.42a.43.43,0,0,1-.31-.5c0-.26.21-.46.42-.43A.44.44,0,0,1,409.89,182.37Z" fill="#2c2d63"/>
        <path d="M406.74,183.76c-.4-.31-.4-.43-.2-.78a5.45,5.45,0,0,0,.35-1l.2,0a5.55,5.55,0,0,1-.37,1c-.17.29-.18.33.14.59l-.12.11Z" fill="#f05b3d"/>
        <path d="M405.94,180.16a.28.28,0,0,1-.11.22c-.17.13-.37,0-.86-.12s-.71,0-.82-.16a.28.28,0,0,1,0-.2c.07-.21.56-.22.86-.19s.94.18.95.45Z" fill="#2c2d63"/>
        <path d="M410.63,180.83a.31.31,0,0,1-.12.23c-.16.13-.36-.06-.86-.13s-.7,0-.81-.15-.07-.1,0-.2.56-.23.85-.2,1,.19,1,.45Z" fill="#2c2d63"/>
        <path d="M405,183.12c0,.15-.39.23-.83.19s-.77-.22-.76-.38.4-.24.83-.19S405,183,405,183.12Z" fill="#d75032"/>
        <path d="M410.6,183.76c0,.16-.39.24-.83.2s-.78-.22-.76-.38.39-.24.83-.2S410.61,183.61,410.6,183.76Z" fill="#d75032"/>
        <path d="M407.76,185.58a1,1,0,0,1-1.24,0,1.51,1.51,0,0,1-.54-1,.2.2,0,0,1,.1,0,3.2,3.2,0,0,0,.9,0,2.69,2.69,0,0,0,.79-.19l.2-.07a1.19,1.19,0,0,1-.2,1.23Z" fill="#f05b3d"/>
        <path d="M407.71,184.69c-.11.17-.34.2-.62.21l-.08-.16h0l-.06.19a1,1,0,0,1-.72-.19.91.91,0,0,1-.11-.16,3.19,3.19,0,0,0,.9,0,3.08,3.08,0,0,0,.79-.18C407.77,184.57,407.77,184.64,407.71,184.69Z" fill="#fff"/>
        <path d="M412.55,182.47s1.18-.55,1.22.27-.15,1.38-1.24,1.46,0-1.73,0-1.73Z" fill="#f26f53"/>
        <path d="M413,182.68a.62.62,0,0,1,.29.15.79.79,0,0,1,.17.33.36.36,0,0,1-.05.22.33.33,0,0,1-.15.14,1.09,1.09,0,0,1-.17,0,.34.34,0,0,1-.17,0l.14-.06s.1,0,.13,0a.25.25,0,0,0,.11-.24.63.63,0,0,0-.1-.27,1,1,0,0,0-.18-.23Z" fill="#f05b3d"/>
        <path d="M409.21,194.74a5.68,5.68,0,0,0-1.58,3.48c-.18,2.18.27,2.76.27,2.76a12.12,12.12,0,0,0,1.83-2.33c.56-1.08.28-3.7.28-3.7l-.82-.21Z" fill="#2c2d63"/>
        <path d="M410.1,194.88l-.91-.29a.49.49,0,0,0-.62.31l0,.12a.51.51,0,0,0,.32.63l.92.29a.5.5,0,0,0,.62-.32l0-.12A.49.49,0,0,0,410.1,194.88Z" fill="#de6727"/>
        <path d="M409.62,194.16a1,1,0,0,1,.09-.32,1.81,1.81,0,0,1,.19-.29.88.88,0,0,1,.25-.22.55.55,0,0,1,.33-.09,1.34,1.34,0,0,0-.26.19l-.21.22a6,6,0,0,1-.41.5Zm.14-1.7a3,3,0,0,0,.13.52,1272648978949.94,1272648978949.94,0,0,1,.16.5.8.8,0,0,0,0-.55,2.72,2.72,0,0,0-.11-.25.72.72,0,0,0-.17-.22Zm1.33-2.71a4.26,4.26,0,0,0,.27-.58l.14-.27a1.46,1.46,0,0,1,.2-.25.65.65,0,0,0-.3.17,1,1,0,0,0-.18.28,1.8,1.8,0,0,0-.1.33c0,.11,0,.22,0,.33Zm-.25-1.68a3.57,3.57,0,0,0,.25.48,2.32,2.32,0,0,0,.14.23c.06.07.1.15.16.22a.9.9,0,0,0-.16-.53,1,1,0,0,0-.16-.21,1.13,1.13,0,0,0-.23-.17Zm-.3,4.29a4.9,4.9,0,0,0,.27-.58,1.74,1.74,0,0,1,.14-.27,1,1,0,0,1,.2-.25.51.51,0,0,0-.3.17,1,1,0,0,0-.18.28,1.31,1.31,0,0,0-.1.32c0,.12,0,.23,0,.34Zm-.25-1.68a3.67,3.67,0,0,0,.26.48,1,1,0,0,0,.14.22l.15.23a.85.85,0,0,0-.15-.54,1.57,1.57,0,0,0-.17-.21,1,1,0,0,0-.23-.17Zm1.37-3c.11-.2.18-.4.27-.58a2.34,2.34,0,0,1,.14-.27,1,1,0,0,1,.2-.25.46.46,0,0,0-.3.17,1,1,0,0,0-.18.28,1,1,0,0,0-.1.32,1.93,1.93,0,0,0,0,.34ZM411.4,186a2.71,2.71,0,0,0,.26.48,1.09,1.09,0,0,0,.14.23c.05.07.09.15.15.22a.87.87,0,0,0-.15-.53,1.12,1.12,0,0,0-.17-.21.63.63,0,0,0-.23-.17Z" fill="#4d4b9e"/>
        <path d="M407.38,176.92a8.11,8.11,0,0,1,1.78.6,10.67,10.67,0,0,1,1.64,1,12.16,12.16,0,0,1,1.42,1.27,8.45,8.45,0,0,1,1.13,1.52c-.41-.48-.83-.93-1.28-1.37a14.44,14.44,0,0,0-1.43-1.18c-.25-.18-.5-.35-.77-.52s-.54-.32-.8-.46a18.67,18.67,0,0,0-1.69-.81Zm.29-.82a10.36,10.36,0,0,1,1.69.52,7.17,7.17,0,0,1,1.52.88,7.66,7.66,0,0,1,1.29,1.19,10.76,10.76,0,0,1,1,1.45,5.65,5.65,0,0,0-.84-1.59,6.34,6.34,0,0,0-.59-.69l-.34-.31-.17-.14-.18-.14-.38-.25-.4-.23a5.48,5.48,0,0,0-.83-.36,5.41,5.41,0,0,0-1.77-.31Zm-1.76,1.49a5.1,5.1,0,0,0-.94.37,5.47,5.47,0,0,0-.86.55l-.38.34c-.07.05-.13.13-.19.18l-.16.2a3.31,3.31,0,0,0-.54.87c.23-.25.45-.49.69-.72a7.67,7.67,0,0,1,.75-.64,9.12,9.12,0,0,1,.79-.6c.26-.19.54-.38.83-.56Zm-.52-1.32a3.76,3.76,0,0,0-1.14.71,4.89,4.89,0,0,0-.86,1c-.11.18-.22.38-.32.58a4,4,0,0,0-.26.6,6.3,6.3,0,0,0,.37-.53l.38-.52.21-.24.1-.13.11-.11.21-.23.24-.21a4.66,4.66,0,0,1,1.05-.72,3.37,3.37,0,0,1,1.22-.35A2.37,2.37,0,0,0,405.39,176.27Z" fill="#4d4b9e"/>
      </g>
    </g>
    <path d="M402.91,207.5a.58.58,0,0,1-.22,0L387.3,204a1,1,0,0,1,.44-1.87l15.38,3.48a.94.94,0,0,1,.72,1.15A1,1,0,0,1,402.91,207.5Z" fill="#3f55a4"/>
    <g id="girl-ll">
      <path d="M397.54,231.57c-.26.71-1,.66-2.32,1.42a6.66,6.66,0,0,0-.63.44c-.78.62-.85,1.06-1.61,1.44-1.89.95-4.73-.05-4.8-.89,0-.52,1-.66,2.31-1.31.21-.11.43-.22.67-.37a8.13,8.13,0,0,0,1.82-1.43,4.29,4.29,0,0,1,2-1.41,2.18,2.18,0,0,1,2,.25,1.78,1.78,0,0,1,.55,1.85Z" fill="#fff"/>
      <path d="M402.14,217c.09,2-6.81,14.2-6.81,14.2-1-.4-2.1-.78-3.14-1.17.82-3.08,1.41-5.55,1.79-7.24.83-3.59,1.23-5.77,2.21-7.81a3.21,3.21,0,0,1,2.72-1.51A3.51,3.51,0,0,1,402.14,217Z" fill="#b95339"/>
      <path d="M392.67,229.39a11.22,11.22,0,0,1-3.27,3.49c-.22.14-1.12.69-1,1,0,.14.32.21.7.3a6,6,0,0,0,.73.11l.42.21a3.42,3.42,0,0,0,2.27.06c.79-.28.73-.68,1.76-1.51,1.42-1.14,2.26-.94,2.62-1.72.21-.45.26-1.22-.59-2.58l-3.63.64Z" fill="#b95339"/>
      <path d="M393.1,232.15a8.48,8.48,0,0,0-1.84.56l-.09-.38-.17-.65-.72.2.22.82.27,1,.38-.15a9.51,9.51,0,0,1,2-.65,2.47,2.47,0,0,1,1.46.54,3.93,3.93,0,0,1,.64-.44,3.31,3.31,0,0,0-2.13-.85Z" fill="#de6727"/>
    </g>
    <path d="M396.55,216.17a4.52,4.52,0,0,1,1,.08,7.13,7.13,0,0,1,.91.23,8.18,8.18,0,0,1,.87.32,7.84,7.84,0,0,1,.88.43,2.36,2.36,0,0,1-1,.14,4.06,4.06,0,0,1-1-.19,5,5,0,0,1-.89-.39A3.23,3.23,0,0,1,396.55,216.17Z" fill="#f05b3d"/>
    <path d="M311.51,235.65l-2.26,0,.1,10.31,2.26,0Z" fill="#3f55a4"/>
    <path d="M303,250c5.38-1,10.76-2.07,16.14-3.1.37-.45,3-3.67,1.94-5.4-.63-1.06-2.34-1.12-3.36-1.1-7.85.1-15.29.59-15.29.59a5.9,5.9,0,0,0-2.95,1.79,3.4,3.4,0,0,0-.34,2.51C299.58,248.11,302.45,249.69,303,250Z" fill="#f7a287"/>
    <path d="M294.6,237.92c-.22.4-3.63,6.32-1.14,10.13,2.89,4.4,11.43,2.65,13.48,2.23a21.53,21.53,0,0,0,5.47-1.92c.73-2.63,1.46-5.27,2.2-7.9l-8.43.07s-8.07-6.42-11.58-2.59Z" fill="#302d66"/>
    <path d="M309.54,232.71c-.56,1.95-1.37,4.86-2.36,8.74a6.78,6.78,0,0,1-1.35,1.53,7.45,7.45,0,0,1-2.17,1.27,10.21,10.21,0,0,1-4.21.53,13.82,13.82,0,0,1-2.71-.48,8.87,8.87,0,0,1-1.26-.43,11.55,11.55,0,0,1-3.31-2.06c-.23-.2-.47-.42-.69-.65,3.34-6.19,5.81-10.89,7.11-13.83.41-.93,1.3-3,3-3.45a15.75,15.75,0,0,1,2.53-.23,7.81,7.81,0,0,1,.88.12,6.82,6.82,0,0,1,1.14.34,6.62,6.62,0,0,1,3.85,4.43,7.81,7.81,0,0,1-.45,4.17Z" fill="#f8ce48"/>
    <path d="M302.55,227.21a23.46,23.46,0,0,0-1.24,4.84c-.35,2.52-.62,4.45.18,5.65,1.4,2.11,6.15,2.14,11.55.06-.11-.78-.24-1.54-.35-2.31l-7.18-.55c.51-2.39,1-4.78,1.53-7.16a2.66,2.66,0,0,0-1.42-1.48,2.76,2.76,0,0,0-3.08,1Z" fill="#f7a287"/>
    <path d="M311.63,236s2.13-2.13,2.58-1.93.21.4.21.4.82-.29,1,0,.21.37.21.37.62-.17.71,0,0,.17,0,.17.61-.13.78.11,0,.3,0,.3-1.26,1.75-1.87,1.92-2.82.61-2.82.61l-.83-1.94Z" fill="#f7a287"/>
    <path d="M300.34,233a24.39,24.39,0,0,1,1.15-3.76c.82-2,1.24-3,2.28-3.5a2.74,2.74,0,0,1,2.85.31c.42.41.49.93.59,1.85.12,1.09.26,2.55.33,4.28-2.41.27-4.81.53-7.22.82Z" fill="#f79b40"/>
  </g>
</svg>